<svg width="38" height="38" viewBox="0 0 38 38" fill="none" xmlns="http://www.w3.org/2000/svg">
<path d="M19 0C8.50725 0 0 8.50725 0 19C0 29.4928 8.50725 38 19 38C29.4928 38 38 29.4928 38 19C38 8.50725 29.4928 0 19 0ZM19 4.75C25.1833 4.75 30.4059 8.73287 32.3784 14.25H5.62163C7.59406 8.73287 12.8167 4.75 19 4.75ZM19 21.375C17.6878 21.375 16.625 20.3122 16.625 19C16.625 17.6878 17.6878 16.625 19 16.625C20.3122 16.625 21.375 17.6878 21.375 19C21.375 20.3122 20.3122 21.375 19 21.375ZM4.75 19C11.2397 19 16.4956 25.2534 16.606 33.0089C9.8895 31.8583 4.75 26.0371 4.75 19ZM21.394 33.0089C21.5044 25.2534 26.7603 19 33.25 19C33.25 26.0371 28.1105 31.8583 21.394 33.0089Z" fill="white"/>
</svg>
