<svg width="36" height="32" viewBox="0 0 36 32" fill="none" xmlns="http://www.w3.org/2000/svg">
<path d="M30.5 0.770819C25.6042 0.624985 22.2708 3.39582 20.5417 9.10415C21.375 8.74998 22.2708 8.56249 23.1667 8.54165C24.4167 8.41665 25.5208 9.33332 25.6458 10.5833C25.6875 10.9167 25.6458 11.25 25.5208 11.5625C25.125 13.4792 24.3125 15.2917 23.1667 16.8958C21.6875 19.2292 20.5625 20.3958 19.8333 20.3958C19.1042 20.3958 18.2292 18.6042 17.2292 15C16.9167 13.75 16.4375 11.0625 15.7917 6.91665C15.625 5.31248 15.0208 3.77082 14.0417 2.49999C13.2083 1.56249 11.9583 1.10415 10.7292 1.29165C8.72917 1.83332 6.91666 2.89582 5.5 4.39582L2.6875 6.89582L0.354164 8.97915L2.02083 11.0625C2.85416 10.375 3.77083 9.83332 4.77083 9.41665C6 9.41665 7.125 11.3125 8.16667 15.1042L11.0208 25.5208C12.4167 29.3333 14.1458 31.2292 16.2292 31.2292C19.5417 31.2292 23.6042 28.1042 28.4167 21.875C33.0625 15.875 35.4792 11.1667 35.625 7.74998C35.8542 3.22915 34.1458 0.895819 30.5 0.770819Z" fill="black"/>
</svg>
