<svg width="34" height="34" viewBox="0 0 34 34" fill="none" xmlns="http://www.w3.org/2000/svg">
<path d="M19.9375 25.5005C19.9375 26.2088 19.7292 26.563 19.3125 26.563C19.0417 26.5421 18.7917 26.4171 18.6042 26.2088V21.3546C18.7917 21.1463 19.0417 21.0213 19.3125 21.0005C19.7292 21.0005 19.9375 21.3546 19.9375 22.0838V25.4796V25.5005ZM23.9375 22.1255C23.9375 21.3963 24.1667 21.0213 24.6458 21.0213C25.125 21.0213 25.3542 21.3963 25.3542 22.1255V22.9171H23.9375V22.1046V22.1255ZM6.52083 17.0838V18.6046H8.20833V27.7713H9.8125V18.6046H11.5417V17.0838H6.52083ZM15.9167 19.813H14.4583V25.8963C14.2708 26.2505 13.9375 26.5005 13.5417 26.563C13.375 26.5838 13.2292 26.4796 13.2083 26.313C13.2083 26.2921 13.2083 26.2505 13.2083 26.2296C13.1875 26.0421 13.1875 25.8546 13.2083 25.6671V19.813H11.7708V26.063C11.75 26.4588 11.7917 26.8546 11.8958 27.2296C12.0208 27.6255 12.3958 27.8755 12.8125 27.8338C13.4792 27.7505 14.0833 27.3963 14.4583 26.8546V27.7296H15.9167V19.813ZM21.2292 20.6255C21.125 20.0838 20.6458 19.688 20.0833 19.7088C19.4792 19.7505 18.9375 20.0838 18.6042 20.5838V17.0838H17.1458V27.7713H18.6042V27.0838C18.9375 27.6046 19.4792 27.9171 20.0833 27.9796C20.6458 28.0005 21.125 27.6046 21.2292 27.063C21.3542 26.5421 21.3958 26.0213 21.375 25.4796V22.2296C21.3958 21.688 21.3542 21.1463 21.2292 20.6046V20.6255ZM26.8125 25.0005H25.3333V25.4588C25.3333 25.6046 25.3333 25.7296 25.3333 25.813V25.9588C25.2917 26.2921 25.0208 26.5421 24.6875 26.5213C24.2083 26.5213 23.9583 26.1463 23.9583 25.4171V24.0421H26.8333V22.3963C26.875 21.7296 26.7292 21.0838 26.375 20.5213C26 19.9796 25.3542 19.6463 24.6875 19.688C24 19.6671 23.375 19.9796 22.9583 20.5213C22.625 21.0838 22.4583 21.7505 22.5208 22.3963V25.188C22.4375 25.8546 22.5833 26.5213 22.9167 27.0838C23.3333 27.6255 23.9792 27.938 24.6667 27.9171C25.375 27.9796 26.0625 27.6671 26.4583 27.0838C26.625 26.813 26.75 26.5213 26.7917 26.2088C26.8125 25.8963 26.8125 25.5838 26.7917 25.2713V25.0005H26.8125ZM16.3958 6.00047C15.9375 6.00047 15.7083 6.37547 15.7083 7.12547V10.5213C15.7083 11.2505 15.9375 11.6255 16.3958 11.6255C16.8542 11.6255 17.0833 11.2505 17.0833 10.5213V7.14631C17.0625 6.39631 16.8125 6.02131 16.3333 6.02131L16.3958 6.00047ZM28.6458 22.6671C28.7083 24.563 28.5625 26.4588 28.2083 28.313C28.0625 28.9171 27.75 29.4796 27.2917 29.8963C26.8333 30.313 26.2708 30.5838 25.6458 30.6463C23.6667 30.8755 20.6875 30.9796 16.7083 30.9796C12.7292 30.9796 9.75 30.8755 7.77083 30.6463C7.14583 30.5838 6.58333 30.313 6.125 29.8963C5.66667 29.4796 5.35417 28.9171 5.20833 28.313C4.85417 26.4588 4.70833 24.563 4.77083 22.6671C4.72917 20.7713 4.875 18.8755 5.20833 17.0213C5.33333 16.3963 5.66667 15.8338 6.125 15.4171C6.5625 14.9796 7.125 14.688 7.75 14.5838C10.7083 14.3546 13.6875 14.2505 16.6667 14.313C19.6458 14.2713 22.625 14.3755 25.6042 14.6463C26.2083 14.7088 26.7917 14.9796 27.25 15.3963C27.7292 15.813 28.0625 16.3755 28.1875 17.0005C28.5208 18.8546 28.6667 20.7505 28.6042 22.6463L28.6458 22.6671ZM12.2292 8.47964V12.8338H10.625V8.47964C10.3542 7.31297 10.0208 6.16714 9.625 5.04214L9.10417 3.56297C8.875 2.89631 8.70833 2.39631 8.60417 2.08381H10.2917L11.4375 6.25047L12.5 2.08381H14.1667L12.2292 8.47964ZM18.0417 12.1255C17.6458 12.6463 17.0208 12.9588 16.3542 12.9588C15.6667 13.0213 14.9792 12.7088 14.5833 12.1255C14.2292 11.563 14.0833 10.8963 14.125 10.2296V7.41714C14.0833 6.75047 14.25 6.10464 14.5833 5.54214C14.9583 5.00047 15.6042 4.66714 16.2708 4.70881C16.9375 4.70881 17.5625 5.02131 17.9583 5.54214C18.3125 6.10464 18.4583 6.77131 18.4167 7.43797V10.2505C18.5 10.8963 18.3542 11.563 18.0417 12.1255ZM22.4167 11.9796C22.0208 12.5213 21.4167 12.8755 20.75 12.9588C20.3333 13.0005 19.9583 12.7505 19.8125 12.3755C19.7083 11.9796 19.6667 11.5838 19.6875 11.188V4.83381H21.1458V10.7296C21.125 10.9171 21.125 11.1046 21.1458 11.2921C21.125 11.4588 21.2292 11.6255 21.4167 11.6463C21.4375 11.6463 21.4792 11.6463 21.5 11.6463C21.8958 11.5838 22.2292 11.3338 22.4167 10.9796V4.83381H23.875V12.8546H22.4167V11.9796ZM31.5 1.83381C30.3333 0.646308 28.75 -0.0203593 27.0833 0.000474066H6.25C2.79167 0.000474066 0 2.79214 0 6.25047V27.0838C0 30.5421 2.79167 33.3338 6.25 33.3338H27.0833C30.5417 33.3338 33.3333 30.5421 33.3333 27.0838V6.25047C33.3542 4.58381 32.6875 3.00047 31.5 1.83381Z" fill="black"/>
</svg>
