<svg width="47" height="45" viewBox="0 0 47 45" fill="none" xmlns="http://www.w3.org/2000/svg">
<path d="M33.9917 45C33.7402 44.9624 33.4857 44.9392 33.2399 44.8843C31.505 44.5055 30.094 43.6294 29.056 42.1721C28.5962 41.5302 28.1509 40.8767 27.6652 40.255C26.7977 39.1447 25.644 38.4305 24.3428 37.9448C23.9756 37.806 23.6055 37.6614 23.2238 37.5746C22.8277 37.4879 22.4142 37.4648 22.0094 37.4243C21.0321 37.3231 20.0577 37.2045 19.1526 36.7853C18.4876 36.4759 17.9469 36.0335 17.6924 35.3222C17.3484 34.368 17.5074 33.4919 18.184 32.7285C18.4413 32.4365 18.7334 32.1763 19.0023 31.8929C19.222 31.6616 19.4476 31.4361 19.6297 31.1787C19.7483 31.0139 19.8003 30.797 19.8639 30.6004C19.9131 30.4501 19.8437 30.3171 19.7136 30.2419C19.5488 30.1465 19.3782 30.0424 19.1931 29.999C18.6611 29.8747 18.1233 29.7735 17.5855 29.6751C16.1744 29.4207 14.746 29.227 13.4073 28.666C12.401 28.2439 11.5076 27.6685 10.831 26.7952C10.7789 26.7258 10.7269 26.6564 10.6748 26.5871C10.3654 26.6767 10.0589 26.7808 9.74954 26.8531C8.47729 27.1538 7.22528 27.1306 6.02821 26.5495C5.0133 26.0579 4.25862 25.3119 3.87984 24.2305C3.66009 23.6002 3.68611 22.9583 3.82201 22.3221C4.19212 20.5728 5.41521 19.3815 7.17613 19.075C8.37609 18.8668 9.52401 19.0374 10.6054 19.6735C10.6343 19.5376 10.6633 19.4104 10.6922 19.2803C11.6868 14.891 15.0323 11.5716 19.2943 10.6174C20.4683 10.3543 21.6538 10.2734 22.8537 10.3688C24.3139 10.4844 25.7221 10.8517 27.1013 11.3287C28.0266 11.6497 28.9519 11.9735 29.8829 12.2772C30.3832 12.4391 30.8978 12.5489 31.4299 12.4998C32.0573 12.442 32.5373 12.1528 32.812 11.5774C32.9913 11.2015 33.1301 10.8054 33.3007 10.4237C33.5753 9.80205 33.9599 9.24978 34.4283 8.75823C34.4515 8.7351 34.4717 8.70907 34.5093 8.6657C34.2809 8.50089 34.064 8.33607 33.8385 8.18572C32.6703 7.39924 31.3778 6.93371 29.9986 6.68793C28.6396 6.44505 27.269 6.42192 25.8956 6.52312C25.2334 6.57227 24.5771 6.67637 23.9149 6.7342C23.5217 6.76889 23.1255 6.78335 22.7323 6.7689C21.8012 6.73998 20.8846 6.60697 19.997 6.31204C19.3753 6.10675 18.7854 5.84073 18.2939 5.39834C17.704 4.8692 17.4351 4.21862 17.5103 3.41479C17.5768 2.72083 17.7561 2.08182 18.2274 1.55268C18.6235 1.1045 19.1295 0.824026 19.6818 0.61584C20.4018 0.346933 21.1535 0.219708 21.914 0.121398C23.166 -0.0405243 24.4238 -4.37144e-05 25.6816 0.0173051C26.4363 0.028871 27.1794 0.190794 27.9167 0.364282C30.1605 0.896313 32.2684 1.76375 34.2115 3.00998C35.663 3.94103 36.9497 5.05425 37.9444 6.47975C38.0485 6.6301 38.1179 6.83829 38.2595 6.91925C38.4012 6.99732 38.6152 6.94527 38.7974 6.95684C39.9829 7.01467 41.1366 7.21707 42.2353 7.6826C43.8661 8.37655 45.069 9.53893 45.9567 11.0541C46.347 11.722 46.5436 12.4506 46.694 13.1966C46.8733 14.0901 46.9542 14.998 46.9282 15.9088C46.908 16.5941 46.8154 17.2678 46.6159 17.9271C46.3904 18.6673 45.9249 19.1907 45.2454 19.5405C44.5167 19.9164 43.7389 20.1159 42.9264 20.1824C41.417 20.3068 39.9684 20.0263 38.566 19.4769C38.5342 19.4654 38.5053 19.4538 38.4591 19.4364C38.3636 25.0835 36.1748 29.6751 31.6554 33.1102C31.4038 32.9743 31.1581 32.8413 30.9094 32.7054C31.028 32.4018 31.1494 32.104 31.2593 31.8033C31.6352 30.7797 31.9041 29.7301 32.0342 28.6487C32.2857 26.5726 32.0486 24.5659 31.1147 22.6749C30.227 20.8793 28.8651 19.5319 27.1187 18.569C26.4565 18.2047 25.6758 18.6818 25.7134 19.422C25.7279 19.7487 25.9014 19.9858 26.1703 20.1651C26.656 20.486 27.1591 20.7839 27.6102 21.1511C28.9432 22.2325 29.7412 23.6464 30.0767 25.3264C30.2704 26.2921 30.3051 27.2694 30.2154 28.2439C30.1142 29.334 29.9032 30.4009 29.4174 31.3985C29.0444 32.1618 28.5615 32.8384 27.9023 33.3762C27.8878 33.3878 27.8676 33.3965 27.8473 33.408C28.3562 33.6133 28.8507 33.8013 29.3364 34.0124C31.0048 34.7323 32.5518 35.6489 33.8674 36.9241C34.9546 37.9766 35.7729 39.1997 36.2153 40.6598C36.4697 41.5013 36.5854 42.36 36.5565 43.2362C36.5333 43.9243 36.0505 44.5604 35.3305 44.8178C35.1078 44.8988 34.8649 44.9219 34.6307 44.9681C34.5787 44.9797 34.5266 44.9884 34.4746 44.9971C34.3011 45 34.145 45 33.9917 45ZM42.7616 15.6081C43.5134 15.6139 44.135 15.0009 44.1408 14.2491C44.1466 13.4887 43.5336 12.8728 42.7703 12.8699C42.0185 12.867 41.3997 13.4684 41.3939 14.2115C41.3852 14.9865 41.9896 15.6023 42.7616 15.6081Z" fill="white"/>
</svg>
