<svg width="50" height="50" viewBox="0 0 50 50" fill="none" xmlns="http://www.w3.org/2000/svg">
<path d="M8.33334 27.7709V12.5C8.31251 11.7292 7.70834 11.125 6.93751 11.1042H4.16668C3.79168 11.1042 3.43751 11.25 3.18751 11.5209C2.91668 11.7709 2.77084 12.125 2.77084 12.5V38.875H8.33334V33.3334H41.6667V38.8959H47.2292V29.1667C47.2083 28.3959 46.6042 27.7917 45.8333 27.7709H8.33334ZM20.8333 20.8334C20.8333 23.8959 18.3333 26.3959 15.2708 26.3959C12.2083 26.375 9.72918 23.8959 9.72918 20.8334C9.75001 17.7709 12.2292 15.2917 15.2917 15.2917C18.3542 15.3125 20.8125 17.7709 20.8333 20.8334ZM47.2083 26.3959H22.2083V18.0625C22.2292 17.2917 22.8333 16.6875 23.6042 16.6667H38.875C43.4792 16.6667 47.2083 20.3959 47.2083 25V26.3959Z" fill="white"/>
</svg>
