<svg width="58" height="28" viewBox="0 0 58 28" fill="none" xmlns="http://www.w3.org/2000/svg">
<path d="M55.9473 2.88173C54.8138 2.88173 53.8956 3.80104 53.8956 4.93348C53.8956 5.3949 54.053 5.81538 54.3088 6.15824L51.3467 11.2402C51.0075 11.2348 50.6341 11.2544 50.2112 11.3138V6.8259C50.9482 6.51357 51.4643 5.78429 51.4643 4.93366C51.4643 3.80123 50.5465 2.88191 49.4129 2.88191C48.2794 2.88191 47.3606 3.80123 47.3606 4.93366C47.3606 5.78429 47.8781 6.51357 48.6144 6.8259V11.6825C46.6323 12.2889 43.8673 13.6336 39.8131 16.3889C40.3188 15.5466 41.8479 12.4942 37.1517 11.8454C36.1152 5.19499 30.3781 0.101074 23.4363 0.101074C15.7607 0.101074 9.53787 6.32501 9.53787 13.9997C9.53787 14.4687 9.56263 14.9296 9.60711 15.3866C9.60711 15.3866 3.29048 18.047 8.37472 20.8619C6.16885 21.9649 1.94008 25.0288 1.94008 25.0288C1.94008 25.0288 -3.01964 27.915 2.92026 27.899H39.9354C39.9354 27.899 43.7915 27.915 47.2266 22.8833C51.0325 17.3116 56.1752 16.8187 56.1752 14.4887C56.1752 12.7582 54.6539 11.8424 53.0671 11.4593L55.6895 6.96085C55.7757 6.97071 55.8591 6.9856 55.9473 6.9856C57.0814 6.9856 57.9998 6.06796 57.9998 4.93385C58 3.80123 57.0814 2.88173 55.9473 2.88173Z" fill="white"/>
</svg>
