<svg width="50" height="50" viewBox="0 0 50 50" fill="none" xmlns="http://www.w3.org/2000/svg">
<path d="M14.2834 41.9975C13.1002 42.9074 11.6378 43.4705 10.0331 43.4705C6.16588 43.4705 3.01906 40.3237 3.01906 36.4565C3.01906 32.5885 6.16588 29.4416 10.0331 29.4416C12.9517 29.4416 15.4549 31.2362 16.5103 33.7775L18.7068 31.4995C16.9771 28.4806 13.7616 26.4226 10.0331 26.4226C4.49109 26.4226 0 30.9147 0 36.4565C0 41.9975 4.49109 46.4896 10.0331 46.4896C12.6404 46.4896 14.993 45.4705 16.7776 43.8391C16.0927 43.6092 15.443 43.2446 14.8879 42.71C14.6589 42.4887 14.4612 42.2469 14.2834 41.9975Z" fill="white"/>
<path d="M29.5182 26.4991L24.2054 23.4133C26.5747 21.9304 25.6962 22.4796 28.0656 20.9966L27.991 21.7514C27.8631 23.036 28.8098 24.2115 30.0016 24.453C30.0301 24.4589 39.328 26.0392 39.6671 26.0392C40.875 26.0392 41.9414 25.1665 42.1455 23.9351C42.3736 22.5642 41.4469 21.2687 40.076 21.0419L33.2309 19.9047L33.5564 16.6382C33.8845 14.5508 34.027 13.8963 33.2476 12.651L32.2678 11.0846C31.002 9.06293 28.3329 8.44476 26.3064 9.71352L15.5826 16.4277C12.9487 18.0768 11.6643 21.554 13.8146 24.1118C14.6546 25.1114 22.8223 30.1305 22.8223 30.1305L16.2074 36.9921C15.0497 38.192 15.0841 40.1036 16.285 41.2603C16.8708 41.8252 17.6256 42.1063 18.3803 42.1063C19.1715 42.1063 19.9616 41.7978 20.5532 41.1824L30.1745 31.2047C31.5319 29.8002 31.2135 27.4838 29.5182 26.4991Z" fill="white"/>
<path d="M40.7885 12.7935C43.1403 11.3204 43.8528 8.22068 42.3805 5.86993C40.9085 3.51717 37.8087 2.80466 35.4571 4.27689C33.1062 5.74912 32.3937 8.84771 33.8651 11.1985C35.337 13.5513 38.4368 14.2648 40.7885 12.7935Z" fill="white"/>
<path d="M39.9668 26.4226C34.3672 26.4226 29.9338 31.0426 29.9338 36.4565C29.9338 41.9975 34.4251 46.4896 39.9668 46.4896C45.5076 46.4896 50 41.9975 50 36.4565C50 30.9147 45.5076 26.4226 39.9668 26.4226ZM39.9668 43.4705C36.0997 43.4705 32.9528 40.3237 32.9528 36.4565C32.9528 32.5885 36.0998 29.4416 39.9668 29.4416C43.8341 29.4416 46.9809 32.5885 46.9809 36.4565C46.981 40.3237 43.8341 43.4705 39.9668 43.4705Z" fill="white"/>
</svg>
