<svg width="45" height="45" viewBox="0 0 45 45" fill="none" xmlns="http://www.w3.org/2000/svg">
<g clip-path="url(#clip0)">
<path d="M35.3276 22.7534L29.8526 19.5937C29.5014 19.3912 29.077 18.8521 28.9627 18.4631L27.2669 12.6931C27.2247 12.5487 27.1608 12.4199 27.0823 12.3065C26.8358 11.8531 26.3606 11.545 25.8098 11.545L18.5706 11.8575C18.2533 11.871 17.9583 11.9912 17.7166 12.1903C17.6682 12.2198 17.6178 12.2484 17.5742 12.2818L12.6552 16.0756C12.087 16.5139 11.7688 17.4052 11.9315 18.1042L13.8793 26.4842C14.0415 27.1836 14.711 27.7116 15.4351 27.7116C15.484 27.7116 15.5335 27.7092 15.5824 27.7044L16.3094 27.6317C16.6989 27.5925 17.0506 27.3948 17.2734 27.0887C17.4967 26.7826 17.5776 26.3873 17.4957 26.0046L16.1108 19.5356C16.0382 19.196 16.2223 18.6937 16.4974 18.482L17.3737 17.8073L17.8241 28.1946C17.8246 28.2057 17.828 28.2159 17.829 28.227L15.8294 32.6621C15.5775 33.2206 14.9449 33.9942 14.4479 34.3521L9.75998 37.7274C9.00482 38.2709 8.71951 39.3579 9.10993 40.2026L9.75127 41.5885C10.007 42.1412 10.52 42.4846 11.0906 42.4846C11.4171 42.4846 11.7382 42.3737 12.0192 42.1649L18.2087 37.5559C18.8254 37.0967 19.5859 36.203 19.94 35.5205L23.0299 29.5693C23.0546 29.5213 23.0701 29.47 23.0904 29.4201L23.306 29.4109L28.3635 43.3546C28.7205 44.3389 29.6728 45.0005 30.7332 45.0005C30.9851 45.0005 31.234 44.9623 31.4733 44.8862L31.7853 44.7869C32.4034 44.5907 32.8999 44.1659 33.1837 43.5905C33.4671 43.015 33.5015 42.3621 33.2806 41.7527L27.9547 27.0703C27.93 27.0025 27.8961 26.9405 27.8666 26.876L27.6956 22.936L33.5674 25.9862C33.7737 26.0938 34.0062 26.1504 34.2402 26.1504C34.7837 26.1504 35.2811 25.8564 35.5383 25.3831L35.8876 24.7399C36.2674 24.0419 36.016 23.1506 35.3276 22.7534Z" fill="white"/>
<path d="M21.3917 10.4983C21.4677 10.4983 21.5447 10.4968 21.6217 10.4934C23.0221 10.4329 24.3154 9.8298 25.2629 8.79659C26.2104 7.76338 26.6986 6.42259 26.6381 5.02221C26.5131 2.12991 24.096 -0.120579 21.1669 0.00487874C19.7665 0.0654277 18.4732 0.668496 17.5257 1.7017C16.5783 2.7354 16.09 4.07571 16.1505 5.47608C16.2726 8.29234 18.5749 10.4983 21.3917 10.4983Z" fill="white"/>
</g>
<defs>
<clipPath id="clip0">
<rect width="45" height="45" fill="white"/>
</clipPath>
</defs>
</svg>
