<svg width="470" height="466" viewBox="0 0 470 466" fill="none" xmlns="http://www.w3.org/2000/svg">
<path d="M127.58 241.124C129.298 266.133 136.906 329.086 161.2 365.674C185.495 402.263 219.115 417.293 234.085 418.279C249.055 419.264 293.816 393.444 312.5 365.674C318 357.5 344.271 326.498 344.394 200.47C344.762 -8.83862 140.587 65.3248 127.58 151.685C119.973 202.071 126.721 228.312 127.58 241.124Z" fill="white"/>
<path d="M417.811 223.612C416.093 216.96 415.234 210.184 411.062 204.64C410.571 204.024 410.817 203.285 410.694 202.546C410.571 196.509 408.363 193.922 402.718 193.553C401.491 193.43 401 193.183 400.878 191.828C400.387 189.118 398.915 187.393 396.829 185.791C393.393 183.204 389.712 184.067 386.154 184.067C383.945 184.067 383.209 183.574 383.454 181.11C384.313 170.146 381.982 159.551 379.773 148.956C377.81 139.347 374.742 130.23 370.816 121.237C370.202 119.759 370.325 118.896 371.184 117.665C374.865 112.614 374.865 107.316 371.92 101.772C361 81.4452 346.644 64.3211 328.975 50.4C321.367 44.3635 313.392 39.0661 304.803 35.0007C304.557 34.6311 304.312 34.3847 303.821 34.5079C303.207 34.1383 302.471 33.6455 301.858 33.2759C275.477 20.3405 247.746 15.5358 218.911 19.2317C202.224 21.326 186.273 26.1306 171.058 33.8919C142.469 48.5521 118.419 72.0824 102.468 101.526C99.2776 107.439 99.4003 112.49 103.327 117.911C104.063 119.02 104.186 119.759 103.695 120.991C95.2285 140.332 91.1793 160.906 90.3204 182.219C90.3204 183.574 89.9523 184.067 88.6026 184.067C83.5718 183.82 79.4 184.19 75.8416 188.502C72.2833 192.814 66.2709 194.415 63.4488 199.466C61.2402 203.408 60.8721 208.583 59.7677 213.018C55.4732 230.511 52.0375 248.005 54.9824 266.115C55.964 271.905 57.3137 277.695 58.7861 283.362C60.0131 288.043 60.2585 293.587 62.3445 297.899C64.5531 302.457 69.093 304.921 71.9152 308.986C74.4919 312.806 76.8232 316.009 81.4859 316.132C88.9707 316.255 96.4555 316.255 103.94 316.378C107.621 316.378 110.321 314.653 112.161 311.204C112.529 310.588 112.529 309.602 113.634 309.356C119.033 307.878 120.137 303.566 119.769 298.392C120.137 296.051 120.382 293.833 119.769 291.493C119.891 288.536 120.382 285.579 119.769 282.623C120.628 275.231 120.137 267.839 120.26 260.448C120.505 240.983 120.137 221.395 121.241 201.93C121.487 196.386 117.806 193.799 114.493 190.473C111.18 187.023 109.339 184.436 104.431 184.19C103.204 184.19 102.1 184.067 100.873 184.19C99.523 184.313 99.1549 183.697 99.2776 182.342C100.259 172.363 100.75 162.631 102.959 152.898C105.045 143.166 108.112 133.803 112.039 124.687C112.407 123.701 112.652 122.592 114.124 122.469C118.664 121.976 121.732 119.143 124.063 114.954C133.879 96.7214 146.763 81.322 163.082 69.6185C201.611 42.146 242.838 37.095 286.029 55.0815C314.005 66.785 335.232 87.2354 350.447 114.954C352.656 119.02 355.724 121.73 360.141 122.346C361.368 122.469 361.859 122.962 362.349 124.071C366.031 132.571 369.098 141.318 371.061 150.434C373.025 159.304 374.497 168.175 374.742 177.291C374.988 183.697 375.233 183.697 369.343 184.067C365.54 184.313 362.472 185.915 360.877 189.734C360.509 190.719 359.895 191.089 358.914 191.458C355.233 192.814 353.392 195.77 353.515 199.836C353.638 222.134 353.883 244.432 354.129 266.731C354.129 273.137 354.251 279.543 354.251 285.826C354.251 290.63 353.392 295.312 354.006 300.116C354.251 302.334 354.987 304.921 356.46 306.523C358.055 308.371 360.754 308.247 361.981 310.711C363.699 313.914 366.276 316.009 369.834 316.009C377.687 316.009 385.54 316.009 393.393 315.885C397.074 315.762 399.896 313.668 401.491 310.095C403.086 306.276 403.823 306.769 407.381 305.537C409.467 304.675 411.185 302.334 411.675 299.993C412.412 296.174 412.166 293.218 413.884 289.522C417.688 281.391 418.915 272.151 420.142 263.158C421.86 249.853 421.123 236.671 417.811 223.612Z" fill="#FFD600"/>
<path d="M349.711 293.095L349.956 293.341C350.079 293.218 350.324 292.971 350.324 292.971C349.956 292.602 349.833 292.848 349.711 293.095Z" fill="#FFD600"/>
<path d="M396.43 241L394 247.265H399.807V252.422H405.177V246.928H411.143V241H396.43Z" fill="black"/>
<path d="M399.808 255.072H405.153V261H399.808V255.072Z" fill="black"/>
<path d="M65.4299 237L63 243.265H68.8074V248.422H74.1775V242.928H80.1429V237H65.4299Z" fill="black"/>
<path d="M68.8081 251.072H74.1539V257H68.8081V251.072Z" fill="black"/>
<path d="M258.981 252.391C262.539 248.202 266.22 249.064 269.533 249.187C281.312 249.927 293.214 251.282 304.503 246.108C306.466 245.245 307.08 246.6 308.061 247.586C310.515 250.173 313.215 252.267 317.018 253.869C308.429 261.63 298.613 262.246 288.184 261.63C277.877 261.014 270.147 252.76 258.981 252.391Z" fill="#030202"/>
<path d="M155.773 253.869C155.773 253.746 155.896 253.499 156.018 253.376C162.276 247.956 168.288 245.368 177.368 248.695C184.976 251.528 193.933 250.05 202.277 249.188C205.712 248.818 209.516 248.202 213.075 252.267C205.344 252.514 199.823 256.456 193.688 259.043C180.436 264.464 163.503 262 155.773 253.869Z" fill="#030202"/>
<path d="M324.209 224.572C319.246 223.129 314.12 221.747 309.847 220.544C293.06 216.685 279.492 220.063 264.743 227.037C262.813 227.999 258.43 230.885 256.362 227.518C254.57 224.753 256.362 222.228 259.395 220.424C277.177 209.843 304.884 210.564 321.977 222.107C322.391 222.468 323.076 223.093 324.209 224.572Z" fill="#030202"/>
<path d="M150.791 222.795C170.267 208.215 191.685 210.241 214.135 217.65C216.517 218.614 218.605 219.903 219.586 222.072C220.427 223.759 220.847 225.687 219.446 227.253C217.765 228.94 214.809 227.679 213.56 227.036C211.257 225.85 208.613 225.036 206.652 224.072C191.111 218.288 174.991 218.096 159.899 220.987C157.517 221.71 155.135 222.433 152.613 223.036C151.912 223.156 151.212 222.915 150.791 222.795Z" fill="#030202"/>
<path d="M223.819 282.253C222.715 286.196 221.365 289.399 219.279 292.355C217.561 294.943 216.457 297.776 216.948 300.979C217.561 305.168 221.242 307.755 225.291 306.646C226.273 306.4 227.254 306.153 227.991 306.892C230.69 309.972 233.758 312.067 238.052 312.19C232.899 314.284 227.991 315.023 223.328 310.958C221.856 309.726 219.77 309.11 218.052 308.248C213.267 306.03 211.426 301.595 213.144 296.544C214.003 294.08 221.242 284.225 223.819 282.253Z" fill="#8D8D8D"/>
<path d="M248.482 308.371C247.623 308.001 246.151 308.617 246.151 307.262C246.151 305.907 247.623 305.784 248.727 305.66C249.832 305.66 251.549 306.153 251.427 307.016C251.181 308.617 249.463 307.878 248.482 308.371Z" fill="#8D8D8D"/>
<path d="M199.401 351.612C205.536 352.105 207.622 349.025 210.567 346.684C213.144 344.59 215.475 342.373 218.543 340.648C222.714 338.307 227.377 338.307 232.162 339.416C233.88 339.785 235.23 339.909 236.948 339.416C242.837 337.814 248.236 338.553 252.654 341.757C255.476 343.851 258.052 345.945 260.506 348.163C262.715 350.134 265.169 351.735 269.464 351.612C266.642 354.446 262.838 354.569 258.911 354.446C254.003 354.199 249.095 353.706 244.555 352.351C237.929 350.38 231.549 350.38 224.923 352.351C219.033 354.199 212.653 354.569 206.15 353.953C203.818 353.83 201.487 353.337 199.401 351.612Z" fill="#595959"/>
<path d="M235.598 369.352C222.837 369.352 202.837 358.634 199.401 351.489C198.788 350.134 206.15 353.091 211.671 353.583C215.721 353.707 218.543 354.815 222.224 354.076C224.432 353.583 227.623 353.337 229.954 353.83C232.776 354.323 235.844 354.446 238.666 353.83C241.611 353.214 244.433 353.46 247.255 354.076C253.144 355.185 254.862 354.322 258.789 354.322C265.169 353.583 269.868 351.384 269.5 352C266.801 358.16 247.991 368.49 238.666 369.106C237.439 369.352 236.089 369.352 235.598 369.352Z" fill="#808080"/>
<path d="M372.287 158.566C357.441 116.186 325.293 83.2934 282.47 64.0749C263.697 55.5745 240.752 59.5167 236.825 60.3791C232.899 59.6399 210.076 55.5745 191.18 64.0749C148.48 83.4165 116.823 116.31 101.854 158.566C76.3316 231.251 89.7061 315.516 91.792 313.668C94.6142 319.582 96.332 325.988 100.136 331.039C102.835 331.285 101.485 327.836 103.326 327.343C106.516 332.64 109.216 337.568 112.283 342.249C115.596 347.054 119.154 351.735 122.958 356.294C126.394 360.359 130.198 364.178 134.738 368.983C134.001 363.809 130.566 360.482 132.161 355.678C141.732 372.063 154.247 384.875 171.548 393.129C172.161 390.788 170.566 389.68 169.83 388.201C154.124 357.649 141.363 325.988 134.86 292.232C132.038 277.079 132.161 261.803 133.142 246.404C133.879 234.454 133.756 221.272 140.995 203.532C140.995 203.532 148.235 178.893 168.603 153.638C169.585 153.145 170.566 152.899 171.303 153.022C175.72 153.638 179.892 155.486 184.063 157.087C194.125 161.029 204.555 162.138 215.966 161.276C210.199 156.471 204.923 152.406 201.242 146.862C200.26 145.384 198.42 143.659 200.015 142.057C201.364 140.825 202.96 142.673 204.309 143.536C223.205 157.21 244.31 165.957 266.396 172.733C273.145 174.704 279.893 176.675 287.378 177.661C285.415 174.704 283.697 172.487 282.47 170.023C281.243 167.682 282.102 166.204 284.924 166.327C290.568 166.45 295.108 169.037 299.035 172.733C306.151 179.262 310.691 187.516 314.004 196.51C315.599 195.031 314.741 193.06 314.863 191.335C314.986 189.611 314.986 187.886 314.986 186.161C326.029 198.358 333.637 206.981 333.637 206.981C339.894 220.04 338.79 232.236 339.894 246.28C341.121 261.557 340.999 276.956 338.176 292.109C330.281 334.5 321.5 354.405 303.207 388.078C302.47 389.433 275.509 445.659 276 448C293.301 439.623 318.429 404.463 328 388.078C326.5 393.129 324 400 319.5 408.5C330 401 346 375 346 375C346 375 355.534 359.823 360.5 349.5C360.5 349.5 366.5 336.5 369.711 327.22C372.922 317.939 370.079 331.039 372.901 330.915C376 327.22 380 320 381.245 313.545C383.475 301.978 397.809 231.251 372.287 158.566Z" fill="black"/>
<rect x="79" y="311" width="13" height="18" rx="6.5" fill="#FFD600"/>
<path fill-rule="evenodd" clip-rule="evenodd" d="M82.5 327C82.5 359.426 87.8565 379.356 103.872 405.313C117.596 427.554 139.424 446.656 158.02 462.929L158.021 462.93C159.204 463.965 160.373 464.988 161.527 466H169.089C167.876 464.925 166.645 463.84 165.4 462.747C164.092 461.598 162.767 460.438 161.429 459.267C142.711 442.88 121.435 424.255 108.128 402.687C92.6371 377.582 87.5 358.574 87.5 327H82.5Z" fill="#FFD600"/>
</svg>
