<svg width="65" height="65" viewBox="0 0 65 65" fill="none" xmlns="http://www.w3.org/2000/svg">
<g clip-path="url(#clip0)">
<path d="M0.95429 24.6894C5.26678 7.27488 22.8953 -3.3582 40.3098 0.954289C57.7408 5.26677 68.3575 22.8788 64.045 40.3098C59.7325 57.7244 42.1204 68.3574 24.6894 64.045C7.27488 59.7325 -3.3582 42.1204 0.95429 24.6894Z" fill="#E52A18"/>
<path d="M34.5657 31.4548L33.0514 33.2983L30.8457 32.4094L32.1131 34.4175L30.5988 36.2446L32.9032 35.652L34.1706 37.6601L34.3188 35.2899L36.6231 34.6973L34.4175 33.8085L34.5657 31.4548ZM43.3717 26.4674H40.985L40.2608 24.196L39.5201 26.4674H37.1499L39.0757 27.8665L38.335 30.138L40.2608 28.7389L42.1866 30.138L41.4459 27.8665L43.3717 26.4674ZM39.4872 17.7437L39.8493 20.0974L40.9356 17.9741L43.2894 18.3527L41.6105 16.6738L42.6968 14.5505L40.5735 15.6204L38.8946 13.9415L39.2567 16.2952L37.1334 17.3651L39.4872 17.7437ZM34.5821 6.84726L33.0678 8.6743L30.8622 7.80193L32.1296 9.81003L30.6153 11.6371L32.9197 11.0445L34.1871 13.0526L34.3352 10.6824L36.6396 10.0899L34.434 9.21748L34.5821 6.84726ZM17.9577 17.3157L15.7356 10.4355L13.497 17.3157H6.2547L12.1144 21.5624L9.87587 28.4426L15.7356 24.196L21.5788 28.4426L19.3403 21.5624L25.2 17.3157H17.9577Z" fill="#FFD300"/>
</g>
<defs>
<clipPath id="clip0">
<rect width="65" height="65" fill="white"/>
</clipPath>
</defs>
</svg>
