<svg width="65" height="65" viewBox="0 0 65 65" fill="none" xmlns="http://www.w3.org/2000/svg">
<path d="M0.963358 24.6844C5.27408 7.27697 22.8789 -3.35176 40.3028 0.958963C57.7102 5.26969 68.339 22.8745 64.0282 40.2984C59.7175 57.7058 42.1127 68.3346 24.6888 64.0238C7.28136 59.7131 -3.34736 42.1083 0.963358 24.6844Z" fill="#24356B"/>
<path d="M55.5374 9.59759L42.4736 18.3013V1.58491C41.7661 1.35456 41.0422 1.14067 40.3018 0.959687C34.1648 -0.554002 28.0113 -0.224939 22.4337 1.60136V18.3013L9.41926 9.63049C6.44124 12.625 4.02263 16.2447 2.37732 20.3415L5.81602 22.6449H1.53821C1.32432 23.3195 1.12688 24.0105 0.962346 24.7016C-0.567796 30.8715 -0.22228 37.0743 1.63692 42.6848H5.89829L2.49249 44.9554C4.1378 48.9206 6.57287 52.5567 9.6496 55.5841L22.4337 47.0614V63.3664C23.1741 63.6132 23.9309 63.8271 24.6878 64.0081C30.7919 65.5218 36.9125 65.1927 42.4736 63.3993V47.0614L55.3071 55.617C58.318 52.6555 60.786 49.0687 62.4806 44.9883L59.009 42.6684H63.3526C63.6159 41.8951 63.8462 41.0889 64.0437 40.2827C65.5409 34.2279 65.2283 28.1567 63.4678 22.612H59.1077L62.6287 20.2757C60.9834 16.3105 58.5812 12.6579 55.5374 9.59759Z" fill="white"/>
<path d="M17.433 22.628L5.37283 14.6153C4.56662 15.8328 3.84269 17.1162 3.20101 18.4489L9.50257 22.6444H17.433V22.628ZM59.5695 14.5495C58.7633 13.3319 57.8583 12.1638 56.8876 11.045L42.4747 20.6371V22.628H47.4106L59.5695 14.5495ZM5.45509 50.4996C6.2613 51.7171 7.16622 52.8853 8.13696 53.9876L22.4183 44.4942V42.6843H17.2191L5.45509 50.4996ZM64.489 26.8071H38.2956V0.531402C34.3304 -0.192536 30.3816 -0.15963 26.5974 0.547855V26.8071H0.519153C-0.188332 30.7723 -0.138973 34.721 0.568512 38.5052H26.5974V64.4354C30.5626 65.1758 34.5113 65.1429 38.2956 64.4683V38.5052H64.4067C65.1635 34.54 65.1635 30.5913 64.489 26.8071ZM47.6903 42.6843L59.5037 50.5489C60.3099 49.3314 61.0502 48.0645 61.6919 46.7318L55.6207 42.6843H47.6903Z" fill="#E52A18"/>
</svg>
