<svg width="65" height="65" viewBox="0 0 65 65" fill="none" xmlns="http://www.w3.org/2000/svg">
<g clip-path="url(#clip0)">
<mask id="mask0" mask-type="alpha" maskUnits="userSpaceOnUse" x="-1" y="-1" width="67" height="67">
<path d="M0.95429 24.6894C5.26678 7.27491 22.8953 -3.35816 40.3098 0.95432C57.7408 5.2668 68.3575 22.8789 64.045 40.3098C59.7325 57.7244 42.1204 68.3575 24.6894 64.045C7.27488 59.7325 -3.3582 42.1204 0.95429 24.6894Z" fill="#E73138"/>
</mask>
<g mask="url(#mask0)">
<path d="M111.085 0H-13.9877V66H111.085V0Z" fill="white"/>
<path d="M110.973 24.0303L33.2497 24.024V0.00628571L15.6246 0V24.0177H-14V41.9634L15.6183 41.9571L15.6246 66H33.256L33.2497 41.9634L110.973 41.9697V24.0303Z" fill="#003580"/>
</g>
</g>
<defs>
<clipPath id="clip0">
<rect width="65" height="65" fill="white"/>
</clipPath>
</defs>
</svg>
