<svg width="65" height="65" viewBox="0 0 65 65" fill="none" xmlns="http://www.w3.org/2000/svg">
<g clip-path="url(#clip0)">
<path d="M0.95429 24.6894C5.26678 7.27491 22.8953 -3.35816 40.3098 0.95432C57.7408 5.2668 68.3575 22.8789 64.045 40.3098C59.7325 57.7244 42.1204 68.3574 24.6894 64.045C7.27488 59.7325 -3.3582 42.1204 0.95429 24.6894Z" fill="#FFD300"/>
<path d="M1.89288 21.5789H63.1071C59.5682 11.6865 51.2889 3.67055 40.3102 0.954677C23.9491 -3.09445 7.4234 6.02432 1.89288 21.5789Z" fill="#221C10"/>
<path d="M64.3087 39.191C64.3251 39.1251 64.3416 39.0593 64.358 38.977C64.3745 38.8618 64.4074 38.7301 64.4239 38.6149C64.4403 38.549 64.4568 38.4667 64.4568 38.4009C64.4733 38.2692 64.5062 38.154 64.5226 38.0223C64.5391 37.9565 64.5391 37.8906 64.5556 37.8412C64.5885 37.6931 64.6049 37.5285 64.6379 37.3804C64.6379 37.3475 64.6543 37.3145 64.6543 37.2816C64.6872 37.1006 64.7037 36.903 64.7366 36.722C64.7366 36.6726 64.7531 36.6232 64.7531 36.5738C64.7695 36.4422 64.786 36.294 64.8025 36.1623C64.8025 36.0965 64.8189 36.0307 64.8189 35.9648C64.8354 35.8496 64.8518 35.7179 64.8518 35.6027C64.8518 35.5369 64.8683 35.471 64.8683 35.4052C64.8848 35.2735 64.8848 35.1583 64.9012 35.0266C64.9012 34.9608 64.9177 34.8949 64.9177 34.8291C64.9341 34.681 64.9341 34.5493 64.9506 34.4011C64.9506 34.3518 64.9506 34.3188 64.9506 34.2695C64.967 34.0884 64.967 33.8909 64.9835 33.7098C64.9835 33.6769 64.9835 33.644 64.9835 33.6111C64.9835 33.4629 65 33.2983 65 33.1502C65 33.0843 65 33.035 65 32.9691C65 32.8374 65 32.7058 65 32.5905C65 32.5247 65 32.4589 65 32.393C65 32.2614 65 32.1461 65 32.0145C65 31.9486 65 31.8828 65 31.8334C65 31.7017 65 31.5536 64.9835 31.4219C64.9835 31.3725 64.9835 31.3231 64.9835 31.2738C64.967 30.8952 64.9506 30.5331 64.9177 30.1545C64.9177 30.1051 64.9177 30.0557 64.9012 30.0063C64.8848 29.8747 64.8848 29.743 64.8683 29.5949C64.8683 29.529 64.8518 29.4796 64.8518 29.4138C64.8354 29.2821 64.8189 29.1669 64.8189 29.0352C64.8189 28.9694 64.8025 28.92 64.8025 28.8542C64.786 28.7225 64.7695 28.5908 64.7531 28.4427C64.7531 28.3933 64.7366 28.3439 64.7366 28.2945C64.6872 27.9324 64.6379 27.5538 64.572 27.1917C64.572 27.1588 64.5556 27.1259 64.5556 27.093C64.5391 26.9448 64.5062 26.7967 64.4733 26.6485C64.4568 26.5992 64.4568 26.5498 64.4403 26.5004C64.4239 26.3687 64.391 26.237 64.358 26.1054C64.3416 26.056 64.3416 26.0066 64.3251 25.9572C64.2922 25.8255 64.2757 25.6939 64.2428 25.5457C64.2264 25.4963 64.2264 25.4634 64.2099 25.414C64.177 25.2494 64.1276 25.0848 64.0947 24.9203L64.0782 24.8873C64.0288 24.7227 63.9959 24.5417 63.9465 24.3771C63.6996 23.4224 63.4198 22.4842 63.0906 21.5624H1.89287C1.53075 22.5665 1.21802 23.6035 0.954659 24.6734C-0.131691 29.0352 -0.26337 33.4135 0.395024 37.5779C0.395024 37.5943 0.395024 37.6108 0.411484 37.6273C0.427944 37.7754 0.460864 37.9235 0.493783 38.0881C0.493783 38.1211 0.510243 38.154 0.510243 38.1869C0.543163 38.335 0.559623 38.4667 0.592542 38.6149C0.592542 38.6642 0.609002 38.6972 0.609002 38.7465C0.641922 38.8782 0.658382 39.0099 0.691302 39.1416C0.707762 39.191 0.707762 39.2403 0.724221 39.2897C0.757141 39.4214 0.773601 39.5366 0.806521 39.6683C0.822981 39.7341 0.83944 39.7835 0.8559 39.8493C0.88882 39.9646 0.90528 40.0798 0.9382 40.2115C0.954659 40.2938 0.987579 40.3925 1.00404 40.4748C1.03696 40.6065 1.06988 40.7382 1.1028 40.8699C1.13572 41.0015 1.16864 41.1332 1.21802 41.2649C1.23448 41.3307 1.25094 41.3801 1.2674 41.4295C1.30032 41.5612 1.33324 41.6764 1.38262 41.8081C1.39908 41.8739 1.41554 41.9233 1.432 41.9891C1.46491 42.1044 1.51429 42.236 1.54721 42.3512C1.56367 42.4006 1.58013 42.4665 1.59659 42.5158C1.62951 42.6475 1.67889 42.7627 1.71181 42.878C1.72827 42.9273 1.74473 42.9932 1.76119 43.0426C1.81057 43.1742 1.84349 43.2895 1.89287 43.4211C1.90933 43.4541 1.90933 43.487 1.92579 43.5034C1.95871 43.5857 1.97517 43.6516 2.00809 43.7339H62.9754C63.0083 43.6516 63.0248 43.5857 63.0577 43.5034C63.1235 43.3059 63.1894 43.1249 63.2552 42.9273C63.2552 42.9109 63.2717 42.8944 63.2717 42.878C63.354 42.6311 63.4363 42.3677 63.5186 42.1208C63.535 42.0879 63.535 42.055 63.5515 42.0221C63.6173 41.7916 63.6996 41.5447 63.7655 41.2978C63.7819 41.2484 63.7984 41.1991 63.8149 41.1497C63.8972 40.8699 63.963 40.5736 64.0453 40.2938C64.0947 40.1127 64.1276 39.9152 64.177 39.7341C64.1934 39.6683 64.2099 39.6189 64.2099 39.5531C64.2428 39.4379 64.2757 39.3062 64.3087 39.191Z" fill="#E6392E"/>
</g>
<defs>
<clipPath id="clip0">
<rect width="65" height="65" fill="white"/>
</clipPath>
</defs>
</svg>
