<svg width="65" height="65" viewBox="0 0 65 65" fill="none" xmlns="http://www.w3.org/2000/svg">
<g clip-path="url(#clip0)">
<path d="M0.954305 24.6894C5.26679 7.27491 22.8953 -3.35816 40.3099 0.95432C57.7409 5.2668 68.3575 22.8789 64.045 40.3098C59.7325 57.7244 42.1204 68.3574 24.6894 64.045C7.2749 59.7325 -3.35818 42.1204 0.954305 24.6894Z" fill="white"/>
<path d="M21.6118 1.87643C11.703 5.4153 3.68703 13.6946 0.954698 24.6898C-3.09443 41.0674 6.0408 57.6095 21.6118 63.1236V1.87643Z" fill="#009B3E"/>
<path d="M43.4377 1.89288V63.0907C53.33 59.5353 61.3295 51.2725 64.0454 40.2937C68.0945 23.9491 58.9758 7.43986 43.4377 1.89288Z" fill="#E52A18"/>
</g>
<defs>
<clipPath id="clip0">
<rect width="65" height="65" fill="white"/>
</clipPath>
</defs>
</svg>
