<svg width="67" height="67" viewBox="0 0 67 67" fill="none" xmlns="http://www.w3.org/2000/svg">
<mask id="mask0" mask-type="alpha" maskUnits="userSpaceOnUse" x="0" y="0" width="67" height="67">
<path d="M1.95429 25.6894C6.26678 8.27488 23.8953 -2.3582 41.3098 1.95429C58.7408 6.26677 69.3575 23.8788 65.045 41.3098C60.7325 58.7244 43.1204 69.3574 25.6894 65.045C8.27488 60.7325 -2.3582 43.1204 1.95429 25.6894Z" fill="#E52A18"/>
</mask>
<g mask="url(#mask0)">
<path d="M115 1H-8V66H115V1Z" fill="#E30A17"/>
<path d="M29.8747 25.3905L29.8561 1H14.6358L14.6543 25.341L-7.99382 25.3905L-8 41.6838L14.6605 41.69L14.6791 66H29.8685L29.8747 41.6838L115 41.6776V25.3843L29.8747 25.3905Z" fill="white"/>
<path d="M25.852 29.7676V1H18.6068V29.7676H-8V37.5361H18.6068V66H25.852V37.5361H115V29.7676H25.852Z" fill="#002868"/>
</g>
</svg>
