<svg width="65" height="65" viewBox="0 0 65 65" fill="none" xmlns="http://www.w3.org/2000/svg">
<g clip-path="url(#clip0)">
<mask id="mask0" mask-type="alpha" maskUnits="userSpaceOnUse" x="-1" y="-1" width="67" height="67">
<path d="M0.954305 24.6894C5.26679 7.27488 22.8953 -3.3582 40.3099 0.954289C57.7409 5.26677 68.3575 22.8788 64.045 40.3098C59.7325 57.7244 42.1204 68.3574 24.6894 64.045C7.2749 59.7325 -3.35818 42.1204 0.954305 24.6894Z" fill="#E52A18"/>
</mask>
<g mask="url(#mask0)">
<path d="M0.954305 23.6894C5.26679 6.27488 22.8953 -4.3582 40.3099 -0.0457105C57.7409 4.26677 68.3575 21.8788 64.045 39.3098C59.7325 56.7244 42.1204 67.3574 24.6894 63.045C7.2749 58.7325 -3.35818 41.1204 0.954305 23.6894Z" fill="#E52A18"/>
<path d="M71.1599 4.55382C71.1799 4.6637 71.1999 4.77357 71.2199 4.91091C71.2599 5.10319 71.2799 5.32294 71.2999 5.51522C71.3199 5.62509 71.3399 5.76244 71.3399 5.87231C71.3599 6.09206 71.3999 6.28434 71.4199 6.50408C71.4399 6.61396 71.4399 6.72383 71.4599 6.80624C71.4999 7.05346 71.5199 7.32814 71.5599 7.57535C71.5599 7.63029 71.5799 7.68523 71.5799 7.74016C71.6199 8.04232 71.64 8.37194 71.68 8.67409C71.68 8.75649 71.7 8.8389 71.7 8.92131C71.72 9.14106 71.74 9.38827 71.76 9.60802C71.76 9.71789 71.78 9.82777 71.78 9.93764C71.8 10.1299 71.82 10.3497 71.82 10.5419C71.82 10.6518 71.84 10.7617 71.84 10.8716C71.86 11.0913 71.86 11.2836 71.88 11.5033C71.88 11.6132 71.9 11.7231 71.9 11.833C71.92 12.0802 71.92 12.2999 71.94 12.5471C71.94 12.6295 71.94 12.6845 71.94 12.7669C71.96 13.069 71.96 13.3987 71.98 13.7008C71.98 13.7558 71.98 13.8107 71.98 13.8656C71.98 14.1128 72 14.3875 72 14.6347C72 14.7446 72 14.827 72 14.9369C72 15.1566 72 15.3764 72 15.5687V15.8983C72 16.118 72 16.3103 72 16.5301C72 16.6399 72 16.7498 72 16.8322C72 17.052 72 17.2992 71.98 17.5189C71.98 17.6013 71.98 17.6837 71.98 17.7661C71.96 18.3979 71.94 19.0022 71.9 19.634C71.9 19.7164 71.9 19.7988 71.88 19.8812C71.86 20.101 71.86 20.3207 71.84 20.5679C71.84 20.6778 71.82 20.7602 71.82 20.8701C71.8 21.0898 71.78 21.2821 71.78 21.5019C71.78 21.6117 71.76 21.6941 71.76 21.804C71.74 22.0238 71.72 22.2435 71.7 22.4907C71.7 22.5731 71.68 22.6555 71.68 22.7379C71.6199 23.3422 71.5599 23.974 71.4799 24.5783C71.4799 24.6333 71.4599 24.6882 71.4599 24.7431C71.4399 24.9903 71.3999 25.2376 71.3599 25.4848C71.3399 25.5672 71.3399 25.6496 71.3199 25.732C71.2799 25.9517 71.2599 26.1715 71.2199 26.3912C71.1999 26.4736 71.1999 26.556 71.1799 26.6659C71.1399 26.8857 71.1199 27.1054 71.0799 27.3526C71.0599 27.435 71.0599 27.49 71.0399 27.5724C70.9998 27.8471 70.9398 28.1217 70.8998 28.3964L70.8798 28.4514C70.8198 28.7261 70.7798 29.0282 70.7198 29.3029C70.4197 30.8961 70.0797 32.4618 69.6596 34H-4.69319C-5.13326 32.3244 -5.51333 30.5939 -5.83338 28.8085C-7.15361 21.5293 -7.31364 14.2227 -6.5135 7.2732C-6.5135 7.24573 -6.5135 7.21826 -6.4935 7.1908C-6.47349 6.94358 -6.43349 6.69636 -6.39348 6.42168C-6.39348 6.36674 -6.37348 6.31181 -6.37348 6.25687C-6.33347 6.00965 -6.31347 5.7899 -6.27346 5.54269C-6.27346 5.46028 -6.25346 5.40535 -6.23345 5.32294C-6.19345 5.10319 -6.17344 4.88345 -6.13344 4.6637C-6.11343 4.58129 -6.11343 4.49889 -6.09343 4.41648C-6.05342 4.19673 -6.03342 4.00446 -5.99341 3.78471C-5.97341 3.67484 -5.9534 3.59243 -5.9334 3.48256C-5.89339 3.29028 -5.87339 3.098 -5.83338 2.87825C-5.81338 2.74091 -5.77337 2.5761 -5.75337 2.43875C-5.71336 2.21901 -5.67336 1.99926 -5.63335 1.77951C-5.59334 1.55976 -5.55334 1.34002 -5.49333 1.12027C-5.47332 1.03786 -5.45332 0.927986 -5.43331 0.845581C-5.39331 0.625835 -5.3533 0.433559 -5.29329 0.21381C-5.27329 0.103939 -5.25328 0.0215302 -5.23328 -0.0883446C-5.19327 -0.280621 -5.13326 -0.500374 -5.09326 -0.692654C-5.07325 -0.775059 -5.05325 -0.88493 -5.03325 -0.967339C-4.99324 -1.15961 -4.93323 -1.37936 -4.89322 -1.57164C-4.87322 -1.65404 -4.85322 -1.76392 -4.83321 -1.84632C-4.7732 -2.06607 -4.73319 -2.25835 -4.67318 -2.4781C-4.65318 -2.53304 -4.65318 -2.58797 -4.63318 -2.61544C-4.59317 -2.75278 -4.57317 -2.86266 -4.53316 -3H69.5596C69.5996 -2.86266 69.6196 -2.75278 69.6596 -2.61544C69.7396 -2.28582 69.8196 -1.98367 69.8997 -1.65405C69.8997 -1.62658 69.9197 -1.59911 69.9197 -1.57164C70.0197 -1.15961 70.1197 -0.720119 70.2197 -0.30809C70.2397 -0.253155 70.2397 -0.198215 70.2597 -0.14328C70.3397 0.24128 70.4398 0.653305 70.5198 1.06533C70.5398 1.14774 70.5598 1.23014 70.5798 1.31255C70.6798 1.77951 70.7598 2.27394 70.8598 2.74091C70.9198 3.04306 70.9598 3.37268 71.0199 3.67483C71.0399 3.78471 71.0599 3.86711 71.0599 3.97699C71.0799 4.1418 71.1199 4.36154 71.1599 4.55382Z" fill="white"/>
</g>
</g>
<defs>
<clipPath id="clip0">
<rect width="65" height="65" fill="white"/>
</clipPath>
</defs>
</svg>
