<svg width="67" height="66" viewBox="0 0 67 66" fill="none" xmlns="http://www.w3.org/2000/svg">
<path d="M41.2726 1.95468C37.7449 1.08231 34.2171 0.818954 30.7717 1.09877V65.8848C46.4159 67.2016 61.1534 57.0129 65.0439 41.3102C69.3629 23.8792 58.7137 6.26717 41.2726 1.95468Z" fill="#E52A18"/>
<path d="M30.9201 1.08231C17.386 2.20158 5.40146 11.7977 1.95612 25.6898C-2.36293 43.1208 8.28632 60.7329 25.7274 65.0453C27.4418 65.4733 29.2551 65.6544 30.9531 65.8025L30.9201 1.08231Z" fill="#009B3E"/>
<path d="M49.07 48.7501C42.0474 48.5196 9.80293 28.4386 9.57214 25.2289L11.3525 22.2661C14.5506 26.9078 47.5204 46.4457 50.7514 45.7544L49.07 48.7501Z" fill="#FFE143"/>
<path d="M49.07 48.6842C42.0969 48.5032 9.80293 28.3398 9.63808 25.2289H9.58863L9.63808 25.2619L11.4185 22.2991L11.369 22.2662L11.3195 22.2991C14.4846 26.8914 46.3335 45.8202 50.5701 45.8367L50.7679 45.8202V45.7708L50.7185 45.7379L49.037 48.7172L49.1359 48.7665L50.8174 45.7873L50.8833 45.6721L50.7679 45.6886L50.5866 45.705C46.4654 45.7215 14.5341 26.7597 11.4349 22.2168L11.3855 22.1509L9.57214 25.196V25.2125V25.2289C9.85239 28.5209 42.0309 48.5526 49.1194 48.7995V48.6842H49.07Z" fill="#424241"/>
<path d="M49.2348 48.8324L48.4765 49.0135C45.8554 48.7172 37.8603 44.8491 28.4309 39.2034C17.4519 32.6359 8.36875 26.6609 9.34136 25.0973L9.6216 24.6199L9.67106 24.6364C8.78087 27.2864 27.5902 38.0183 28.6946 38.7096C39.5582 45.4417 48.7403 49.3591 49.5481 48.3386L49.2348 48.8324ZM10.9898 21.8711C10.3634 23.5665 19.4136 29.1464 30.2937 35.7468C41.1737 42.3637 50.5701 46.4457 51.246 45.8532L51.5592 45.2606L50.6196 45.3758C47.6853 44.5199 40.0198 41.014 30.508 35.2695C21.0127 29.5085 12.7537 24.2249 11.4679 21.9699L11.3195 21.3115H11.2866L11.0063 21.7888L10.9898 21.8711Z" fill="#FFE143"/>
<path d="M49.2349 48.8324L49.2184 48.7665L48.4601 48.9476C45.8884 48.6678 37.8932 44.7832 28.4474 39.1375C18.0124 32.9157 9.29191 27.1547 9.32488 25.3441L9.39082 25.1137L9.63809 24.6693L9.65458 24.6034L9.58864 24.587L9.55567 24.801C9.58864 27.846 27.5572 38.0347 28.6287 38.726C38.3548 44.7503 46.6962 48.5196 48.9711 48.5196L49.5481 48.3386L49.4986 48.3056L49.4492 48.2727L49.1524 48.783L49.2349 48.8324H49.3008V48.7665L49.2349 48.783V48.8324H49.1854V49.0463L49.581 48.355L49.4821 48.2892L48.9876 48.4209C46.7786 48.4209 38.4043 44.6516 28.6947 38.6437C27.6231 37.9853 9.63809 27.6814 9.67106 24.8174L9.70403 24.6528L9.72052 24.6034L9.60512 24.5705H9.55567L9.25894 25.0808L9.17651 25.3771C9.20948 27.3522 17.9135 33.0144 28.365 39.2692C37.8108 44.9149 45.7895 48.7994 48.4436 49.0957L49.2349 48.9147V48.8324H49.1854H49.2349ZM10.9899 21.8711L10.9404 21.8546L10.9074 22.0522C10.9404 24.0273 19.7269 29.3933 30.2607 35.8126C40.4649 42.018 49.3173 45.9683 51.0152 45.9848L51.2955 45.919L51.6252 45.3099L51.6746 45.2112L50.6196 45.3429C47.7182 44.5034 40.0528 40.9975 30.5574 35.2365C21.0457 29.4756 12.7702 24.1755 11.5174 21.9534L11.3855 21.3115L11.369 21.2621H11.3031H11.2701L10.9899 21.7723L10.9404 21.8382L10.9899 21.8711L11.0393 21.904L11.0888 21.8382L11.369 21.3608L11.3196 21.3279V21.3773H11.3525V21.3279L11.2866 21.3444L11.4349 22.0028C12.7537 24.2907 20.9962 29.5743 30.508 35.3353C40.0033 41.0962 47.6688 44.6022 50.6196 45.4581L51.4768 45.3593L51.213 45.8531L51.0317 45.886C49.4327 45.886 40.5308 41.9192 30.3431 35.7303C19.8258 29.3603 11.0063 23.8792 11.0393 22.0851L11.0558 21.9205L10.9899 21.8711Z" fill="#424241"/>
<path d="M30.5245 50.0998C39.0142 50.1492 46.4159 48.8982 49.7953 47.1535L51.0317 44.9972C48.0974 46.5938 40.1022 48.2727 30.541 48.0094C22.7436 47.96 14.4187 47.1535 10.4294 44.8985L12.2427 47.4004C15.4737 49.1945 23.2217 50.0998 30.5245 50.0998Z" fill="#FFE143"/>
<path d="M30.5245 50.1656H30.9531C39.2615 50.1656 46.4819 48.9311 49.8283 47.2029L51.0811 45.0302L51.1801 44.8656L51.0152 44.9643C48.2952 46.4457 41.1737 48.0094 32.4862 47.9929L30.5574 47.9765C22.7601 47.9271 14.4517 47.1206 10.4788 44.8656L10.4129 44.9479L12.2262 47.4498C15.4573 49.2439 23.2216 50.1492 30.5245 50.1656V50.0504C23.2381 50.0504 15.4902 49.1451 12.2592 47.351L10.4623 44.8656L10.4129 44.8985L10.3964 44.9479C14.4022 47.2029 22.7271 48.0258 30.5409 48.0752L32.4697 48.0917C41.1737 48.0917 48.2952 46.5445 51.0647 45.0466L51.0317 44.9972L50.9822 44.9643L49.7459 47.1206C46.4489 48.8159 39.245 50.0504 30.9366 50.0504H30.508V50.1656H30.5245Z" fill="#424241"/>
<path d="M30.6399 50.2973C25.7438 50.2808 21.227 49.9846 17.7157 49.3426C15.177 48.8324 13.4791 48.2234 12.2262 47.565L11.7482 46.8407C12.6548 47.4333 14.4682 48.1904 17.7981 48.8159C21.2929 49.4578 25.7768 49.7541 30.6399 49.7706C35.2721 49.7377 39.6406 49.4908 43.1849 48.8653C46.2181 48.3221 49.647 47.351 50.5536 46.3305L50.0261 47.1864C49.004 47.96 46.2346 48.8159 43.4157 49.3755C39.8384 50.0504 35.2721 50.2973 30.6399 50.2973ZM30.6399 48.3221C25.2493 48.2892 20.9632 48.0917 17.1882 47.3839C13.7758 46.7584 11.3031 45.5733 10.0172 44.9149L9.78645 44.4376C10.4458 44.9314 13.4296 46.1494 17.2706 46.8737C20.9138 47.5156 25.1669 47.8119 30.6234 47.7954C35.437 47.7954 40.1022 47.5814 43.7948 46.8737C47.4545 46.1659 50.3228 45.3264 51.4768 44.5693L51.1141 45.2277C50.6525 45.7544 47.3391 46.7255 43.8772 47.3839C40.1517 48.0588 35.4699 48.3221 30.6399 48.3221Z" fill="#FFE143"/>
<path d="M30.6399 50.2315C25.7438 50.215 21.2435 49.9187 17.7322 49.2768C15.1935 48.7665 13.4956 48.174 12.2592 47.5156L11.8141 46.8243L11.7646 46.8572L11.7317 46.9066C12.6548 47.4991 14.4682 48.2563 17.7981 48.8982C21.2929 49.5402 25.7933 49.8364 30.6563 49.8529C35.2886 49.82 39.6736 49.5731 43.2014 48.9476C46.2346 48.388 49.6634 47.4498 50.6031 46.3963L50.5536 46.3634L50.5042 46.3305L49.9767 47.1864C48.9876 47.9271 46.2181 48.7995 43.3992 49.3426C39.8879 49.9846 35.404 50.2479 30.8377 50.2479H30.6399V50.3632H30.8212C35.3875 50.3632 39.8879 50.0998 43.4157 49.4579C46.2346 48.8982 49.004 48.0423 50.0591 47.2522L50.6031 46.3799L50.5042 46.314C49.6305 47.3181 46.2016 48.2892 43.1684 48.8324C39.6241 49.4579 35.2556 49.6883 30.6234 49.7377C25.7603 49.7212 21.2764 49.4249 17.7981 48.783C14.4846 48.1411 12.6713 47.3839 11.7646 46.8078L11.6822 46.8901L12.1603 47.6144C13.4461 48.2892 15.144 48.9147 17.6992 49.4085C21.2105 50.0504 25.7438 50.3467 30.6399 50.3632V50.2315ZM30.6399 48.3221V48.2727C25.2493 48.2398 20.9632 48.0423 17.1882 47.3345C13.7923 46.7091 11.3195 45.5239 10.0337 44.8656L9.8359 44.4211L9.78645 44.4376L9.75348 44.487C10.4294 44.9972 13.4131 46.2153 17.2706 46.9395C20.8313 47.565 24.969 47.8613 30.2442 47.8613H30.6399H30.8706C35.6018 47.8613 40.1846 47.6308 43.8278 46.9395C47.5039 46.2317 50.3558 45.3923 51.5262 44.6187L51.4933 44.5693L51.4438 44.5364L51.0811 45.1948C50.669 45.6885 47.3391 46.6761 43.8937 47.3181C40.2176 47.9929 35.6183 48.2563 30.8542 48.2563H30.6728V48.3221V48.3715H30.8542C35.6348 48.3715 40.2341 48.0917 43.9102 47.4333C47.3885 46.7749 50.669 45.8202 51.18 45.2606L51.5592 44.6022L51.4768 44.5199C50.3393 45.277 47.4874 46.1165 43.8278 46.8243C40.2011 47.5156 35.6183 47.746 30.8871 47.746H30.6563H30.2607C24.9855 47.746 20.8643 47.4662 17.3036 46.8243C13.4626 46.1 10.4788 44.882 9.85239 44.4047L9.73699 44.4541L9.96778 44.9314C11.2866 45.6227 13.7593 46.8078 17.1882 47.4333C20.9632 48.1246 25.2493 48.3386 30.6399 48.3715V48.3221Z" fill="#424241"/>
<path d="M30.7882 39.0223C38.635 38.9565 48.3941 37.9195 53.9495 35.648V33.6728C50.6525 35.5328 39.6571 36.7508 30.7223 36.9319C20.139 36.8331 11.5503 35.4011 7.82474 32.8499L7.7588 35.4011C14.633 38.3639 21.7215 38.9894 30.7882 39.0223Z" fill="#FFE143"/>
<path d="M30.7882 39.0881C38.635 39.0223 48.3941 37.9853 53.9825 35.7139L54.0155 35.6974V33.6728V33.5741L53.933 33.6235C50.669 35.467 39.6571 36.7015 30.7223 36.8825C20.1555 36.7838 11.5668 35.3518 7.84123 32.8005L7.75881 32.7346L7.70935 35.4011V35.4341L7.74232 35.4505C14.6165 38.4297 21.7215 39.0552 30.7882 39.0881V38.9729C21.738 38.94 14.6495 38.3145 7.79178 35.3518L7.75881 35.4011H7.80826L7.85771 32.8499H7.80826L7.77529 32.8992C11.5503 35.467 20.139 36.899 30.7058 36.9977C39.6406 36.8167 50.6525 35.5987 53.966 33.7222L53.933 33.6728H53.8836V35.648H53.933L53.9165 35.5987C48.3611 37.8537 38.6021 38.8906 30.7717 38.9565V39.0881H30.7882Z" fill="#424241"/>
<path d="M54.2133 35.7139C54.0155 36.0266 50.3723 37.294 45.0312 38.2487C41.4045 38.8083 36.6733 39.3021 30.7553 39.3021C25.1339 39.3021 20.5511 38.9071 17.0893 38.4133C11.4679 37.508 8.56657 36.2571 7.49505 35.8126V35.253C10.5777 36.5204 13.7593 37.2776 17.1717 37.8043C20.617 38.2816 25.1504 38.7096 30.7388 38.6931C36.6239 38.6931 41.3056 38.1664 44.9158 37.6232C50.4053 36.7179 53.7847 35.5493 54.2133 35.0226V35.7139Z" fill="#FFE143"/>
<path d="M54.2133 35.7139L54.1638 35.681C54.0319 35.9443 50.3558 37.2611 45.0147 38.1829C41.388 38.7425 36.6568 39.2363 30.7553 39.2363H30.6069C25.0515 39.2363 20.5181 38.8248 17.0893 38.3475C11.4844 37.4422 8.58304 36.2077 7.51152 35.7633L7.49504 35.8126H7.54449V35.253H7.49504L7.47855 35.3024C10.5777 36.5698 13.7428 37.3269 17.1717 37.8537C20.5676 38.331 25.002 38.7425 30.4585 38.7425H30.7388C36.6239 38.7425 41.3056 38.2158 44.9158 37.6726C50.4217 36.7673 53.7847 35.6151 54.2463 35.039L54.1968 35.0061H54.1309V35.681H54.2133L54.1638 35.648L54.2133 35.7139H54.2627V35.039V34.8744L54.1638 35.0061C53.7847 35.5164 50.3723 36.7015 44.8993 37.5903C41.2891 38.1335 36.6074 38.6602 30.7223 38.6602H30.442C24.9855 38.6602 20.5511 38.2487 17.1717 37.7714C13.7593 37.2446 10.5777 36.4875 7.51152 35.2365L7.4291 35.2036V35.8456V35.8785L7.46207 35.8949C8.53359 36.3393 11.4514 37.5903 17.0728 38.4956C20.5181 38.9729 25.0515 39.3844 30.6069 39.3844H30.7553C36.6568 39.3844 41.4045 38.8906 45.0312 38.331C50.4053 37.3763 54.0155 36.1418 54.2627 35.7633V35.7468V35.7303H54.2133V35.7139Z" fill="#424241"/>
<path d="M54.2133 33.6893C53.6198 34.1831 49.581 35.253 44.3883 36.1089C40.91 36.6192 36.4755 37.0636 30.8212 37.0636C25.4471 37.0801 21.0456 36.7015 17.7157 36.2077C12.424 35.4999 7.49505 33.1297 7.49505 33.1297V32.3561C7.49505 32.3561 12.4076 34.858 17.7816 35.6316C21.0951 36.1089 25.4801 36.471 30.8212 36.4546C36.4425 36.4546 40.8275 35.9937 44.2894 35.4834C49.5316 34.7427 53.8012 33.3766 54.2298 33.0474V33.6893H54.2133ZM54.2133 35.7139C54.0155 36.0266 50.3723 37.294 45.0312 38.2487C41.4045 38.8083 36.6733 39.3021 30.7553 39.3021C25.1339 39.3021 20.5511 38.9071 17.0893 38.4133C11.4679 37.508 8.56657 36.2571 7.49505 35.8126V35.253C10.5777 36.5204 13.7593 37.2776 17.1717 37.8043C20.617 38.2816 25.1504 38.7096 30.7388 38.6931C36.6239 38.6931 41.3056 38.1664 44.9158 37.6232C50.4053 36.7179 53.7847 35.5493 54.2133 35.0226V35.7139Z" fill="#FFE143"/>
<path d="M54.2133 33.6893L54.1803 33.6399C53.6198 34.1008 49.5645 35.1872 44.3718 36.0431C40.8935 36.5533 36.459 36.9977 30.8212 36.9977H30.5245C25.2987 36.9977 20.9962 36.6356 17.7322 36.1418C12.457 35.4341 7.5445 33.0638 7.52801 33.0638L7.51153 33.1132H7.56098V32.3396H7.51153L7.47856 32.389C7.47856 32.389 12.4075 34.9073 17.7816 35.6809C21.0621 36.1418 25.3977 36.5039 30.6728 36.5039H30.8377C36.459 36.5039 40.844 36.0431 44.3059 35.5328C49.5645 34.7921 53.8012 33.4424 54.2627 33.0803L54.2298 33.0309H54.1638V33.6728H54.2133L54.1803 33.6235L54.2133 33.6893H54.2627V33.0474V32.9321L54.1638 33.0144C53.7682 33.3272 49.4821 34.7098 44.2564 35.4341C40.7946 35.9443 36.4261 36.4052 30.8047 36.4052H30.6399C25.3647 36.4052 21.0292 36.0431 17.7651 35.5822C12.4075 34.8086 7.51153 32.3067 7.49505 32.3067L7.41262 32.2573V33.1297V33.1626L7.44559 33.179C7.44559 33.179 12.3746 35.5493 17.6827 36.2735C20.9632 36.7673 25.2493 37.1294 30.4915 37.1294H30.7882C36.4425 37.1294 40.877 36.6685 44.3553 36.1747C49.5645 35.3188 53.5869 34.2489 54.2133 33.7551L54.2298 33.7387V33.7058H54.2133V33.6893ZM54.2133 35.7139L54.1638 35.6809C54.0319 35.9443 50.3558 37.2611 45.0147 38.1829C41.388 38.7425 36.6569 39.2363 30.7553 39.2363H30.6069C25.0515 39.2363 20.5181 38.8248 17.0893 38.3474C11.4844 37.4422 8.58305 36.2077 7.51153 35.7632L7.49505 35.8126H7.5445V35.253H7.49505L7.47856 35.3024C10.5777 36.5698 13.7593 37.3269 17.1717 37.8537C20.5676 38.331 25.002 38.7425 30.4585 38.7425H30.7388C36.6239 38.7425 41.3056 38.2158 44.9158 37.6726C50.4218 36.7673 53.7847 35.6151 54.2463 35.039L54.1968 35.0061H54.1309V35.6809H54.2133L54.1638 35.648L54.2133 35.7139H54.2627V35.039V34.8744L54.1638 35.0061C53.7847 35.5164 50.3723 36.7015 44.8993 37.5903C41.2891 38.1335 36.6074 38.6602 30.7223 38.6602H30.442C24.9855 38.6602 20.5511 38.2487 17.1717 37.7714C13.7758 37.2446 10.5777 36.4875 7.51153 35.2365L7.42911 35.2036V35.8455V35.8785L7.46208 35.8949C8.53359 36.3393 11.4514 37.5903 17.0728 38.4956C20.5181 38.9729 25.0515 39.3844 30.6069 39.3844H30.7553C36.6569 39.3844 41.4045 38.8906 45.0312 38.331C50.4053 37.3763 54.0155 36.1254 54.2627 35.7632V35.7468V35.7303H54.2133V35.7139Z" fill="#424241"/>
<path d="M30.9036 27.1712C37.9427 27.1218 46.6302 26.2165 51.6251 24.2249L50.5536 22.4801C47.6028 24.1097 38.8658 25.1796 30.8542 25.3441C21.3753 25.2618 14.666 24.373 11.3195 22.1345L10.314 23.9944C16.4628 26.5951 22.7765 27.1547 30.9036 27.1712Z" fill="#FFE143"/>
<path d="M30.9036 27.2206C37.9427 27.1712 46.6302 26.2659 51.6416 24.2743L51.7076 24.2578L50.6031 22.4472L50.5701 22.3978L50.5207 22.4308C47.5863 24.0438 38.8493 25.1302 30.8542 25.2948C21.3753 25.2125 14.6825 24.3236 11.3525 22.0851L11.3031 22.0522L10.2645 23.9615L10.2315 24.0274L10.2975 24.0438C16.4463 26.6445 22.7766 27.2041 30.9036 27.2206V27.1054C22.7766 27.0889 16.4793 26.5293 10.314 23.9286L10.2975 23.978L10.3469 24.0109L11.369 22.1509L11.3195 22.118L11.2866 22.1674C14.666 24.4224 21.3753 25.3112 30.8542 25.3935C38.8658 25.2289 47.6028 24.159 50.5866 22.5131L50.5536 22.4637L50.5042 22.4966L51.5757 24.2413L51.6251 24.2084L51.6087 24.159C46.6302 26.1342 37.9427 27.0395 30.9201 27.0889V27.2206H30.9036Z" fill="#424241"/>
<path d="M50.9658 22.4966C50.4218 22.9245 47.7677 23.8628 43.086 24.6034C39.9703 25.0479 35.9975 25.4594 30.9201 25.4594C26.1065 25.4594 22.1666 25.1466 19.1664 24.7022C14.4187 24.0767 11.88 22.9575 10.9734 22.6447L11.2536 22.1838C11.9625 22.5295 14.4022 23.5336 19.2158 24.2084C22.1831 24.6199 26.123 24.9326 30.9201 24.9326C35.9645 24.9326 39.9044 24.5211 42.9871 24.0767C47.6853 23.4348 50.2239 22.2332 50.6196 21.937L50.9658 22.4966ZM51.9054 24.2743C51.7405 24.5541 48.4765 25.6733 43.6794 26.4963C40.4319 26.9901 36.1788 27.4181 30.8706 27.4181C25.8428 27.4181 21.7215 27.0724 18.6059 26.6445C13.578 25.8544 10.9734 24.7516 10.0172 24.373L10.248 23.8792C13.0175 24.982 15.6386 25.6404 18.6883 26.1178C21.7875 26.5293 25.8592 26.8914 30.8542 26.8914C36.1293 26.8914 40.333 26.4305 43.564 25.9367C48.4765 25.1466 51.1801 24.1261 51.5427 23.6488L51.9054 24.2743Z" fill="#FFE143"/>
<path d="M50.9328 22.4472C50.4218 22.8422 47.7677 23.8134 43.086 24.5376C39.9703 24.9985 35.9975 25.3935 30.9366 25.3935H30.7717C26.0241 25.3935 22.1501 25.0643 19.1829 24.6364C14.4352 24.0109 11.913 22.9081 11.0063 22.5789L10.9898 22.6283L11.0393 22.6612L11.3195 22.2003L11.2701 22.1674L11.2371 22.2168C11.9625 22.5789 14.4022 23.5665 19.2158 24.2413C22.1831 24.6528 26.123 24.9656 30.9201 24.9656C35.9645 24.9656 39.9044 24.5541 43.0036 24.1097C47.7182 23.4677 50.2404 22.2662 50.6526 21.9534L50.6196 21.904L50.5701 21.937L50.9163 22.5131L51.0152 22.4637L50.669 21.8876L50.6361 21.8382L50.5866 21.8876C50.2239 22.1839 47.6853 23.3854 42.9871 24.0274C39.8879 24.4718 35.981 24.8833 30.9201 24.8833C26.123 24.8833 22.1831 24.5705 19.2323 24.159C14.4187 23.4842 11.9954 22.4801 11.2866 22.1345L11.2371 22.118L10.9239 22.6283L10.8909 22.6776L10.9569 22.6941C11.8635 23.0233 14.4022 24.1426 19.1664 24.7681C22.1336 25.196 26.0241 25.5252 30.7717 25.5252H30.9366C36.0139 25.5252 39.9868 25.1302 43.1025 24.6693C47.7842 23.9286 50.4382 22.9739 51.0152 22.546L50.9328 22.4472ZM51.9054 24.2743L51.8559 24.2413C51.7406 24.4718 48.4601 25.624 43.6629 26.4305C40.4154 26.9243 36.1623 27.3523 30.8707 27.3523H30.7223C25.7603 27.3523 21.6886 26.9901 18.6224 26.5786C13.5945 25.7886 10.9898 24.7022 10.0337 24.3236L10.0172 24.373L10.0667 24.3895L10.2975 23.8957L10.248 23.8792L10.2315 23.9286C13.0175 25.0479 15.6221 25.7063 18.6883 26.1836C21.7875 26.5951 25.8592 26.9572 30.8707 26.9572C36.1458 26.9572 40.366 26.4963 43.597 26.0025C48.526 25.2125 51.213 24.2084 51.6252 23.6982L51.5757 23.6652L51.5263 23.6982L51.8724 24.3072L51.9054 24.2743L51.8559 24.2413L51.9054 24.2743L51.9549 24.2413L51.6087 23.6323L51.5592 23.5665L51.5098 23.6323C51.1636 24.0767 48.4601 25.1137 43.564 25.8873C40.333 26.3647 36.1293 26.8255 30.8542 26.842C25.8428 26.842 21.7875 26.4799 18.6883 26.0684C15.6386 25.591 13.034 24.9327 10.2645 23.8298L10.2151 23.8134L9.96778 24.3566L9.93481 24.4059L9.98427 24.4224C10.9404 24.8174 13.545 25.9038 18.6059 26.6939C21.6886 27.1054 25.7438 27.4675 30.7223 27.4675H30.8707C36.1788 27.4675 40.4319 27.0395 43.6794 26.5457C48.493 25.7063 51.7241 24.6199 51.9549 24.2907L51.9713 24.2578L51.9549 24.2249L51.9054 24.2743Z" fill="#424241"/>
<path d="M30.8377 54.725C19.5125 54.725 10.3304 45.5569 10.3304 34.2489C10.3304 22.941 19.5125 13.7729 30.8377 13.7729C42.1628 13.7729 51.3614 22.941 51.3614 34.2489C51.3614 45.5569 42.1628 54.725 30.8377 54.725ZM30.8377 11.5837C18.3091 11.5837 8.15444 21.7394 8.15444 34.2489C8.15444 46.7584 18.3091 56.8977 30.8377 56.8977C43.3662 56.8977 53.5209 46.7584 53.5209 34.2489C53.5209 21.7394 43.3662 11.5837 30.8377 11.5837Z" fill="#FFE143"/>
<path d="M30.8377 11.8306C18.441 11.8306 8.36875 21.8711 8.36875 34.2489C8.36875 46.6268 18.4245 56.6673 30.8377 56.6673C43.2508 56.6673 53.3066 46.6268 53.3066 34.2489C53.3066 21.8711 43.2508 11.8306 30.8377 11.8306ZM53.7517 34.2489C53.7517 46.8901 43.4981 57.1281 30.8377 57.1281C18.1773 57.1281 7.92365 46.8901 7.92365 34.2489C7.92365 21.6078 18.1773 11.3697 30.8377 11.3697C43.4981 11.3697 53.7517 21.6078 53.7517 34.2489Z" fill="#FFE143"/>
<path d="M30.8377 11.8306V11.7647C18.4081 11.7647 8.31929 21.8382 8.31929 34.2489C8.31929 46.6596 18.4081 56.7331 30.8377 56.7331C43.2673 56.7331 53.3561 46.6596 53.3561 34.2489C53.3561 21.8382 43.2673 11.7647 30.8377 11.7647V11.8306V11.88C43.2178 11.9129 53.2242 21.904 53.2407 34.2489C53.2242 46.5938 43.2178 56.5849 30.8377 56.6179C18.474 56.5849 8.45117 46.6103 8.43468 34.2489C8.45117 21.904 18.474 11.9129 30.8377 11.88V11.8306ZM53.7517 34.2489H53.6858C53.6693 46.8572 43.4651 57.0458 30.8212 57.0787C18.1937 57.0623 7.98959 46.8736 7.95662 34.2489C7.9731 21.6407 18.1773 11.452 30.8212 11.4191C43.4486 11.4355 53.6528 21.6242 53.6858 34.2489H53.7517H53.8012C53.8012 21.5748 43.5146 11.3039 30.8212 11.3039C18.1278 11.3039 7.84122 21.5748 7.84122 34.2489C7.84122 46.923 18.1278 57.194 30.8212 57.194C43.5146 57.194 53.8012 46.923 53.8012 34.2489H53.7517Z" fill="#424241"/>
<path d="M30.8377 14.0033C19.6444 14.0033 10.5612 23.0727 10.5612 34.2489C10.5612 45.4252 19.6444 54.4945 30.8377 54.4945C42.0309 54.4945 51.1141 45.4252 51.1141 34.2489C51.1306 23.0727 42.0474 14.0033 30.8377 14.0033ZM51.5757 34.2489C51.5757 45.6885 42.2947 54.9554 30.8377 54.9554C19.3807 54.9554 10.0997 45.6721 10.0997 34.2489C10.0997 22.8093 19.3807 13.5424 30.8377 13.5424C42.2947 13.5424 51.5757 22.8093 51.5757 34.2489Z" fill="#FFE143"/>
<path d="M30.8377 14.0033V13.9375C19.6115 13.9375 10.4953 23.0398 10.4953 34.2489C10.4953 45.4581 19.6115 54.5604 30.8377 54.5604C42.0639 54.5604 51.1801 45.4746 51.1801 34.2489C51.1801 23.0398 42.0639 13.9375 30.8377 13.9375V14.0033V14.0527C42.0145 14.0691 51.0482 23.0892 51.0647 34.2489C51.0482 45.4087 42.0145 54.4123 30.8377 54.4452C19.6774 54.4123 10.6437 45.4087 10.6107 34.2489C10.6437 23.0892 19.6774 14.0691 30.8377 14.0527V14.0033ZM51.5757 34.2489H51.5262C51.5098 45.6556 42.2782 54.8896 30.8542 54.9061C19.4136 54.8896 10.1821 45.6556 10.1656 34.2489C10.1821 22.8423 19.4136 13.6083 30.8377 13.5918C42.2617 13.6083 51.4933 22.8423 51.5098 34.2489H51.5757H51.6252C51.6252 22.7764 42.3112 13.4766 30.8377 13.4766C19.3477 13.4766 10.0502 22.7764 10.0502 34.2489C10.0502 45.705 19.3642 55.0213 30.8377 55.0213C42.3277 55.0213 51.6252 45.7215 51.6252 34.2489H51.5757Z" fill="#424241"/>
<path d="M30.6069 29.4097C40.1681 29.3604 50.1415 30.7759 53.9495 32.7675V35.2365C50.6361 33.4259 41.4045 31.5166 30.6234 31.7964C21.8369 31.8458 12.4735 32.784 7.7588 35.3517V32.5206C11.6328 30.4632 22.3809 29.4262 30.6069 29.4097Z" fill="#FFE143"/>
<path d="M30.6069 29.4756H31.1014C40.4978 29.4756 50.1909 30.8747 53.9165 32.8334L53.9495 32.784H53.9001V35.2365H53.9495L53.9825 35.1871C50.8668 33.4918 42.6244 31.7141 32.7499 31.7141C32.0411 31.7141 31.3322 31.7141 30.6234 31.747C21.8369 31.7964 12.4735 32.7346 7.74232 35.3024L7.77529 35.3517H7.82474V32.5206H7.7588L7.79177 32.57C11.6328 30.529 22.3974 29.492 30.6069 29.4756V29.3603C22.3809 29.3768 11.6328 30.4138 7.72583 32.4548L7.69286 32.4713V35.3517V35.4505L7.77529 35.4011C12.4735 32.8498 21.8369 31.9116 30.6069 31.8458C31.3322 31.8293 32.0246 31.8129 32.7334 31.8129C42.5914 31.8129 50.8339 33.5905 53.9165 35.2694L53.999 35.3188V32.7675V32.7346L53.966 32.7182C50.1909 30.743 40.4978 29.3439 31.0849 29.3439H30.5904V29.4756H30.6069Z" fill="#424241"/>
<path d="M30.7388 29.1957C35.948 29.1793 41.1078 29.4756 45.1301 30.2163C48.2952 30.8417 53.0923 31.8293 54.2298 32.7017V33.6728C53.2077 32.5042 48.2952 31.4178 44.8828 30.7924C40.8935 30.0846 35.9645 29.8048 30.7388 29.7718C25.2658 29.7883 20.1884 30.134 16.265 30.8582C12.5229 31.5824 8.5336 32.4383 7.49505 33.1132V32.2902C8.91275 31.533 13.2977 30.8253 16.1826 30.2656C20.139 29.5414 25.2163 29.2122 30.7388 29.1957ZM30.7388 31.4507C36.1953 31.4343 41.454 31.747 45.6576 32.5206C49.548 33.2613 53.6858 34.3806 54.2298 34.9732V35.7138C52.9275 34.8579 49.7129 33.8868 45.5752 33.0803C41.421 32.2902 36.1458 32.0268 30.7223 32.0433C24.5734 32.0268 19.7928 32.356 15.688 33.0803C11.3525 33.9033 8.23687 35.0884 7.49505 35.648V34.8744C8.94572 34.1172 11.7317 33.2119 15.5727 32.5042C19.8093 31.7141 24.6558 31.4837 30.7388 31.4507Z" fill="#FFE143"/>
<path d="M30.7388 29.2451H31.0849C36.1788 29.2451 41.1902 29.5414 45.1136 30.2657C48.2787 30.8911 53.0758 31.8787 54.1803 32.7346L54.2133 32.6853H54.1638V33.6564H54.2133L54.2627 33.6235C53.1912 32.4384 48.2952 31.352 44.8828 30.7265C40.8935 30.0188 35.948 29.7389 30.7388 29.706C25.2658 29.7225 20.1884 30.0681 16.265 30.7924C12.5065 31.5331 8.53359 32.3725 7.47855 33.0638L7.51152 33.1132H7.56098V32.2902H7.51152L7.54449 32.3396C8.94571 31.5824 13.3307 30.8911 16.1991 30.315C20.139 29.6073 25.2163 29.2616 30.7388 29.2451V29.1299C25.2328 29.1464 20.1225 29.4756 16.1661 30.2163C13.2812 30.7759 8.89626 31.4837 7.46207 32.2573L7.4291 32.2738V33.1297V33.2449L7.51152 33.1955C8.5171 32.5207 12.5229 31.6647 16.265 30.9405C20.1884 30.1998 25.2493 29.8706 30.7223 29.8542C35.9315 29.9035 40.877 30.1834 44.8498 30.8747C48.2457 31.4837 53.1582 32.603 54.1638 33.7387L54.2627 33.8539V32.7182V32.6853L54.2462 32.6688C53.0758 31.7635 48.2952 30.8088 45.1136 30.1669C41.1902 29.4427 36.1623 29.1464 31.0685 29.1464H30.7223V29.2451H30.7388ZM30.7388 31.4508V31.5166H31.1014C36.4261 31.5166 41.5529 31.8293 45.6576 32.5865C49.548 33.3272 53.7022 34.4465 54.1803 35.0061L54.2298 34.9732H54.1803V35.7139H54.2298L54.2627 35.6645C52.9604 34.7921 49.7294 33.8375 45.5917 33.0309C41.5364 32.2573 36.4261 31.9939 31.1509 31.9939H30.7388H30.1783C24.2932 31.9939 19.6774 32.3231 15.688 33.0309C11.336 33.8704 8.23686 35.039 7.47855 35.6151L7.51152 35.6645H7.56098V34.8909H7.51152L7.54449 34.9403C8.97868 34.1831 11.7646 33.2778 15.6056 32.57C19.8422 31.78 24.6723 31.5331 30.7552 31.5002V31.4508V31.4014C24.6723 31.4343 19.8258 31.6812 15.5891 32.4713C11.7317 33.1791 8.94571 34.0844 7.49504 34.8415L7.46207 34.858V35.6645V35.7797L7.56098 35.7139C8.28632 35.1707 11.402 33.9691 15.721 33.1626C19.6939 32.4548 24.3096 32.1256 30.1948 32.1256H30.7552H31.1674C36.4425 32.1256 41.5529 32.4054 45.5917 33.1626C49.7129 33.9691 52.9439 34.9238 54.2298 35.7797L54.3122 35.8291V34.9732V34.9567L54.2957 34.9403C53.7187 34.3148 49.614 33.212 45.6906 32.4713C41.5694 31.7141 36.4425 31.4014 31.1179 31.4014H30.7552V31.4508H30.7388Z" fill="#424241"/>
<path d="M30.7553 18.7437C39.3274 18.6943 46.8116 19.9453 50.2404 21.69L51.4933 23.8463C48.526 22.2497 40.4484 20.5708 30.7717 20.8341C22.892 20.8835 14.4682 21.69 10.248 23.945L11.7317 21.4596C15.1935 19.6655 23.37 18.7437 30.7553 18.7437Z" fill="#FFE143"/>
<path d="M30.7553 18.8096H31.1839C39.5747 18.8096 46.861 20.0441 50.2074 21.7559L51.4273 23.8957L51.4768 23.8628L51.5098 23.8134C48.7238 22.3155 41.5199 20.7683 32.717 20.7683L30.7717 20.8012C22.8919 20.8506 14.4682 21.6571 10.2151 23.9286L10.248 23.978L10.2975 24.0109L11.7811 21.5255C15.1935 19.7313 23.37 18.8096 30.7553 18.8096V18.6944C23.37 18.6944 15.1935 19.6161 11.6987 21.4102L10.1821 23.9286L10.0667 24.1097L10.248 24.0109C14.4517 21.7559 22.8755 20.9494 30.7388 20.9L32.684 20.8671C41.4704 20.8671 48.6743 22.4143 51.4273 23.9121L51.6087 24.0109L50.2569 21.6736C46.8445 19.9289 39.5582 18.6944 31.1674 18.6944H30.7388V18.8096H30.7553Z" fill="#424241"/>
<path d="M30.8542 18.5462C35.5359 18.5462 40.1516 18.7931 43.7618 19.4515C46.5972 20.0111 49.4162 20.867 50.4382 21.6407L50.9822 22.4966C50.0591 21.4761 46.5972 20.5049 43.5311 19.9618C39.9538 19.3363 35.5359 19.1058 30.8542 19.0565C25.9417 19.0565 21.3918 19.3692 17.8805 20.0111C14.5176 20.6531 12.3416 21.4102 11.4349 21.9863L11.8965 21.2621C13.1659 20.6037 15.21 19.9947 17.7981 19.4844C21.3424 18.8589 25.9087 18.5627 30.8542 18.5462ZM30.8542 20.5214C35.7502 20.5049 40.4649 20.7847 44.2399 21.4596C47.7347 22.1015 51.0811 23.0891 51.5427 23.6158L51.9219 24.2578C50.7514 23.5006 47.8666 22.6612 44.1575 21.9534C40.4319 21.2456 35.7007 21.0152 30.8377 21.0316C25.3152 21.0152 21.0292 21.3115 17.3365 21.9534C13.4461 22.6776 10.7426 23.7146 10.0667 24.2084L10.4294 23.5171C11.7317 22.8587 13.7758 22.0522 17.2376 21.4431C21.0621 20.7683 25.3977 20.5543 30.8542 20.5214Z" fill="#FFE143"/>
<path d="M30.8542 18.6121H31.0355C35.6513 18.6121 40.1846 18.8754 43.7454 19.5174C46.5808 20.0605 49.3997 20.9329 50.4053 21.6901L50.9328 22.5295L50.9822 22.4966L51.0317 22.4637C50.0756 21.4103 46.6137 20.4556 43.5475 19.9124C39.9703 19.2869 35.5359 19.0565 30.8542 19.0071C25.9417 19.0071 21.3918 19.3198 17.8641 19.9618C14.5011 20.6037 12.3251 21.3609 11.402 21.9534L11.4349 22.0028L11.4844 22.0357L11.946 21.3115C13.1823 20.686 15.2265 20.0605 17.7981 19.5667C21.3589 18.9248 25.9087 18.6285 30.8542 18.6121V18.4969C25.9087 18.5133 21.3424 18.8096 17.7981 19.4515C15.21 19.9618 13.1659 20.5708 11.88 21.2292L11.3855 21.9699L11.4679 22.0522C12.3746 21.4761 14.5341 20.7189 17.897 20.077C21.4083 19.4351 25.9581 19.1223 30.8706 19.1223C35.5524 19.1553 39.9703 19.4021 43.5475 20.0276C46.5973 20.5543 50.0756 21.5419 50.9658 22.546L51.0647 22.4801L50.5207 21.6242C49.4491 20.8342 46.6467 19.9782 43.7948 19.4186C40.2341 18.7767 35.6842 18.5133 31.0685 18.5133H30.8871V18.6121H30.8542ZM30.8542 20.5214V20.5873H31.2003C35.9645 20.5873 40.5473 20.8671 44.2234 21.5255C47.7017 22.1674 51.0647 23.155 51.4933 23.6653L51.8559 24.3072L51.9054 24.2743L51.9384 24.2249C50.7514 23.4677 47.8666 22.6283 44.1575 21.9205C40.5308 21.2457 35.9645 20.9988 31.2663 20.9988H30.8377H30.2772C25.0185 20.9988 20.8973 21.295 17.3365 21.9205C13.4461 22.6447 10.7426 23.6817 10.0502 24.192L10.0832 24.2414L10.1326 24.2743L10.4953 23.583C11.7646 22.941 13.8088 22.1509 17.2541 21.5419C21.0621 20.8506 25.3812 20.6366 30.8377 20.6037V20.5214V20.472C25.3812 20.505 21.0456 20.7025 17.2376 21.4103C13.7758 22.0357 11.7152 22.8258 10.4129 23.5007L10.0172 24.2084L10.0997 24.2743C10.7591 23.7969 13.4461 22.7435 17.3365 22.0357C20.8973 21.4103 25.0185 21.114 30.2607 21.114H30.8212H31.2498C35.9645 21.114 40.5143 21.3444 44.1245 22.0357C47.8336 22.7435 50.7185 23.583 51.8724 24.3237L51.9548 24.2414L51.5757 23.5994C51.0482 23.0233 47.7347 22.0686 44.2234 21.4103C40.5473 20.7519 35.948 20.472 31.1839 20.472H30.8377V20.5214H30.8542Z" fill="#424241"/>
<path d="M30.8542 18.5462C35.5359 18.5462 40.1516 18.7931 43.7618 19.4515C46.5972 20.0111 49.4162 20.867 50.4382 21.6407L50.9822 22.4966C50.0591 21.4761 46.5972 20.5049 43.5311 19.9618C39.9703 19.3363 35.5359 19.1058 30.8542 19.0565C25.9417 19.0565 21.3918 19.3692 17.8805 20.0111C14.5176 20.6366 12.3416 21.4102 11.4349 21.9863L11.8965 21.2621C13.1659 20.6037 15.21 19.9947 17.7981 19.4844C21.3424 18.8589 25.9087 18.5627 30.8542 18.5462ZM30.8542 20.5214C35.7502 20.5049 40.4649 20.7847 44.2399 21.4596C47.7512 22.1015 51.0811 23.0891 51.5592 23.6158L51.9384 24.2578C50.7679 23.5006 47.8831 22.6612 44.174 21.9534C40.4484 21.2456 35.7172 21.0152 30.8542 21.0316C25.3317 21.0152 21.0456 21.3115 17.353 21.9534C13.4626 22.6776 10.7591 23.7146 10.0832 24.2084L10.4458 23.5171C11.7482 22.8587 13.7923 22.0522 17.2541 21.4431C21.0621 20.7683 25.3977 20.5543 30.8542 20.5214Z" fill="#FFE143"/>
<path d="M30.8542 18.5462V18.6121H31.0355C35.6513 18.6121 40.1846 18.8754 43.7454 19.5174C46.5808 20.0605 49.3997 20.9329 50.4053 21.6901L50.9328 22.5295L50.9823 22.4966L51.0317 22.4637C50.0756 21.4103 46.6138 20.4556 43.5476 19.9124C39.9868 19.2869 35.5359 19.0565 30.8542 19.0071C25.9417 19.0071 21.3918 19.3198 17.8641 19.9618C14.5011 20.5873 12.3251 21.3609 11.402 21.9534L11.4349 22.0028L11.4844 22.0357L11.946 21.3115C13.1823 20.686 15.2265 20.0605 17.7981 19.5667C21.3424 18.9248 25.9087 18.6285 30.8542 18.6121V18.5462V18.4969C25.9087 18.5133 21.3424 18.8096 17.7981 19.4515C15.21 19.9618 13.1659 20.5708 11.88 21.2292L11.3855 21.9699L11.4679 22.0522C12.3746 21.4761 14.5341 20.7025 17.897 20.077C21.4083 19.4351 25.9582 19.1223 30.8707 19.1223C35.5524 19.1553 39.9703 19.4021 43.5476 20.0276C46.5973 20.5543 50.0756 21.5419 50.9658 22.546L51.0647 22.4801L50.5207 21.6242C49.4492 20.8342 46.6467 19.9782 43.7948 19.4186C40.2341 18.7767 35.6843 18.5133 31.0685 18.5133H30.8871V18.5462H30.8542ZM30.8542 20.5214V20.5873H31.2004C35.9645 20.5873 40.5473 20.8671 44.2234 21.5255C47.7182 22.1674 51.0647 23.155 51.5098 23.6653L51.8724 24.3072L51.9219 24.2743L51.9549 24.2249C50.768 23.4677 47.8831 22.6283 44.174 21.9205C40.5473 21.2457 35.981 20.9988 31.2828 20.9988H30.8542H30.2937C25.035 20.9988 20.9138 21.295 17.353 21.9205C13.4626 22.6447 10.7591 23.6817 10.0667 24.192L10.0997 24.2414L10.1491 24.2743L10.5118 23.583C11.7811 22.941 13.8253 22.1509 17.2706 21.5419C21.0786 20.8506 25.3977 20.6366 30.8542 20.6037V20.5214V20.472C25.3977 20.505 21.0621 20.7025 17.2541 21.4103C13.7923 22.0357 11.7317 22.8258 10.4294 23.5007L10.0337 24.2084L10.1162 24.2743C10.7756 23.7969 13.4626 22.7435 17.353 22.0357C20.9138 21.4103 25.035 21.114 30.2772 21.114H30.8377H31.2663C35.981 21.114 40.5308 21.3444 44.141 22.0357C47.8501 22.7435 50.735 23.583 51.8889 24.3237L51.9714 24.2414L51.5922 23.5994C51.0647 23.0233 47.7512 22.0686 44.2399 21.4103C40.5638 20.7519 35.981 20.472 31.2004 20.472H30.8542V20.5214Z" fill="#424241"/>
<path d="M30.6728 41.623C37.7119 41.6723 46.3994 42.5776 51.3944 44.5693L50.3228 46.314C47.372 44.6845 38.635 43.6146 30.6234 43.45C21.1281 43.5323 14.5671 44.5034 11.2866 46.3469L10.3799 44.7997C16.232 42.2155 22.5458 41.6394 30.6728 41.623Z" fill="#FFE143"/>
<path d="M30.6728 41.6888C37.6954 41.7382 46.3829 42.6435 51.3614 44.6187L51.3779 44.5693L51.3284 44.5364L50.2569 46.2811L50.3063 46.314L50.3393 46.2647C47.3555 44.6187 38.635 43.5488 30.6069 43.3842C21.1116 43.4665 14.5506 44.4376 11.2371 46.2976L11.2701 46.347L11.3195 46.314L10.4129 44.7668L10.3634 44.7997L10.3799 44.8491C16.2485 42.2649 22.5458 41.7053 30.6728 41.6888V41.5736C22.5458 41.5901 16.2156 42.1497 10.3305 44.7668L10.281 44.7833L11.2206 46.3963L11.2536 46.4457L11.3031 46.4128C14.5671 44.5693 21.1281 43.5982 30.6234 43.5159C38.635 43.6805 47.372 44.7503 50.2899 46.3799L50.3393 46.4128L51.4438 44.6022L51.4768 44.5364L51.4108 44.5199C46.3994 42.5283 37.7119 41.623 30.6728 41.5736V41.6888Z" fill="#424241"/>
<path d="M49.7459 46.6268C48.7897 46.1494 46.4159 45.2441 42.5749 44.7174C39.4923 44.273 35.5853 43.8615 30.5739 43.8615C25.8098 43.8615 21.8864 44.1578 18.9356 44.5857C14.1385 45.2606 11.7152 46.2646 11.0228 46.6103L10.7426 46.1494C11.6492 45.8202 14.1714 44.701 18.8861 44.0755C21.8699 43.6475 25.7768 43.3183 30.5739 43.3348C35.6183 43.3348 39.5582 43.7298 42.6574 44.1907C46.5148 44.8162 48.9876 45.5569 50.0261 46.0507L49.7459 46.6268ZM51.4438 44.5364L51.0976 45.1454C50.7185 44.668 48.0479 43.6475 43.1519 42.8575C39.9373 42.3801 35.7667 41.9192 30.5245 41.9192C25.546 41.9192 21.5072 42.2814 18.4245 42.6929C15.3748 43.1702 12.7867 43.8286 10.0172 44.9314L9.78645 44.4541C10.7426 44.059 13.3307 42.9727 18.3256 42.1826C21.4248 41.7711 25.5131 41.409 30.5245 41.409C35.7831 41.409 40.0198 41.8369 43.2508 42.3307C48.0314 43.1373 51.279 44.2565 51.4438 44.5364Z" fill="#FFE143"/>
<path d="M49.7459 46.6268L49.7624 46.5774C48.8062 46.1 46.4324 45.1948 42.5914 44.668C39.5088 44.2236 35.6018 43.8121 30.5739 43.8121H30.4091C25.7109 43.8121 21.8369 44.1249 18.9356 44.5364C14.1385 45.2112 11.6987 46.2153 10.9898 46.5609L11.0228 46.6103L11.0723 46.5774L10.792 46.1165L10.7426 46.1494L10.7591 46.1988C11.6657 45.8696 14.1714 44.7668 18.8861 44.1413C21.8204 43.7134 25.6779 43.4006 30.4091 43.4006H30.5739C35.6183 43.4006 39.5582 43.7957 42.6574 44.2565C46.4984 44.882 48.9876 45.6227 50.0096 46.1L50.0261 46.0507L49.9767 46.0342L49.6964 46.6268H49.7459L49.7624 46.5774L49.7459 46.6268L49.7953 46.6432L50.0756 46.0507L50.1086 46.0013L50.0426 45.9848C49.0041 45.491 46.5313 44.7339 42.6574 44.1249C39.5582 43.6804 35.6018 43.2854 30.5574 43.2854H30.3926C25.6779 43.2854 21.804 43.6146 18.8696 44.0261C14.155 44.6516 11.6492 45.7709 10.7261 46.1L10.6602 46.1165L10.9734 46.6432L11.0063 46.6926L11.0558 46.6761C11.7482 46.3305 14.1714 45.3429 18.9521 44.6516C21.8534 44.2236 25.7274 43.9273 30.4091 43.9273H30.5739C35.6018 43.9273 39.4923 44.3388 42.5749 44.7833C46.3994 45.31 48.7733 46.2153 49.7129 46.6761L49.7789 46.7091L49.7953 46.6597L49.7459 46.6268ZM51.4438 44.5364L51.3944 44.5034L51.0482 45.1125L51.0976 45.1454L51.1471 45.1125C50.735 44.6022 48.0809 43.5981 43.1684 42.7916C39.9538 42.3143 35.7667 41.8534 30.5245 41.8534H30.3761C25.4636 41.8534 21.4578 42.2155 18.4081 42.627C15.3584 43.1043 12.7537 43.7627 9.98427 44.8656L10.0008 44.9149L10.0502 44.8985L9.81942 44.4211L9.76997 44.4376L9.78645 44.487C10.7426 44.0919 13.3142 43.0056 18.3092 42.2155C21.3753 41.804 25.4142 41.4419 30.3431 41.4419H30.4915C35.7502 41.4419 39.9703 41.8699 43.2014 42.3637C47.949 43.1702 51.2295 44.3388 51.3449 44.5528L51.4438 44.5364L51.3944 44.5034L51.4438 44.5364L51.4933 44.5034C51.2625 44.1742 48.0479 43.0879 43.2508 42.2484C40.0198 41.7546 35.7832 41.3267 30.5245 41.3267H30.3761C25.4306 41.3267 21.3918 41.6888 18.3256 42.1003C13.3142 42.8904 10.7261 43.9932 9.76997 44.3882L9.70403 44.4047L9.96778 44.9314L9.98427 44.9808L10.0337 44.9643C12.7867 43.878 15.3748 43.2196 18.4245 42.7422C21.4743 42.3307 25.4471 41.9686 30.3761 41.9686H30.5245C35.7667 41.9686 39.9374 42.4295 43.1519 42.9068C48.0315 43.6969 50.7185 44.7174 51.0647 45.1783L51.1141 45.2441L51.5098 44.5693L51.5263 44.5364L51.5098 44.5034L51.4438 44.5364Z" fill="#424241"/>
<path d="M32.2554 11.2545H31.7608V57.2434H32.2554V11.2545Z" fill="#FFE143"/>
<path d="M32.2389 57.2434V57.194H31.8103V11.3039H32.1894V57.2434H32.2389V57.194V57.2434H32.3048V11.1887H31.7608H31.6949V57.3092H32.2389H32.3048V57.2434H32.2389Z" fill="#424241"/>
<path d="M29.931 11.2545H29.4365V57.2434H29.931V11.2545Z" fill="#FFE143"/>
<path d="M29.931 57.2434V57.194H29.5024V11.3039H29.8651V57.2434H29.931V57.194V57.2434H29.9805V11.1887H29.4365H29.387V57.3092H29.931H29.9805V57.2434H29.931Z" fill="#424241"/>
<path d="M31.7608 11.4849H29.931V57.0129H31.7608V11.4849Z" fill="#FFE143"/>
<path d="M31.7608 57.0129V56.9635H29.9805V11.5343H31.6949V57.0129H31.7608V56.9635V57.0129H31.8103V11.4191H29.931H29.8651V57.0788H31.7608H31.8103V57.0129H31.7608Z" fill="#424241"/>
<path d="M11.5174 21.4267C18.6059 21.328 51.2955 41.3761 51.3944 45.0631L49.3667 48.1575C48.4601 43.878 15.2759 24.373 9.80294 24.7352L11.5174 21.4267Z" fill="#FFE143"/>
<path d="M11.5174 21.4926H11.5668C18.6883 21.4596 51.2954 41.4913 51.3284 45.0631H51.3779L51.3284 45.0302L49.3008 48.1246L49.3502 48.1575L49.4162 48.1411C48.46 43.8286 15.9353 24.7022 9.9513 24.6693H9.78645V24.7187L9.8359 24.7516L11.5503 21.4267L11.4514 21.3773L9.73699 24.7022L9.68754 24.801H9.80293H9.9513C15.8199 24.7845 48.4436 44.0097 49.3008 48.1905L49.3338 48.3221L51.4438 45.1125V45.096V45.0795C51.2955 41.3102 18.8037 21.4103 11.5668 21.3938H11.5174V21.4926Z" fill="#424241"/>
<path d="M51.5922 45.2936C52.4164 43.664 43.4651 36.9155 32.3543 30.348C20.9962 23.9286 12.8197 20.1429 11.3195 21.2786L10.9734 21.8876L11.0558 21.7889L11.9789 21.5584C14.5506 21.6078 21.9029 24.9821 32.2224 30.8912C36.7393 33.5247 51.3119 42.8575 51.2625 45.4746L51.1965 45.8532L51.5922 45.2936ZM9.60511 24.6364C10.9239 23.7311 20.5841 28.0436 30.6893 34.1173C40.7616 40.2239 50.3888 47.1206 49.5316 48.4045L49.2513 48.8489L49.1194 48.9476L49.103 48.2728C48.6743 46.8572 41.8331 41.4255 30.508 34.5782C19.4631 27.9942 10.248 24.0274 9.32487 25.1631L9.60511 24.6364Z" fill="#FFE143"/>
<path d="M51.6581 45.3264L51.724 45.0631C51.6911 43.0056 43.0365 36.6027 32.4037 30.3151C22.3809 24.6529 14.8473 21.0317 12.1273 21.0152L11.2866 21.2292L10.9404 21.8547L11.0393 21.9205L11.1217 21.8218L12.0284 21.6242C14.5506 21.6572 21.9193 25.0314 32.2389 30.9405C36.7393 33.5412 51.2954 42.9069 51.2625 45.4581V45.4746L51.1965 45.8367L51.3119 45.8696L51.6581 45.3264L51.5592 45.2606L51.3449 45.5898L51.3614 45.4746V45.4581C51.3284 42.7258 36.8052 33.4753 32.2883 30.8418C21.9523 24.9327 14.6165 21.5584 12.0119 21.509L11.0723 21.7395L10.9569 21.8547L11.0063 21.8876L11.0558 21.9205L11.402 21.3115L12.1603 21.1469C14.7979 21.1469 22.3644 24.7516 32.3708 30.4138C42.987 36.6686 51.6581 43.1702 51.6251 45.0631L51.5757 45.2771L51.6581 45.3264ZM9.60511 24.6364L9.63808 24.6858L10.1491 24.5706C12.6054 24.5706 21.4578 28.6361 30.6563 34.1667C40.3 39.9935 49.548 46.6268 49.5151 48.2069L49.4656 48.3715L49.1854 48.8159L49.1689 48.8324L49.1524 48.2728C48.6908 46.8078 41.8661 41.3925 30.5245 34.5288C20.7324 28.702 12.4075 24.9327 9.95129 24.9162L9.27541 25.1302L9.32487 25.1631L9.37432 25.196L9.65457 24.6364H9.60511L9.55566 24.6035L9.27541 25.1631L9.37432 25.229L9.96778 25.0644C12.3416 25.0644 20.6995 28.8337 30.475 34.6605C41.8001 41.4748 48.6579 46.956 49.0535 48.3057L49.07 48.9641V49.0793L49.3008 48.9147L49.5975 48.4538L49.6634 48.2234C49.6305 46.4622 40.3989 39.9441 30.7388 34.0844C21.5237 28.5374 12.7043 24.4718 10.1656 24.4718L9.58863 24.6035L9.60511 24.6364Z" fill="#424241"/>
<path d="M17.2376 36.5369C17.2376 40.2568 18.7707 43.6146 21.2435 46.0836C23.7327 48.5526 27.0956 50.0998 30.8212 50.0998C34.5797 50.0998 37.9921 48.5691 40.4484 46.1166C42.9211 43.6476 44.4542 40.2568 44.4542 36.5369V18.3981H17.2376V36.5369Z" fill="white"/>
<path d="M17.2376 36.5369H17.1882C17.1882 40.2733 18.7213 43.6475 21.194 46.133C23.6832 48.602 27.0626 50.1656 30.8212 50.1656C34.5962 50.1656 38.0086 48.6349 40.4978 46.1659C42.9706 43.6805 44.5037 40.2897 44.5037 36.5369V18.3323H17.1882V36.5369H17.2376H17.2871V18.4475H44.3883V36.5369C44.3883 40.2568 42.8552 43.6311 40.3989 46.0836C37.9427 48.5361 34.5468 50.0504 30.8047 50.0504C27.0791 50.0504 23.7327 48.5032 21.2599 46.0507C18.7872 43.5982 17.2706 40.2403 17.2706 36.5369H17.2376Z" fill="#424241"/>
<path d="M17.7816 36.5369C17.7816 40.1087 19.2653 43.3513 21.6226 45.705C23.9964 48.0588 27.2604 49.5237 30.8377 49.5237C34.4314 49.5237 37.6954 48.0752 40.0527 45.7215C42.4101 43.3842 43.8772 40.1416 43.8772 36.5533V18.9742H17.7981L17.7816 36.5369Z" fill="#E52A18"/>
<path d="M17.7322 36.5369C17.7322 40.1251 19.2158 43.3677 21.5896 45.738C23.98 48.1082 27.2604 49.5731 30.8542 49.5731C34.4644 49.5731 37.7449 48.1082 40.1187 45.7544C42.4925 43.4007 43.9597 40.1416 43.9597 36.5533V18.9248H17.7487L17.7322 36.5369H17.8476L17.864 19.0401H43.8443V36.5533C43.8443 40.1087 42.3771 43.3513 40.0363 45.6721C37.6789 48.0259 34.4479 49.4579 30.8542 49.4579C27.2934 49.4579 24.0459 47.993 21.6885 45.6557C19.3312 43.3184 17.8476 40.0922 17.8476 36.5369H17.7322Z" fill="#424241"/>
<path d="M23.1227 35.7304C23.1227 38.0512 23.9964 40.1581 25.3977 41.6888C26.7989 43.2196 28.7276 44.1743 30.8542 44.1743C32.9807 44.1743 34.9094 43.2361 36.3107 41.7053C37.7119 40.1745 38.5691 38.0677 38.5691 35.7468V24.3237H23.1392L23.1227 35.7304Z" fill="white"/>
<path d="M23.0733 35.7304C23.0733 38.0677 23.947 40.191 25.3647 41.7218C26.7659 43.269 28.7276 44.2237 30.8542 44.2237C32.9972 44.2237 34.9424 43.269 36.3436 41.7382C37.7449 40.2074 38.6186 38.0841 38.6186 35.7468V24.2578H23.0733V35.7304H23.1887V24.373H38.5032V35.7468C38.5032 38.0512 37.6459 40.1416 36.2447 41.6724C34.86 43.1867 32.9477 44.1249 30.8377 44.1249C28.7441 44.1249 26.8154 43.1867 25.4306 41.6559C24.0294 40.1251 23.1722 38.0512 23.1722 35.7304H23.0733Z" fill="#424241"/>
<path d="M29.1397 34.5781L29.6343 35.8949L30.8377 36.4381L32.0411 35.8949L32.5356 34.5781V32.0598H29.1397V34.5781Z" fill="#0069B4"/>
<path d="M31.7752 32.6229L31.4373 32.9605L31.7754 33.2979L32.1133 32.9603L31.7752 32.6229Z" fill="white"/>
<path d="M30.8212 33.5247L30.475 33.8704L30.8212 34.1996L31.1674 33.8704L30.8212 33.5247Z" fill="white"/>
<path d="M31.7608 34.4794L31.4311 34.825L31.7608 35.1542L32.107 34.825L31.7608 34.4794Z" fill="white"/>
<path d="M29.9145 34.4794L29.5683 34.825L29.9145 35.1542L30.2607 34.825L29.9145 34.4794Z" fill="white"/>
<path d="M29.9145 32.6194L29.5683 32.9486L29.9145 33.2943L30.2442 32.9486L29.9145 32.6194Z" fill="white"/>
<path d="M24.3756 34.5781L24.8701 35.8949L26.0735 36.4381L27.2605 35.8949L27.7715 34.5781V32.0598H24.3756V34.5781Z" fill="#0069B4"/>
<path d="M27.0078 32.6135L26.6697 32.951L27.0076 33.2886L27.3458 32.9512L27.0078 32.6135Z" fill="white"/>
<path d="M26.0406 33.5247L25.6944 33.8704L26.0406 34.1996L26.3867 33.8704L26.0406 33.5247Z" fill="white"/>
<path d="M26.9967 34.4794L26.6505 34.825L26.9967 35.1542L27.3429 34.825L26.9967 34.4794Z" fill="white"/>
<path d="M25.1339 34.4794L24.7877 34.825L25.1339 35.1542L25.4801 34.825L25.1339 34.4794Z" fill="white"/>
<path d="M25.1339 32.6194L24.7877 32.9486L25.1339 33.2943L25.4801 32.9486L25.1339 32.6194Z" fill="white"/>
<path d="M33.9204 34.5781L34.4149 35.8949L35.6183 36.4381L36.8217 35.8949L37.3162 34.5781V32.0598H33.9204V34.5781Z" fill="#0069B4"/>
<path d="M36.5547 32.6188L36.2166 32.9563L36.5545 33.2939L36.8927 32.9564L36.5547 32.6188Z" fill="white"/>
<path d="M35.6018 33.5247L35.2556 33.8704L35.6018 34.1996L35.948 33.8704L35.6018 33.5247Z" fill="white"/>
<path d="M36.5415 34.4794L36.2117 34.825L36.5415 35.1542L36.8876 34.825L36.5415 34.4794Z" fill="white"/>
<path d="M34.6951 34.4794L34.349 34.825L34.6951 35.1542L35.0413 34.825L34.6951 34.4794Z" fill="white"/>
<path d="M34.6787 32.6194L34.349 32.9486L34.6787 33.2943L35.0248 32.9486L34.6787 32.6194Z" fill="white"/>
<path d="M29.1397 40.3226L29.6343 41.6394L30.8377 42.1826L32.0411 41.6394L32.5356 40.3226V37.8043H29.1397V40.3226Z" fill="#0069B4"/>
<path d="M31.7746 38.368L31.4367 38.7057L31.775 39.043L32.1128 38.7053L31.7746 38.368Z" fill="white"/>
<path d="M30.8212 39.2692L30.475 39.6149L30.8212 39.9605L31.1674 39.6149L30.8212 39.2692Z" fill="white"/>
<path d="M31.7608 40.2239L31.4311 40.5695L31.7608 40.8987L32.107 40.5695L31.7608 40.2239Z" fill="white"/>
<path d="M29.9145 40.2239L29.5683 40.5695L29.9145 40.9152L30.2607 40.5695L29.9145 40.2239Z" fill="white"/>
<path d="M29.9145 38.3639L29.5683 38.6931L29.9145 39.0388L30.2442 38.6931L29.9145 38.3639Z" fill="white"/>
<path d="M29.1397 28.8337L29.6343 30.134L30.8377 30.6936L32.0411 30.134L32.5356 28.8337V26.3153H29.1397V28.8337Z" fill="#0069B4"/>
<path d="M31.7759 26.8785L31.4381 27.2162L31.7763 27.5535L32.1142 27.2158L31.7759 26.8785Z" fill="white"/>
<path d="M30.8212 27.7802L30.475 28.1094L30.8212 28.455L31.1674 28.1094L30.8212 27.7802Z" fill="white"/>
<path d="M31.7608 28.7349L31.4311 29.0641L31.7608 29.4097L32.107 29.0641L31.7608 28.7349Z" fill="white"/>
<path d="M29.9145 28.7349L29.5683 29.0805L29.9145 29.4097L30.2607 29.0805L29.9145 28.7349Z" fill="white"/>
<path d="M29.9145 26.8749L29.5683 27.2041L29.9145 27.5498L30.2442 27.2041L29.9145 26.8749Z" fill="white"/>
<path d="M28.9584 23.5336H32.7334L32.5521 22.0851H29.1068L28.9584 23.5336Z" fill="#FFE143"/>
<path d="M28.9584 23.5335V23.5994H32.7334H32.7829L32.618 22.0686L32.6016 22.0192H29.1068H29.0573L28.8925 23.5335V23.5994H28.9584V23.5335L29.0078 23.55L29.1727 22.1345H32.5027L32.6675 23.4842H28.9584V23.5335L29.0078 23.55L28.9584 23.5335Z" fill="#424241"/>
<path d="M30.8212 22.2003L31.7773 23.5336H29.898L30.8212 22.2003Z" fill="#FFE143"/>
<path d="M30.7882 22.2332L31.6619 23.4842H30.0134L30.8707 22.2332L30.7717 22.1674L29.8486 23.5006L29.7991 23.5994H31.7773H31.8927L30.8707 22.1674L30.7882 22.2332Z" fill="#424241"/>
<path d="M30.8377 22.5131C30.8377 22.5131 31.3817 22.7764 31.3817 23.5336H30.3266C30.3102 22.7764 30.8377 22.5131 30.8377 22.5131Z" fill="#FFE143"/>
<path d="M30.8377 22.5131L30.8047 22.5625C30.8047 22.5625 31.3157 22.8093 31.3157 23.5336H31.3652V23.4842H30.3102V23.5336H30.3596C30.3596 22.8093 30.8542 22.5789 30.8542 22.5625L30.8377 22.5131L30.8047 22.5625L30.8377 22.5131L30.8047 22.4637C30.8047 22.4637 30.2607 22.7435 30.2607 23.5336V23.583H31.3817H31.4311V23.5336C31.4311 22.7435 30.8706 22.4637 30.8542 22.4637L30.8377 22.4472L30.8047 22.4637L30.8377 22.5131Z" fill="#424241"/>
<path d="M28.8925 23.5336H32.7994L32.9477 23.7146L32.7994 23.8792H28.8925L28.7276 23.7146L28.8925 23.5336Z" fill="#FFE143"/>
<path d="M28.8925 23.5336V23.5994H32.7829L32.8818 23.7146L32.7829 23.8298H28.9089L28.81 23.7146L28.9254 23.5665L28.8925 23.5336V23.5994V23.5336L28.843 23.5007L28.6946 23.6652L28.6617 23.7146L28.843 23.9121L28.8595 23.9286H32.7994H32.8324L32.9972 23.7475L33.0137 23.7146L32.8488 23.5007L32.8324 23.4842H28.8925H28.8595L28.843 23.5007L28.8925 23.5336Z" fill="#424241"/>
<path d="M39.3439 23.5336H43.1189L42.9541 22.0851H39.5087L39.3439 23.5336Z" fill="#FFE143"/>
<path d="M39.3439 23.5335V23.5994H43.1189H43.1849L43.0036 22.0851V22.0192H39.5087H39.4593L39.2944 23.5335L39.2779 23.5994H39.3439V23.5335L39.4098 23.55L39.5582 22.1345H42.9046L43.053 23.4842H39.3439V23.5335L39.4098 23.55L39.3439 23.5335Z" fill="#424241"/>
<path d="M41.2232 22.2003L42.1628 23.5336H40.3L41.2232 22.2003Z" fill="#FFE143"/>
<path d="M41.1737 22.2332L42.0639 23.4842H40.4154L41.2726 22.2332L41.1737 22.1674L40.2506 23.5006L40.1846 23.5994H42.1628H42.2782L41.2561 22.1674L41.1737 22.2332Z" fill="#424241"/>
<path d="M41.2232 22.5131C41.2232 22.5131 41.7672 22.7764 41.7672 23.5336H40.6957C40.6957 22.7764 41.2232 22.5131 41.2232 22.5131Z" fill="#FFE143"/>
<path d="M41.2232 22.5131L41.2067 22.5625C41.2067 22.5625 41.7177 22.8093 41.7177 23.5336H41.7672V23.4842H40.6957V23.5336H40.7451C40.7451 22.8093 41.2397 22.5789 41.2397 22.5625L41.2232 22.5131L41.2067 22.5625L41.2232 22.5131L41.1902 22.4637C41.1902 22.4637 40.6462 22.7435 40.6462 23.5336V23.583H41.7672H41.8331V23.5336C41.8331 22.7435 41.2726 22.4637 41.2561 22.4637L41.2397 22.4472L41.2067 22.4637L41.2232 22.5131Z" fill="#424241"/>
<path d="M39.278 23.5336H43.1849L43.3497 23.7146L43.1849 23.8792H39.278L39.1296 23.7146L39.278 23.5336Z" fill="#FFE143"/>
<path d="M39.278 23.5336V23.5994H43.1684L43.2673 23.7146L43.1684 23.8298H39.2944L39.1955 23.7146L39.3274 23.5665L39.278 23.5336V23.5994V23.5336L39.2285 23.5007L39.0801 23.6652L39.0472 23.7146L39.2285 23.9121L39.245 23.9286H43.1849H43.2178L43.3827 23.7475L43.4157 23.7146L43.2343 23.5007L43.2178 23.4842H39.278H39.245L39.2285 23.5007L39.278 23.5336Z" fill="#424241"/>
<path d="M39.3439 34.43H43.1189L42.9541 32.9815H39.5087L39.3439 34.43Z" fill="#FFE143"/>
<path d="M39.3439 34.43V34.4958H43.1189H43.1849L43.0036 32.9651V32.9157H39.5087H39.4593L39.2944 34.43L39.2779 34.4958H39.3439V34.43L39.4098 34.4465L39.5582 33.0309H42.9046L43.053 34.3806H39.3439V34.43L39.4098 34.4465L39.3439 34.43Z" fill="#424241"/>
<path d="M41.2232 33.0968L42.1628 34.43H40.3L41.2232 33.0968Z" fill="#FFE143"/>
<path d="M41.1737 33.1297L42.0639 34.3806H40.4154L41.2726 33.1297L41.1737 33.0638L40.2506 34.3971L40.1846 34.4958H42.1628H42.2782L41.2561 33.0638L41.1737 33.1297Z" fill="#424241"/>
<path d="M41.2232 33.4095C41.2232 33.4095 41.7672 33.6728 41.7672 34.43H40.6957C40.6957 33.6893 41.2232 33.4095 41.2232 33.4095Z" fill="#FFE143"/>
<path d="M41.2232 33.4095L41.2067 33.4589C41.2067 33.4589 41.7177 33.6893 41.7177 34.43H41.7672V34.3806H40.6957V34.43H40.7451C40.7451 33.7058 41.2397 33.4753 41.2397 33.4589L41.2232 33.4095L41.2067 33.4589L41.2232 33.4095L41.1902 33.3601C41.1902 33.3601 40.6462 33.6399 40.6462 34.43V34.4958H41.7672H41.8331V34.43C41.8331 33.6399 41.2726 33.3601 41.2561 33.3601L41.2397 33.3437L41.2067 33.3601L41.2232 33.4095Z" fill="#424241"/>
<path d="M39.3769 32.3396H43.1025L43.2343 32.4877L43.1025 32.6523H39.3769L39.2285 32.4877L39.3769 32.3396Z" fill="#FFE143"/>
<path d="M39.3769 32.3396V32.389H43.0695L43.1684 32.4877L43.0695 32.603H39.4098L39.3109 32.4877L39.4263 32.3725L39.3769 32.3396V32.389V32.3396L39.3439 32.2902L39.1955 32.4548L39.1626 32.4877L39.3439 32.6853V32.7182H43.1025H43.1189L43.2838 32.5207L43.3168 32.4877L43.1354 32.2902L43.1189 32.2738H39.3769H39.3439V32.2902L39.3769 32.3396Z" fill="#424241"/>
<path d="M39.278 34.43H43.1849L43.3497 34.6111L43.1849 34.7757H39.278L39.1296 34.6111L39.278 34.43Z" fill="#FFE143"/>
<path d="M39.278 34.43V34.4958H43.1684L43.2673 34.6111L43.1684 34.7098H39.2944L39.212 34.6111L39.3274 34.4794L39.278 34.43V34.4958V34.43L39.2285 34.3971L39.0801 34.5781L39.0472 34.6111L39.2285 34.8086L39.245 34.825H43.1849H43.2178L43.3827 34.644L43.4157 34.6111L43.2343 34.3971L43.2178 34.3806H39.278H39.245L39.2285 34.3971L39.278 34.43Z" fill="#424241"/>
<path d="M39.4593 32.6523H43.02L43.1519 32.8169L43.02 32.9651H39.4593L39.3274 32.8169L39.4593 32.6523Z" fill="#FFE143"/>
<path d="M39.4593 32.6523V32.7182H42.9871L43.0695 32.8169L42.9871 32.9157H39.4758L39.3934 32.8169L39.4923 32.6853L39.4593 32.6523V32.7182V32.6523L39.4098 32.6194L39.278 32.784L39.245 32.8169L39.4098 33.0145L39.4263 33.0309H43.02H43.053L43.1849 32.8499L43.2178 32.8169L43.0695 32.6194L43.053 32.603H39.4593H39.4263L39.4098 32.6194L39.4593 32.6523Z" fill="#424241"/>
<path d="M41.6847 30.8088L41.7507 32.3396L40.7616 32.3231L40.8275 30.8088H41.6847Z" fill="#FFE143"/>
<path d="M41.6353 30.8088L41.7012 32.2902L40.8111 32.2738L40.8935 30.8747H41.6848V30.7595H40.8275H40.7781L40.6957 32.3231V32.389H41.7507H41.8166L41.7507 30.8088H41.6353Z" fill="#424241"/>
<path d="M40.6462 30.2492H40.9265V30.4467H41.1243V30.2327H41.388V30.4467H41.6023V30.2327H41.8826V30.6936L41.7672 30.8088H40.7616L40.6462 30.6936V30.2492Z" fill="#FFE143"/>
<path d="M40.6462 30.2492V30.2986H40.8605V30.4467V30.4961H41.1243H41.1737V30.2986H41.3386V30.4467V30.4961H41.6023H41.6518V30.2986H41.8166V30.6772L41.7342 30.7595H40.7946L40.6957 30.6772V30.2492H40.6462V30.2986V30.2492H40.5803V30.6936V30.7101L40.7286 30.8582L40.7451 30.8747H41.7672H41.7836L41.932 30.743V30.7101V30.2327V30.1834H41.6023H41.5364V30.3809H41.454V30.2327V30.1834H41.1243H41.0583V30.3809H40.9759V30.2492V30.1834H40.6462H40.5803V30.2492H40.6462Z" fill="#424241"/>
<path d="M41.355 31.4508H41.1572V31.8129H41.355V31.4508Z" fill="#424241"/>
<path d="M41.8496 30.957H42.1298V31.1545H42.3277V30.957H42.6079V31.1545H42.8057V30.957H43.086V31.4178L42.9706 31.5331H41.9815L41.8496 31.4178V30.957Z" fill="#FFE143"/>
<path d="M41.8496 30.957V31.0228H42.0639V31.1545V31.2203H42.3277H42.3771V31.0228H42.542V31.1545V31.2203H42.8057H42.8552V31.0228H43.0365V31.4014L42.9541 31.4837H41.9815L41.8991 31.4014V30.957H41.8496V31.0228V30.957H41.7837V31.4178V31.4343L41.932 31.5824L42.9706 31.5989L43.1189 31.4672L43.1519 31.4343V30.957V30.9076H42.8057H42.7398V31.1051H42.6574V30.957V30.9076H42.3277H42.2782V31.1051H42.1793V30.957V30.9076H41.8496H41.7837V30.957H41.8496Z" fill="#424241"/>
<path d="M42.9211 31.5331L42.9376 32.3396H41.998L42.0309 31.5331H42.9211Z" fill="#FFE143"/>
<path d="M42.8552 31.5331L42.8881 32.2902H42.0474L42.0804 31.5989H42.9211V31.4837H42.0309H41.965L41.932 32.3396V32.4054H42.9376H43.0035L42.9706 31.5331H42.8552Z" fill="#424241"/>
<path d="M39.4098 30.957H39.6901V31.1545H39.9044V30.957H40.1681V31.1545H40.3659V30.957H40.6627V31.4178L40.5308 31.5331H39.5417L39.4098 31.4178V30.957Z" fill="#FFE143"/>
<path d="M39.4098 30.957V31.0228H39.6241V31.1545V31.2203H39.9044H39.9538V31.0228H40.1187V31.1545V31.2203H40.366H40.4319V31.0228H40.5967V31.4014L40.5143 31.4837H39.5417L39.4758 31.4014V30.957H39.4098V31.0228V30.957H39.3604V31.4178V31.4343L39.5087 31.5824L40.5308 31.5989L40.6957 31.4672L40.7121 31.4343V30.957V30.9076H40.366H40.3165V31.1051H40.2341V30.957V30.9076H39.9044H39.8384V31.1051H39.7395V30.957V30.9076H39.4098H39.3604V30.957H39.4098Z" fill="#424241"/>
<path d="M40.4814 31.5331L40.5143 32.3396H39.5582L39.5912 31.5331H40.4814Z" fill="#FFE143"/>
<path d="M40.4154 31.5331L40.4484 32.2902H39.6241L39.6571 31.5989H40.4813V31.4837H39.5912H39.5417L39.5087 32.3396V32.4054H40.5143H40.5638L40.5308 31.5331H40.4154Z" fill="#424241"/>
<path d="M42.5749 31.8787H42.3771V32.0927H42.5749V31.8787Z" fill="#424241"/>
<path d="M40.1352 31.8787H39.9374V32.0927H40.1352V31.8787Z" fill="#424241"/>
<path d="M36.1623 43.0385L38.8988 45.6227L39.789 44.4541L37.2833 42.1003L36.1623 43.0385Z" fill="#FFE143"/>
<path d="M36.1623 43.0385L36.1129 43.0879L38.8658 45.6721L38.9153 45.705L39.822 44.487L39.8549 44.4541L37.3163 42.0509L37.2833 42.018L36.1293 43.0056L36.0799 43.0385L36.1129 43.0879L36.1623 43.0385L36.1953 43.0879L37.2833 42.1661L39.7066 44.4705L38.8988 45.5404L36.1953 43.0056L36.1623 43.0385L36.1953 43.0879L36.1623 43.0385Z" fill="#424241"/>
<path d="M38.4372 43.3512L38.2064 44.9643L36.8547 43.6804L38.4372 43.3512Z" fill="#FFE143"/>
<path d="M38.3878 43.3512L38.1735 44.8491L36.9701 43.7298L38.4537 43.4171L38.4372 43.3019L36.8382 43.6311L36.7393 43.6475L38.1735 45.0137L38.2559 45.0795L38.5032 43.3677L38.3878 43.3512Z" fill="#424241"/>
<path d="M38.2229 43.5817L37.9262 44.6845L37.1514 43.9603L38.2229 43.5817Z" fill="#FFE143"/>
<path d="M38.2229 43.5817L38.1735 43.5652L37.8932 44.5857L37.2503 43.9932L38.2559 43.6311L38.2229 43.5817L38.1735 43.5652L38.2229 43.5817L38.2064 43.5323L37.1349 43.9109L37.036 43.9438L37.8767 44.7339L37.9427 44.7997L38.2889 43.5981L38.3218 43.4994L38.2064 43.5323L38.2229 43.5817Z" fill="#424241"/>
<path d="M37.6459 41.5242L40.333 44.0919V44.2895L40.1187 44.3224L37.4151 41.7546V41.5407L37.6459 41.5242Z" fill="#FFE143"/>
<path d="M37.6459 41.5242L37.5965 41.5736L40.2835 44.1084L40.2671 44.2401L40.1352 44.2565L37.4646 41.7382V41.59H37.6459V41.5242L37.5965 41.5736L37.6459 41.5242L37.6295 41.4748L37.4152 41.4913H37.3657L37.3492 41.7546V41.7875L40.0692 44.3553L40.0857 44.3718L40.333 44.3553H40.3825L40.3989 44.0919V44.0755L37.6789 41.4748H37.6624H37.6295L37.6459 41.5242Z" fill="#424241"/>
<path d="M36.1129 42.9891L38.9483 45.6885V45.9025L38.7175 45.9354L35.8821 43.236V43.0056L36.1129 42.9891Z" fill="#FFE143"/>
<path d="M36.1128 42.9891L36.0799 43.0385L38.8823 45.705V45.8532L38.734 45.8696L35.9315 43.2196L35.948 43.055H36.1128V42.9891L36.0799 43.0385L36.1128 42.9891V42.9398L35.8821 42.9562H35.8326L35.8161 43.236V43.2525L38.6845 45.9684L38.701 45.9848L38.9483 45.9684L38.9977 45.9519V45.6886V45.6556L36.1458 42.9398H36.1293H36.1128V42.9891Z" fill="#424241"/>
<path d="M37.4646 41.8205L40.0528 44.2565L40.0363 44.4705L39.8385 44.5034L37.2503 42.0509V41.8369L37.4646 41.8205Z" fill="#FFE143"/>
<path d="M37.4646 41.8205L37.4316 41.8699L40.0033 44.2895L39.9868 44.4211L39.8549 44.4376L37.2998 42.0345L37.3162 41.8863L37.4646 41.8699V41.8205L37.4316 41.8699L37.4646 41.8205V41.7546L37.2503 41.7876H37.2008L37.1844 42.0509V42.0674L39.789 44.5364L39.8055 44.5528L40.0527 44.5364L40.0857 44.5199L40.1187 44.273V44.2401L37.4976 41.7711L37.4811 41.7546H37.4646V41.8205Z" fill="#424241"/>
<path d="M40.3495 42.018L39.3439 43.1537L38.6515 42.4789L39.7395 41.4254L40.3495 42.018Z" fill="#FFE143"/>
<path d="M40.3165 41.9851L39.3439 43.0714L38.7175 42.4789L39.7395 41.5078L40.3165 42.0509L40.3989 41.9686L39.7725 41.3925L39.7395 41.3596L38.6021 42.4295L38.5526 42.4789L39.3109 43.2031L39.3439 43.236L40.3989 42.0509L40.3165 41.9851Z" fill="#424241"/>
<path d="M40.0033 40.8823L40.1846 41.0798L40.0528 41.2115L40.2011 41.3596L40.3495 41.195L40.5473 41.409L40.4154 41.5407L40.5473 41.6888L40.6957 41.5242L40.8935 41.7382L40.5803 42.0674H40.4154L39.6901 41.3925L39.6736 41.2115L40.0033 40.8823Z" fill="#FFE143"/>
<path d="M40.0033 40.8823L39.9538 40.9152L40.1187 41.0798L40.0198 41.1621L39.9703 41.2115L40.1681 41.3925L40.2011 41.4254L40.3495 41.2773L40.4649 41.409L40.366 41.5077L40.333 41.5407L40.5143 41.7217L40.5473 41.7546L40.6957 41.6065L40.8111 41.7382L40.5473 42.0015H40.4154L39.7395 41.3596V41.2279L40.0363 40.9152L40.0033 40.8823L39.9538 40.9152L40.0033 40.8823L39.9538 40.8329L39.6406 41.1621L39.6241 41.195V41.3925V41.409L40.366 42.1003L40.3824 42.1168H40.5803H40.5967L40.9429 41.7711L40.9759 41.7382L40.7451 41.4913L40.6957 41.4584L40.5473 41.6065L40.4814 41.5407L40.5803 41.4419L40.6297 41.409L40.3824 41.1621L40.3495 41.1127L40.2011 41.2608L40.1352 41.2115L40.2341 41.1127L40.2671 41.0798L40.0363 40.8329L40.0033 40.8L39.9538 40.8329L40.0033 40.8823Z" fill="#424241"/>
<path d="M39.5417 42.1168L39.6736 42.2485L39.4428 42.5118L39.2944 42.3637L39.5417 42.1168Z" fill="#424241"/>
<path d="M40.366 42.232L40.5803 42.4295L40.4319 42.5612L40.5803 42.7093L40.7121 42.5447L40.9264 42.7422L40.7946 42.8904L40.9264 43.0385L41.0748 42.8904L41.2726 43.0879L40.9594 43.4171H40.7946L40.0692 42.7422L40.0528 42.5612L40.366 42.232Z" fill="#FFE143"/>
<path d="M40.366 42.232L40.333 42.2814L40.4978 42.4295L40.3989 42.5283L40.3495 42.5612L40.5308 42.7422L40.5803 42.7752L40.7121 42.627L40.844 42.7422L40.7451 42.8575L40.7121 42.8904L40.8935 43.0879L40.9264 43.1208L41.0748 42.9727L41.2067 43.0879L40.9264 43.3677H40.811L40.1187 42.7093V42.5941L40.4154 42.2649L40.366 42.232L40.333 42.2814L40.366 42.232L40.333 42.1991L40.0198 42.5283L40.0033 42.5447L40.0198 42.7422V42.7752L40.7451 43.4665L40.7616 43.4829L40.9594 43.4665L41.3221 43.1208L41.355 43.0879L41.1078 42.841L41.0748 42.8081L40.9264 42.9562L40.8605 42.8904L40.9759 42.7752L41.0089 42.7422L40.7451 42.5118L40.7121 42.4789L40.5803 42.627L40.5143 42.5612L40.6132 42.4624L40.6462 42.413L40.4154 42.1991L40.366 42.1497L40.333 42.1991L40.366 42.232Z" fill="#424241"/>
<path d="M40.7451 43.3842L40.2176 43.9767L39.5417 43.3348L40.1022 42.7751L40.7451 43.3842Z" fill="#FFE143"/>
<path d="M40.6956 43.3512L40.2176 43.8944L39.6241 43.3348L40.1022 42.841L40.6956 43.4335L40.7946 43.3348L40.1352 42.7258L40.1022 42.6929L39.4923 43.2854L39.4593 43.3348L40.1846 44.0096L40.2176 44.059L40.7946 43.4171L40.6956 43.3512Z" fill="#424241"/>
<path d="M38.6021 40.5695L38.7999 40.7506L38.668 40.8987L38.8164 41.0304L38.9483 40.8823L39.1626 41.0798L39.0142 41.2279L39.1626 41.3596L39.3109 41.2115L39.5087 41.409L39.1955 41.7546H39.0142L38.3053 41.0633L38.2889 40.8987L38.6021 40.5695Z" fill="#FFE143"/>
<path d="M38.6021 40.5695L38.5691 40.6024L38.7175 40.7506L38.6351 40.8658L38.6021 40.9152L38.7834 41.0798L38.8164 41.1127L38.9483 40.9646L39.0801 41.0798L38.9812 41.195L38.9483 41.2279L39.1296 41.409L39.1626 41.4419L39.3109 41.2938L39.4263 41.409L39.1626 41.6888H39.0472L38.3713 41.0304L38.3548 40.9152L38.6515 40.6024L38.6021 40.5695L38.5691 40.6024L38.6021 40.5695L38.5691 40.5202L38.2559 40.8493L38.2394 40.8658L38.2559 41.0798L38.9812 41.7876L38.9977 41.804H39.1955H39.212L39.5582 41.4419L39.5912 41.409L39.3439 41.1785L39.3109 41.1292L39.1626 41.2938L39.0966 41.2279L39.212 41.1127L39.245 41.0798L38.9977 40.8493L38.9483 40.8L38.8164 40.9481L38.7504 40.8987L38.8494 40.7835L38.8823 40.7506L38.6515 40.5202L38.6021 40.4872L38.5691 40.5202L38.6021 40.5695Z" fill="#424241"/>
<path d="M38.9812 41.7053L38.4537 42.3143L37.7614 41.6559L38.3383 41.0963L38.9812 41.7053Z" fill="#FFE143"/>
<path d="M38.9483 41.6723L38.4537 42.2155L37.8438 41.6559L38.3383 41.1785L38.9483 41.7546L39.0307 41.6723L38.3713 41.0633L38.3383 41.0304L37.7284 41.6229L37.6954 41.6559L38.4207 42.3472L38.4537 42.3801L39.0307 41.7546L38.9483 41.6723Z" fill="#424241"/>
<path d="M40.1187 43.2525L40.2506 43.4006L40.1187 43.5488L39.9703 43.4171L40.1187 43.2525Z" fill="#424241"/>
<path d="M38.3548 41.5901L38.4867 41.7217L38.3548 41.8699L38.2064 41.7546L38.3548 41.5901Z" fill="#424241"/>
<path d="M25.6779 43.0385L22.9249 45.6227L22.0512 44.4541L24.5404 42.1003L25.6779 43.0385Z" fill="#FFE143"/>
<path d="M25.6779 43.0385L25.6284 43.0056L22.9414 45.5404L22.1336 44.4705L24.5404 42.1661L25.6284 43.0879L25.6779 43.0385L25.6284 43.0056L25.6779 43.0385L25.7109 43.0056L24.5899 42.0509L24.5404 42.018L22.0018 44.4047L21.9688 44.4541L22.892 45.6556L22.9249 45.705L25.7109 43.0879L25.7603 43.0385L25.7109 43.0056L25.6779 43.0385Z" fill="#424241"/>
<path d="M23.3865 43.3512L23.6173 44.9643L24.969 43.6804L23.3865 43.3512Z" fill="#FFE143"/>
<path d="M23.337 43.3677L23.5678 44.9808L23.5843 45.0795L25.002 43.7298L25.0844 43.6475L23.403 43.3019L23.37 43.4171L24.8537 43.7298L23.6667 44.8656L23.4524 43.3512L23.337 43.3677Z" fill="#424241"/>
<path d="M23.6008 43.5817L23.914 44.6845L24.6723 43.9603L23.6008 43.5817Z" fill="#FFE143"/>
<path d="M23.6008 43.5817L23.5349 43.5981L23.8646 44.701L23.881 44.7997L24.7053 44.0096L24.7877 43.9438L23.6173 43.5323L23.5184 43.4994L23.5349 43.5981L23.6008 43.5817L23.5843 43.6311L24.5734 43.9932L23.947 44.5857L23.6503 43.5652L23.6008 43.5817L23.5843 43.6311L23.6008 43.5817Z" fill="#424241"/>
<path d="M24.1943 41.5242L21.4907 44.0919L21.5072 44.2895L21.7215 44.3224L24.425 41.7546L24.4086 41.5407L24.1943 41.5242Z" fill="#FFE143"/>
<path d="M24.1943 41.5242L24.1613 41.4748L21.4578 44.0426L21.4413 44.0755V44.2895V44.3553L21.705 44.3718H21.738L24.458 41.804L24.4745 41.7875V41.5406V41.4913L24.2107 41.4748H24.1778H24.1613L24.1943 41.5242V41.59H24.3591V41.7382L21.6886 44.2565L21.5567 44.2401V44.1084L24.2437 41.5736L24.1943 41.5242V41.59V41.5242Z" fill="#424241"/>
<path d="M25.7274 42.9891L22.8755 45.6885L22.892 45.9025L23.1063 45.9354L25.9581 43.236L25.9417 43.0056L25.7274 42.9891Z" fill="#FFE143"/>
<path d="M25.7274 42.9891L25.6779 42.9398L22.8425 45.6392L22.826 45.6556V45.9025V45.9519L23.1063 45.9848H23.1227L25.9911 43.2854L26.0076 43.2525V43.0056L25.9911 42.9562L25.7274 42.9398H25.6944H25.6779L25.7274 42.9891L25.7109 43.055H25.8922V43.2196L23.0898 45.8696L22.9414 45.8532V45.705L25.7603 43.0385L25.7274 42.9891L25.7109 43.055L25.7274 42.9891Z" fill="#424241"/>
<path d="M24.3591 41.8205L21.771 44.2565L21.7875 44.4705L22.0018 44.5034L24.5899 42.0509L24.5734 41.8369L24.3591 41.8205Z" fill="#FFE143"/>
<path d="M24.3591 41.8205L24.3261 41.7711L21.738 44.2236L21.7215 44.2401V44.4705V44.5199L22.0018 44.5528H22.0182L24.6229 42.1003L24.6394 42.0674L24.6229 41.8369V41.7876L24.3756 41.7546H24.3426L24.3261 41.7711L24.3591 41.8205V41.8699L24.5075 41.8863L24.524 42.0345L21.9853 44.4376L21.8369 44.4211V44.2895L24.3921 41.8699L24.3591 41.8205V41.8699V41.8205Z" fill="#424241"/>
<path d="M21.4742 42.018L22.4798 43.1537L23.1887 42.4789L22.1007 41.4254L21.4742 42.018Z" fill="#FFE143"/>
<path d="M21.4248 42.0509L22.4304 43.1866L22.4633 43.236L23.2216 42.5283L23.2711 42.4789L22.1336 41.3925L22.1007 41.3596L21.4248 41.9686L21.5072 42.0509L22.1007 41.5078L23.1062 42.4789L22.4798 43.0714L21.5072 41.9851L21.4248 42.0509Z" fill="#424241"/>
<path d="M21.8369 40.8823L21.6391 41.0798L21.771 41.2115L21.6226 41.3596L21.4907 41.195L21.2764 41.409L21.4248 41.5407L21.2764 41.6888L21.1445 41.5242L20.9302 41.7382L21.2599 42.0674H21.4248L22.1336 41.3925L22.1501 41.2115L21.8369 40.8823Z" fill="#FFE143"/>
<path d="M21.8369 40.8823L21.7875 40.8329L21.6061 41.0304L21.5567 41.0798L21.6885 41.2115L21.6226 41.2608L21.5402 41.1621L21.4907 41.1292L21.2435 41.3596L21.2105 41.409L21.3424 41.5407L21.2764 41.6065L21.1775 41.4913L21.1445 41.4584L20.8973 41.6888L20.8643 41.7382L21.2105 42.1003L21.227 42.1168H21.4248H21.4413L22.1666 41.4254L22.1996 41.409V41.2115V41.195L21.8864 40.8329L21.8369 40.8L21.7875 40.8329L21.8369 40.8823L21.7875 40.9152L22.0842 41.2279V41.3596L21.4083 42.0015H21.2764L21.0127 41.7382L21.1445 41.6065L21.2435 41.7217L21.2764 41.7546L21.4578 41.59L21.5072 41.5407L21.3589 41.409L21.4907 41.2773L21.5896 41.3925L21.6226 41.4419L21.8204 41.2444L21.8534 41.2115L21.7215 41.0798L21.8864 40.9152L21.8369 40.8823L21.7875 40.9152L21.8369 40.8823Z" fill="#424241"/>
<path d="M22.2985 42.1168L22.1666 42.2485L22.3974 42.5118L22.5458 42.3637L22.2985 42.1168Z" fill="#424241"/>
<path d="M21.4578 42.232L21.2599 42.4295L21.3918 42.5612L21.2599 42.7093L21.1116 42.5447L20.9138 42.7422L21.0456 42.8904L20.8973 43.0385L20.7489 42.8904L20.5511 43.0879L20.8643 43.4171H21.0292L21.7545 42.7422L21.771 42.5612L21.4578 42.232Z" fill="#FFE143"/>
<path d="M21.4578 42.232L21.4083 42.1991L21.2105 42.3801L21.1775 42.4295L21.3259 42.5612L21.2599 42.627L21.1446 42.5118L21.1116 42.4789L20.8643 42.7093L20.8313 42.7422L20.9632 42.8904L20.8973 42.9562L20.7984 42.841L20.7489 42.8081L20.5181 43.0385L20.4687 43.0879L20.8313 43.45L20.8478 43.4665L21.0292 43.4829H21.0621L21.7875 42.7752H21.8204V42.5776V42.5447L21.4907 42.1991L21.4578 42.1497L21.4083 42.1991L21.4578 42.232L21.4083 42.2649L21.7215 42.5941L21.705 42.7093L21.0127 43.3677L20.8973 43.3512L20.6335 43.0879L20.7489 42.9727L20.8643 43.0714L20.8973 43.1208L21.0951 42.9398L21.1281 42.8904L20.9797 42.7422L21.1116 42.627L21.2105 42.7422L21.2599 42.7752L21.4248 42.6106L21.4742 42.5612L21.3424 42.4295L21.4907 42.2814L21.4578 42.232L21.4083 42.2649L21.4578 42.232Z" fill="#424241"/>
<path d="M21.0786 43.3842L21.6061 43.9767L22.2985 43.3348L21.7215 42.7751L21.0786 43.3842Z" fill="#FFE143"/>
<path d="M21.0292 43.4171L21.5567 44.0096L21.6061 44.059L22.3315 43.3677L22.3809 43.3348L21.771 42.7258L21.7215 42.6929L21.0292 43.3348L21.1281 43.4335L21.7215 42.841L22.2161 43.3348L21.6061 43.8944L21.1281 43.3512L21.0292 43.4171Z" fill="#424241"/>
<path d="M23.2217 40.5695L23.0238 40.7506L23.1557 40.8987L23.0073 41.0304L22.8755 40.8823L22.6776 41.0798L22.8095 41.2279L22.6612 41.3596L22.5128 41.2115L22.315 41.409L22.6282 41.7546H22.8095L23.5184 41.0633L23.5349 40.8987L23.2217 40.5695Z" fill="#FFE143"/>
<path d="M23.2217 40.5695L23.1887 40.5202L22.9909 40.7012L22.9414 40.7506L23.0733 40.8987L23.0073 40.9481L22.9249 40.8493L22.8755 40.8L22.6282 41.0304L22.5952 41.0798L22.7271 41.2279L22.6612 41.2938L22.5623 41.1785L22.5128 41.1292L22.282 41.3596L22.2326 41.409L22.5952 41.7876L22.6117 41.804H22.8095H22.826L23.5678 41.1127L23.5843 41.0962V40.8987V40.8658L23.2711 40.5202L23.2217 40.4872L23.1887 40.5202L23.2217 40.5695L23.1887 40.6024L23.4689 40.9152V41.0304L22.793 41.6888H22.6612L22.3974 41.409L22.5128 41.2938L22.6117 41.409L22.6612 41.4419L22.8425 41.2773L22.892 41.2279L22.7436 41.0798L22.8755 40.9646L22.9579 41.0633L23.0073 41.1127L23.1887 40.9481L23.2381 40.9152L23.1063 40.7506L23.2546 40.6024L23.2217 40.5695L23.1887 40.6024L23.2217 40.5695Z" fill="#424241"/>
<path d="M22.8425 41.7053L23.37 42.3143L24.0624 41.6559L23.4854 41.0963L22.8425 41.7053Z" fill="#FFE143"/>
<path d="M22.8095 41.7546L23.337 42.3472L23.37 42.3801L24.0954 41.7052L24.1448 41.6559L23.5349 41.0633L23.4854 41.0304L22.8095 41.6723L22.892 41.7546L23.4854 41.1785L23.98 41.6559L23.37 42.232L22.892 41.6723L22.8095 41.7546Z" fill="#424241"/>
<path d="M21.7215 43.2525L21.5732 43.4006L21.7215 43.5488L21.8534 43.4171L21.7215 43.2525Z" fill="#424241"/>
<path d="M23.4689 41.5901L23.337 41.7217L23.4854 41.8699L23.6338 41.7546L23.4689 41.5901Z" fill="#424241"/>
<path d="M18.5564 23.5336H22.3315L22.1666 22.0851H18.7213L18.5564 23.5336Z" fill="#FFE143"/>
<path d="M18.5564 23.5335V23.5994H22.3315H22.3974L22.2161 22.0686V22.0192H18.7213H18.6718L18.507 23.5335L18.4905 23.5994H18.5564V23.5335L18.6224 23.55L18.7707 22.1345H22.1172L22.2655 23.4842H18.5564V23.5335L18.6224 23.55L18.5564 23.5335Z" fill="#424241"/>
<path d="M20.4357 22.2003L21.3753 23.5336H19.5126L20.4357 22.2003Z" fill="#FFE143"/>
<path d="M20.3862 22.2332L21.2764 23.4842H19.6279L20.4851 22.2332L20.3862 22.1674L19.4631 23.5006L19.3971 23.5994H21.3753H21.4907L20.4687 22.1674L20.3862 22.2332Z" fill="#424241"/>
<path d="M20.4357 22.5131C20.4357 22.5131 20.9797 22.7764 20.9797 23.5336H19.9082C19.9082 22.7764 20.4357 22.5131 20.4357 22.5131Z" fill="#FFE143"/>
<path d="M20.4357 22.5131L20.4027 22.5625C20.4027 22.5625 20.9138 22.8093 20.9138 23.5336H20.9797V23.4842H19.9082V23.5336H19.9576C19.9576 22.8093 20.4522 22.5789 20.4522 22.5625L20.4357 22.5131L20.4027 22.5625L20.4357 22.5131L20.4027 22.4637C20.4027 22.4637 19.8422 22.7435 19.8422 23.5336V23.583H20.9632H21.0127V23.5336C21.0127 22.7435 20.4522 22.4637 20.4522 22.4637L20.4192 22.4472L20.3862 22.4637L20.4357 22.5131Z" fill="#424241"/>
<path d="M18.4905 23.5336H22.4139L22.5623 23.7146L22.4139 23.8792H18.4905L18.3421 23.7146L18.4905 23.5336Z" fill="#FFE143"/>
<path d="M18.4905 23.5336V23.5994H22.3809L22.4798 23.7146L22.3809 23.8298H18.507L18.4081 23.7146L18.5399 23.5665L18.4905 23.5336V23.5994V23.5336L18.441 23.5007L18.2927 23.6652L18.2597 23.7146L18.441 23.9121L18.4575 23.9286H22.4139H22.4469L22.6117 23.7475L22.6447 23.7146L22.4469 23.5007V23.4842H18.4905H18.4575L18.441 23.5007L18.4905 23.5336Z" fill="#424241"/>
<path d="M18.5564 34.43H22.3315L22.1666 32.9815H18.7213L18.5564 34.43Z" fill="#FFE143"/>
<path d="M18.5564 34.43V34.4958H22.3315H22.3974L22.2161 32.9651V32.9157H18.7213H18.6718L18.507 34.43L18.4905 34.4958H18.5564V34.43L18.6224 34.4465L18.7707 33.0309H22.1172L22.2655 34.3806H18.5564V34.43L18.6224 34.4465L18.5564 34.43Z" fill="#424241"/>
<path d="M20.4357 33.0968L21.3753 34.43H19.5126L20.4357 33.0968Z" fill="#FFE143"/>
<path d="M20.3862 33.1297L21.2764 34.3806H19.6279L20.4851 33.1297L20.3862 33.0638L19.4631 34.3971L19.3971 34.4958H21.3753H21.4907L20.4687 33.0638L20.3862 33.1297Z" fill="#424241"/>
<path d="M20.4357 33.4095C20.4357 33.4095 20.9797 33.6728 20.9797 34.43H19.9082C19.9082 33.6893 20.4357 33.4095 20.4357 33.4095Z" fill="#FFE143"/>
<path d="M20.4357 33.4095L20.4027 33.4589C20.4027 33.4589 20.9138 33.6893 20.9138 34.43H20.9797V34.3806H19.9082V34.43H19.9576C19.9576 33.7058 20.4522 33.4753 20.4522 33.4589L20.4357 33.4095L20.4027 33.4589L20.4357 33.4095L20.4027 33.3601C20.4027 33.3601 19.8422 33.6399 19.8422 34.43V34.4794H20.9632H21.0127V34.43C21.0127 33.6399 20.4522 33.3601 20.4357 33.3601L20.4192 33.3437L20.3862 33.3601L20.4357 33.4095Z" fill="#424241"/>
<path d="M18.5894 32.3396H22.315L22.4469 32.4877L22.315 32.6523H18.5894L18.441 32.4877L18.5894 32.3396Z" fill="#FFE143"/>
<path d="M18.5894 32.3396V32.389H22.282L22.3809 32.4877L22.282 32.603H18.6224L18.5234 32.4877L18.6388 32.3725L18.5894 32.3396V32.389V32.3396L18.5564 32.2902L18.408 32.4548L18.3751 32.4877L18.5564 32.6853V32.7182H22.315H22.3315L22.4963 32.5207L22.5293 32.4877L22.348 32.2902L22.3315 32.2738H18.5894H18.5564V32.2902L18.5894 32.3396Z" fill="#424241"/>
<path d="M18.4905 34.43H22.4139L22.5623 34.6111L22.4139 34.7757H18.4905L18.3421 34.6111L18.4905 34.43Z" fill="#FFE143"/>
<path d="M18.4905 34.43V34.4958H22.3809L22.4798 34.6111L22.3809 34.7098H18.507L18.4246 34.6111L18.5399 34.4794L18.4905 34.43V34.4958V34.43L18.441 34.3971L18.2927 34.5781L18.2597 34.6111L18.441 34.8086L18.4575 34.825H22.4139H22.4469L22.6117 34.644L22.6447 34.6111L22.4469 34.3971V34.3806H18.4905H18.4575L18.441 34.3971L18.4905 34.43Z" fill="#424241"/>
<path d="M18.6718 32.6523H22.2325L22.3644 32.8169L22.2325 32.9651H18.6718L18.5399 32.8169L18.6718 32.6523Z" fill="#FFE143"/>
<path d="M18.6718 32.6523V32.7182H22.1996L22.282 32.8169L22.1996 32.9157H18.7048L18.6059 32.8169L18.7213 32.6853L18.6718 32.6523V32.7182V32.6523L18.6224 32.6194L18.4905 32.784L18.4575 32.8169L18.6224 33.0145L18.6388 33.0309H22.2326H22.2655L22.4139 32.8499L22.4469 32.8169L22.282 32.6194L22.2655 32.603H18.6718H18.6388L18.6224 32.6194L18.6718 32.6523Z" fill="#424241"/>
<path d="M20.9138 30.8088L20.9632 32.3396L19.9741 32.3231L20.0401 30.8088H20.9138Z" fill="#FFE143"/>
<path d="M20.8478 30.8088L20.9138 32.2902L20.0236 32.2738L20.106 30.8747H20.9138V30.7595H20.0401H19.9906L19.9082 32.3231V32.389L20.9632 32.4054H21.0292L20.9632 30.8088H20.8478Z" fill="#424241"/>
<path d="M19.8587 30.2492H20.139V30.4467H20.3368V30.2327H20.617V30.4467H20.8149V30.2327H21.0951V30.6936L20.9797 30.8088H19.9906L19.8587 30.6936V30.2492Z" fill="#FFE143"/>
<path d="M19.8587 30.2492V30.2986H20.073V30.4467V30.4961H20.3368H20.3862V30.2986H20.5511V30.4467V30.4961H20.8149H20.8643V30.2986H21.0292V30.6772L20.9467 30.7595H20.0071L19.9082 30.6607V30.2492H19.8587V30.2986V30.2492H19.7928V30.6936V30.7101L19.9576 30.8582V30.8747H20.9797H20.9962L21.1445 30.743V30.7101V30.2327V30.1834H20.8149H20.7489V30.3809H20.6665V30.2327V30.1834H20.3368H20.2708V30.3809H20.1884V30.2492V30.1834H19.8587H19.7928V30.2492H19.8587Z" fill="#424241"/>
<path d="M20.5676 31.4508H20.3698V31.8129H20.5676V31.4508Z" fill="#424241"/>
<path d="M21.0621 30.957H21.3424V31.1545H21.5402V30.957H21.8204V31.1545H22.0183V30.957H22.2985V31.4178L22.1831 31.5331H21.194L21.0621 31.4178V30.957Z" fill="#FFE143"/>
<path d="M21.0621 30.957V31.0228H21.2764V31.1545V31.2203H21.5402H21.6061V31.0228H21.771V31.1545V31.2203H22.0183H22.0842V31.0228H22.249V31.4014L22.1666 31.4837H21.194L21.1116 31.4014V30.957H21.0621V31.0228V30.957H20.9962V31.4178V31.4343L21.1446 31.5824L22.1831 31.5989H22.1996L22.3315 31.4672L22.3644 31.4343V30.957V30.9076H22.0183H21.9688V31.1051H21.8864V30.957V30.9076H21.5402H21.4907V31.1051H21.3918V30.957V30.9076H21.0621H20.9962V30.957H21.0621Z" fill="#424241"/>
<path d="M22.1172 31.5331L22.1666 32.3396H21.2105L21.2435 31.5331H22.1172Z" fill="#FFE143"/>
<path d="M22.0677 31.5331L22.1007 32.2902H21.26L21.2929 31.5989H22.1172V31.4837H21.2435H21.1775L21.1446 32.3396V32.4054H22.1666H22.2161L22.1831 31.5331H22.0677Z" fill="#424241"/>
<path d="M18.6388 30.957H18.9026V31.1545H19.1169V30.957H19.3971V31.1545H19.595V30.957H19.8752V31.4178L19.7433 31.5331H18.7542L18.6388 31.4178V30.957Z" fill="#FFE143"/>
<path d="M18.6388 30.957V31.0228H18.8532V31.1545V31.2203H19.1169H19.1664V31.0228H19.3312V31.1545V31.2203H19.595H19.6444V31.0228H19.8093V31.4014L19.7269 31.4837H18.7707L18.6883 31.4014V30.957H18.6388V31.0228V30.957H18.5729V31.4178V31.4343L18.7213 31.5824L18.7378 31.5989H19.7433H19.7763L19.9082 31.4672L19.9247 31.4343V30.957V30.9076H19.595H19.529V31.1051H19.4466V30.957V30.9076H19.1169H19.051V31.1051H18.9685V30.957V30.9076H18.6388H18.5729V30.957H18.6388Z" fill="#424241"/>
<path d="M19.6939 31.5331L19.7269 32.3396H18.7707L18.8037 31.5331H19.6939Z" fill="#FFE143"/>
<path d="M19.6279 31.5331L19.6774 32.2902H18.8367L18.8696 31.5989H19.6939V31.4837H18.8037H18.7542L18.7213 32.3396V32.4054H19.7268H19.7928L19.7433 31.5331H19.6279Z" fill="#424241"/>
<path d="M21.7875 31.8787H21.5896V32.0927H21.7875V31.8787Z" fill="#424241"/>
<path d="M19.3477 31.8787H19.1499V32.0927H19.3477V31.8787Z" fill="#424241"/>
</svg>
