<svg width="65" height="65" viewBox="0 0 65 65" fill="none" xmlns="http://www.w3.org/2000/svg">
<g clip-path="url(#clip0)">
<path d="M0.954305 24.6894C5.26679 7.27491 22.8953 -3.35816 40.3099 0.95432C57.7409 5.2668 68.3575 22.8789 64.045 40.3098C59.7325 57.7244 42.1204 68.3575 24.6894 64.045C7.2749 59.7325 -3.35818 42.1204 0.954305 24.6894Z" fill="#E73138"/>
<path d="M1.89288 21.5789H63.1071C59.5682 11.6865 51.2889 3.67055 40.3102 0.954677C23.9491 -3.09445 7.4234 6.02432 1.89288 21.5789Z" fill="white"/>
<path d="M64.3087 39.1909C64.3251 39.1251 64.3416 39.0593 64.3581 38.977C64.3745 38.8617 64.4074 38.7301 64.4239 38.6148C64.4404 38.549 64.4568 38.4667 64.4568 38.4009C64.4733 38.2692 64.5062 38.154 64.5227 38.0223C64.5391 37.9564 64.5391 37.8906 64.5556 37.8412C64.5885 37.6931 64.605 37.5285 64.6379 37.3804C64.6379 37.3474 64.6543 37.3145 64.6543 37.2816C64.6873 37.1005 64.7037 36.903 64.7366 36.722C64.7366 36.6726 64.7531 36.6232 64.7531 36.5738C64.7696 36.4421 64.786 36.294 64.8025 36.1623C64.8025 36.0965 64.8189 36.0306 64.8189 35.9648C64.8354 35.8496 64.8519 35.7179 64.8519 35.6027C64.8519 35.5368 64.8683 35.471 64.8683 35.4052C64.8848 35.2735 64.8848 35.1583 64.9012 35.0266C64.9012 34.9608 64.9177 34.8949 64.9177 34.8291C64.9342 34.6809 64.9342 34.5493 64.9506 34.4011C64.9506 34.3517 64.9506 34.3188 64.9671 34.2694C64.9835 34.0884 64.9835 33.8909 65 33.7098C65 33.6769 65 33.644 65 33.611C65 33.4629 65.0165 33.2983 65.0165 33.1502C65.0165 33.0843 65.0165 33.0349 65.0165 32.9691C65.0165 32.8374 65.0165 32.7057 65.0165 32.5905C65.0165 32.5247 65.0165 32.4589 65.0165 32.393C65.0165 32.2613 65.0165 32.1461 65.0165 32.0144C65.0165 31.9486 65.0165 31.8828 65.0165 31.8334C65.0165 31.7017 65.0165 31.5536 65 31.4219C65 31.3725 65 31.3231 65 31.2737C64.9835 30.8952 64.9671 30.533 64.9342 30.1545C64.9342 30.1051 64.9342 30.0557 64.9177 30.0063C64.9012 29.8747 64.9012 29.743 64.8848 29.5948C64.8848 29.529 64.8683 29.4796 64.8683 29.4138C64.8519 29.2821 64.8354 29.1669 64.8354 29.0352C64.8354 28.9694 64.8189 28.92 64.8189 28.8541C64.8025 28.7225 64.786 28.5908 64.7696 28.4426C64.7696 28.3933 64.7531 28.3439 64.7531 28.2945C64.7037 27.9324 64.6543 27.5538 64.5885 27.1917C64.5885 27.1588 64.572 27.1259 64.572 27.0929C64.5556 26.9448 64.5227 26.7967 64.4897 26.6485C64.4733 26.5991 64.4733 26.5498 64.4568 26.5004C64.4404 26.3687 64.4074 26.237 64.3745 26.1053C64.3581 26.056 64.3581 26.0066 64.3416 25.9407C64.3087 25.8091 64.2922 25.6774 64.2593 25.5292C64.2428 25.4799 64.2428 25.4469 64.2264 25.3976C64.1935 25.233 64.1441 25.0684 64.1112 24.9038L64.0947 24.8709C64.0453 24.7063 64.0124 24.5252 63.963 24.3606C63.7161 23.4059 63.4363 22.4677 63.1071 21.546H1.89287C1.53075 22.55 1.21802 23.587 0.95466 24.6569C-0.131691 29.0187 -0.26337 33.3971 0.395024 37.5614C0.395024 37.5779 0.395024 37.5943 0.411484 37.6108C0.444404 37.7589 0.460864 37.9235 0.493784 38.0717C0.493784 38.1046 0.510243 38.1375 0.510243 38.1704C0.543163 38.3186 0.559623 38.4502 0.592543 38.5984C0.592543 38.6478 0.609003 38.6807 0.625462 38.7301C0.658382 38.8617 0.674842 38.9934 0.707762 39.1251C0.724222 39.1745 0.724222 39.2239 0.740682 39.2732C0.773601 39.4049 0.790061 39.5201 0.822981 39.6518C0.839441 39.7176 0.855901 39.767 0.87236 39.8329C0.90528 39.9481 0.92174 40.0633 0.95466 40.195C0.97112 40.2773 1.00404 40.376 1.0205 40.4583C1.05342 40.59 1.08634 40.7217 1.11926 40.8534C1.15218 40.9851 1.1851 41.1167 1.23448 41.2484C1.25094 41.3143 1.2674 41.3636 1.28386 41.413C1.31678 41.5447 1.3497 41.6599 1.39908 41.7916C1.41554 41.8574 1.432 41.9068 1.44846 41.9727C1.48138 42.0879 1.53075 42.2196 1.56367 42.3348C1.58013 42.3842 1.59659 42.45 1.61305 42.4994C1.64597 42.6146 1.69535 42.7463 1.72827 42.8615C1.74473 42.9109 1.76119 42.9767 1.77765 43.0261C1.82703 43.1578 1.85995 43.273 1.90933 43.4047C1.92579 43.4376 1.92579 43.4705 1.94225 43.487C1.97517 43.5693 1.99163 43.6351 2.02455 43.7174H62.9919C63.0248 43.6351 63.0413 43.5693 63.0742 43.487C63.14 43.2894 63.2059 43.1084 63.2717 42.9109C63.2717 42.8944 63.2882 42.8779 63.2882 42.8615C63.3705 42.6146 63.4528 42.3512 63.5351 42.1043C63.5515 42.0714 63.5515 42.0385 63.568 42.0056C63.6338 41.7751 63.7161 41.5282 63.782 41.2813C63.7984 41.232 63.8149 41.1826 63.8313 41.1332C63.9136 40.8534 63.9795 40.5571 64.0618 40.2773C64.1112 40.0962 64.1605 39.8987 64.1935 39.7177C64.2099 39.6518 64.2264 39.6024 64.2264 39.5366C64.2428 39.4378 64.2758 39.3062 64.3087 39.1909Z" fill="#00528F"/>
</g>
<defs>
<clipPath id="clip0">
<rect width="65" height="65" fill="white"/>
</clipPath>
</defs>
</svg>
