<svg width="65" height="65" viewBox="0 0 65 65" fill="none" xmlns="http://www.w3.org/2000/svg">
<g clip-path="url(#clip0)">
<path d="M0.954107 24.6893C5.26659 7.27479 22.8951 -3.35829 40.3097 0.954198C57.7407 5.26668 68.3573 22.8787 64.0448 40.3097C59.7323 57.7243 42.1202 68.3573 24.6892 64.0448C7.2747 59.7324 -3.35838 42.1203 0.954107 24.6893Z" fill="#E52A18"/>
<path d="M1.89282 21.5789H63.1071C59.5682 11.6865 51.2889 3.67055 40.3101 0.954677C23.949 -3.09445 7.42334 6.02432 1.89282 21.5789Z" fill="#E52A18"/>
<path d="M64.3086 39.1909C64.3251 39.1251 64.3416 39.0593 64.358 38.977C64.3745 38.8617 64.4074 38.7301 64.4239 38.6148C64.4403 38.549 64.4568 38.4667 64.4568 38.4009C64.4732 38.2692 64.5062 38.154 64.5226 38.0223C64.5391 37.9564 64.5391 37.8906 64.5555 37.8412C64.5885 37.6931 64.6049 37.5285 64.6378 37.3804C64.6378 37.3474 64.6543 37.3145 64.6543 37.2816C64.6872 37.1005 64.7037 36.903 64.7366 36.722C64.7366 36.6726 64.7531 36.6232 64.7531 36.5738C64.7695 36.4421 64.786 36.294 64.8024 36.1623C64.8024 36.0965 64.8189 36.0306 64.8189 35.9648C64.8354 35.8331 64.8518 35.7179 64.8518 35.6027C64.8518 35.5368 64.8683 35.471 64.8683 35.4052C64.8847 35.2735 64.8847 35.1583 64.9012 35.0266C64.9012 34.9608 64.9177 34.8949 64.9177 34.8291C64.9341 34.6809 64.9341 34.5493 64.9506 34.4011C64.9506 34.3517 64.9506 34.3188 64.967 34.2694C64.9835 34.0884 64.9835 33.8909 65 33.7098C65 33.6769 65 33.644 65 33.611C65 33.4629 65.0164 33.2983 65.0164 33.1502C65.0164 33.0843 65.0164 33.0349 65.0164 32.9691C65.0164 32.8374 65.0164 32.7057 65.0164 32.5905C65.0164 32.5247 65.0164 32.4589 65.0164 32.393C65.0164 32.2613 65.0164 32.1461 65.0164 32.0144C65.0164 31.9486 65.0164 31.8828 65.0164 31.8334C65.0164 31.7017 65.0164 31.5536 65 31.4219C65 31.3725 65 31.3231 65 31.2737C64.9835 30.8952 64.967 30.533 64.9341 30.1545C64.9341 30.1051 64.9341 30.0557 64.9177 30.0063C64.9012 29.8747 64.9012 29.743 64.8847 29.5948C64.8847 29.529 64.8683 29.4796 64.8683 29.4138C64.8518 29.2821 64.8354 29.1669 64.8354 29.0352C64.8354 28.9694 64.8189 28.92 64.8189 28.8541C64.8024 28.7225 64.786 28.5908 64.7695 28.4426C64.7695 28.3933 64.7531 28.3439 64.7531 28.2945C64.7037 27.9324 64.6543 27.5538 64.5885 27.1917C64.5885 27.1588 64.572 27.1259 64.572 27.0929C64.5555 26.9448 64.5226 26.7967 64.4897 26.6485C64.4732 26.5991 64.4732 26.5498 64.4568 26.5004C64.4403 26.3687 64.4074 26.237 64.3745 26.1053C64.358 26.056 64.358 26.0066 64.3416 25.9407C64.3086 25.8091 64.2922 25.6774 64.2593 25.5292C64.2428 25.4799 64.2428 25.4469 64.2263 25.3976C64.1934 25.233 64.144 25.0684 64.1111 24.9038L64.0947 24.8709C64.0453 24.7063 64.0124 24.5252 63.963 24.3606C63.7161 23.4059 63.4363 22.4677 63.1071 21.546H1.89284C1.53072 22.55 1.21799 23.587 0.954629 24.6569C-0.131722 29.0187 -0.263401 33.3971 0.394994 37.5614C0.394994 37.5779 0.394994 37.5943 0.411454 37.6108C0.427914 37.7589 0.460833 37.9235 0.493753 38.0717C0.493753 38.1046 0.510213 38.1375 0.510213 38.1704C0.543133 38.3186 0.559592 38.4502 0.592512 38.5984C0.592512 38.6478 0.608972 38.6807 0.625432 38.7301C0.658352 38.8617 0.674812 38.9934 0.707731 39.1251C0.724191 39.1745 0.724191 39.2239 0.740651 39.2732C0.773571 39.4049 0.790031 39.5201 0.82295 39.6518C0.83941 39.7177 0.85587 39.767 0.87233 39.8329C0.90525 39.9481 0.921709 40.0633 0.954629 40.195C0.971089 40.2773 1.00401 40.376 1.02047 40.4583C1.05339 40.59 1.08631 40.7217 1.11923 40.8534C1.15215 40.9851 1.18507 41.1167 1.23445 41.2484C1.25091 41.3143 1.26737 41.3636 1.28383 41.413C1.31675 41.5447 1.34967 41.6599 1.39905 41.7916C1.41551 41.8574 1.43197 41.9068 1.44843 41.9727C1.48134 42.0879 1.53072 42.2196 1.56364 42.3348C1.5801 42.3842 1.59656 42.45 1.61302 42.4994C1.64594 42.6146 1.69532 42.7463 1.72824 42.8615C1.7447 42.9109 1.76116 42.9767 1.77762 43.0261C1.827 43.1578 1.85992 43.273 1.9093 43.4047C1.92576 43.4376 1.92576 43.4705 1.94222 43.487C1.97514 43.5693 1.9916 43.6351 2.02452 43.7174H62.9919C63.0248 43.6351 63.0412 43.5693 63.0742 43.487C63.14 43.2894 63.2058 43.1084 63.2717 42.9109C63.2717 42.8944 63.2881 42.8779 63.2881 42.8615C63.3704 42.6146 63.4527 42.3512 63.535 42.1043C63.5515 42.0714 63.5515 42.0385 63.568 42.0056C63.6338 41.7751 63.7161 41.5282 63.7819 41.2813C63.7984 41.232 63.8148 41.1826 63.8313 41.1332C63.9136 40.8534 63.9794 40.5571 64.0617 40.2773C64.1111 40.0962 64.1605 39.8987 64.1934 39.7177C64.2099 39.6518 64.2263 39.6024 64.2263 39.5366C64.2428 39.4378 64.2757 39.3062 64.3086 39.1909Z" fill="#FFD300"/>
</g>
<defs>
<clipPath id="clip0">
<rect width="65" height="65" fill="white"/>
</clipPath>
</defs>
</svg>
