<svg width="66" height="66" viewBox="0 0 66 66" fill="none" xmlns="http://www.w3.org/2000/svg">
<mask id="mask0" mask-type="alpha" maskUnits="userSpaceOnUse" x="0" y="0" width="66" height="66">
<path d="M0.959356 24.6945C5.27184 7.27994 22.9004 -3.35313 40.3149 0.959355C57.7459 5.27184 68.3625 22.8839 64.05 40.3149C59.7375 57.7294 42.1255 68.3625 24.6945 64.05C7.27995 59.7375 -3.35313 42.1255 0.959356 24.6945Z" fill="#E73138"/>
</mask>
<g mask="url(#mask0)">
<path d="M32.489 0C21.5276 0 11.8402 5.42582 5.95303 13.7513H59.047C53.1599 5.42582 43.4505 0 32.489 0Z" fill="#D1242D"/>
<path d="M59.047 13.7513H5.95303C4.26158 16.1237 2.89964 18.7597 1.88916 21.5495H63.0889C62.1004 18.7597 60.7165 16.1237 59.047 13.7513Z" fill="white"/>
<path d="M63.0889 21.5495H1.88915C0.659007 24.9763 0 28.6448 0 32.489C0 36.465 0.724907 40.2653 2.02095 43.78H62.979C64.2751 40.2653 65 36.465 65 32.489C65 28.6448 64.319 24.9763 63.0889 21.5495Z" fill="#195ADD"/>
<path d="M5.90909 51.1828C11.7962 59.5302 21.5056 65 32.489 65C43.4725 65 53.1818 59.5522 59.0689 51.1828H58.9811H5.90909Z" fill="#D1242D"/>
<path d="M2.02097 43.802C3.00948 46.438 4.30552 48.9202 5.9091 51.1828H58.9811H59.069C60.6725 48.9202 61.9905 46.438 62.9571 43.802H2.02097Z" fill="white"/>
</g>
</svg>
