<svg width="65" height="65" viewBox="0 0 65 65" fill="none" xmlns="http://www.w3.org/2000/svg">
<g clip-path="url(#clip0)">
<path d="M0.95429 24.6894C5.26678 7.27488 22.8953 -3.3582 40.3098 0.954289C57.7408 5.26677 68.3575 22.8788 64.045 40.3098C59.7325 57.7244 42.1204 68.3574 24.6894 64.045C7.27488 59.7325 -3.3582 42.1204 0.95429 24.6894Z" fill="#E52A18"/>
<path d="M29.1504 45.5444C21.5953 45.5444 15.4558 39.4213 15.4558 31.8498C15.4558 24.2947 21.5788 18.1717 29.1504 18.1717C32.9197 18.1717 36.3433 19.7024 38.8123 22.1549C35.7508 17.7766 30.6647 14.9126 24.9202 14.9126C15.5545 14.9126 7.96652 22.5006 7.96652 31.8663C7.96652 41.2319 15.5545 48.8035 24.9202 48.8035C30.6647 48.8035 35.7508 45.9394 38.8123 41.5611C36.3269 44.0136 32.9197 45.5444 29.1504 45.5444Z" fill="white"/>
<path d="M45.5609 24.5746L48.7212 29.1504L54.0378 27.5373L50.68 31.965L53.8403 36.5244L48.5896 34.6974L45.2317 39.1086L45.3634 33.5616L40.1127 31.7181L45.4293 30.138L45.5609 24.5746Z" fill="white"/>
</g>
<defs>
<clipPath id="clip0">
<rect width="65" height="65" fill="white"/>
</clipPath>
</defs>
</svg>
