<svg width="389" height="522" viewBox="0 0 389 522" fill="none" xmlns="http://www.w3.org/2000/svg">
<path d="M132 376C145.5 351 140.5 330.5 139.5 315C180.833 270.667 262.6 192.6 259 235C254.5 288 244 348.5 278.5 399.5C306.1 440.3 336.667 461.833 348.5 467.5H0.5C11 429 57.5 418 69 414.5C80.5 411 118.5 401 132 376Z" fill="white"/>
<mask id="mask0" mask-type="alpha" maskUnits="userSpaceOnUse" x="1" y="222" width="348" height="244">
<path d="M132.5 374.769C146 349.842 141 329.402 140 313.948C181.333 269.745 263.1 191.907 259.5 234.183C255 287.027 244.5 347.35 279 398.2C306.6 438.88 337.167 460.35 349 466H1C26 427.115 58 416.645 69.5 413.156C81 409.666 119 399.695 132.5 374.769Z" fill="white"/>
</mask>
<g mask="url(#mask0)">
<path d="M107 398C117.322 409.428 177.381 467.604 246.901 470.13C249.61 470.144 252.309 470.156 254.993 470.168C277.295 469.557 300.394 462.929 323 447C358.5 464 372.5 466 387 469C393.677 470.381 329.664 470.504 254.993 470.168C252.283 470.243 249.585 470.228 246.901 470.13C194.044 469.873 137.006 469.404 96.5 469C96.5 454 93.7 434 78.5 410C89.5 407 100 402.5 107 398Z" fill="black"/>
<path d="M201 340C184.5 324.5 150.5 326 139 324.5C179 289.5 259.4 225.2 261 248C262.6 270.8 353.667 411.167 399 478.5C361.833 481.167 284.3 484.9 271.5 478.5C255.5 470.5 237 452 226 401.5C218.267 366 219 356.909 201 340Z" fill="#A4A4A4" style="mix-blend-mode:multiply"/>
</g>
<path d="M147.717 113.067C134.087 108.666 124.317 88.7251 126.5 80.1682L146.022 82.5266C146.211 82.516 146.39 82.5374 146.557 82.5913L146.022 82.5266C142.461 82.7269 135.627 94.3201 147.717 113.067Z" fill="black"/>
<path d="M87.4574 154.26C85.0985 148.05 89.7714 142.016 92.527 138.195C95.2826 134.374 87.618 114.081 87.0373 108.289C86.0997 98.9025 90.4245 85.0471 100.065 80.9489C112.526 75.6682 117.356 54.9197 122.079 48.9875C129.966 39.151 148.131 37.8239 154.596 38.3757C161.063 38.8778 174.537 41.2461 180.811 37.3144C187.034 33.3807 203.202 29.0907 214.561 36.8965C219.306 40.166 225.408 44.8314 232.543 41.2816C234.545 40.2659 269.671 36.2715 273.186 54.4128C264.506 44.6232 247.923 53.0745 271.034 55.2237C280.299 56.0842 296.651 56.7748 301.259 73.3675C302.569 78.0441 319.67 79.8583 317.919 95.5552C316.693 106.498 340.134 117.762 334.828 136.154C333.327 141.317 325.402 153.888 334.146 166.316C337.643 171.327 340.319 191.176 325.243 204.759C321.061 208.524 317.574 220.821 317.69 226.992C318.022 243.169 307.767 251.072 296.132 255.59C290.904 257.623 285.543 261.889 282.849 268.547C272.031 272.997 268.351 277.279 257.999 274.038C225.629 281.423 111.182 170.657 87.4574 154.26Z" fill="black"/>
<path d="M295.184 259.093C295.184 259.093 295.648 259.011 296.472 258.843C297.296 258.675 298.43 258.419 299.772 257.97C300.856 257.612 302.044 257.207 303.028 256.645C303.39 256.459 303.804 256.224 304.166 256.038C305.669 255.145 307.226 254.053 308.478 252.649C309.731 251.245 310.73 249.631 311.472 248.006C312.215 246.332 312.65 244.645 312.98 243.105C313.589 240.022 313.676 237.52 313.74 236.621C313.92 234.774 314.382 231.184 314.889 228.047C315.168 226.455 315.497 225.015 315.82 223.975C315.981 223.48 316.09 223.033 316.247 222.789C316.354 222.493 316.408 222.344 316.408 222.344C316.408 222.344 316.406 222.495 316.35 222.793C316.294 223.092 316.288 223.542 316.281 224.043C316.215 225.093 316.246 226.547 316.326 228.154C316.486 231.317 316.743 234.985 316.561 236.932C316.443 237.979 316.201 240.575 315.281 243.846C314.796 245.481 314.154 247.26 313.154 248.974C312.205 250.691 310.949 252.345 309.44 253.689C307.931 255.033 306.221 256.068 304.567 256.805C304.153 256.99 303.739 257.174 303.326 257.308C302.191 257.664 301.056 258.021 299.87 258.325C298.479 258.621 297.294 258.825 296.523 258.895C295.648 259.011 295.184 259.093 295.184 259.093Z" fill="black"/>
<path d="M303.065 73.0096C303.065 73.0096 304.178 73.7518 305.898 74.9169C307.619 76.082 309.895 77.7179 312.015 79.5472C314.185 81.4284 316.147 83.5509 317.5 85.4001C318.904 87.3011 319.699 88.8789 319.998 89.4394C320.547 90.359 321.044 91.3264 321.541 92.2938C322.137 93.4647 322.631 94.6815 323.022 95.9441C323.365 96.9553 323.555 97.9606 323.797 98.9679C323.75 98.6667 323.806 98.2698 323.811 97.9706C323.82 97.3224 323.83 96.6243 323.737 95.9721C323.691 95.5712 323.698 95.1224 323.601 94.7195C323.413 93.5647 323.176 92.3081 322.833 91.2469C322.688 90.6924 322.439 90.1838 322.292 89.729C322.095 89.2722 321.896 88.8653 321.747 88.5601C321.348 87.8959 320.35 86.2103 318.69 84.3492C317.082 82.49 314.812 80.4552 312.485 78.7674C310.159 77.0797 307.779 75.6392 305.953 74.6696C304.23 73.6541 303.065 73.0096 303.065 73.0096Z" fill="black"/>
<path d="M112.132 68.3333C112.428 65.5044 112.772 62.777 113.678 60.1215C114.158 58.5955 114.844 57.0278 115.682 55.5158C116.992 53.1253 118.707 50.9501 120.673 49.0837C122.38 47.4563 124.238 46.0341 126.246 44.8172C126.503 44.628 126.812 44.4906 127.069 44.3014C128.562 43.4131 131.641 42.2382 134.359 41.3481C135.743 40.9041 136.973 40.5536 137.896 40.2908C138.818 40.028 139.483 39.9046 139.483 39.9046C139.483 39.9046 137.271 41.1135 134.854 42.4638C132.435 43.864 129.706 45.551 128.266 46.3416C127.494 46.7599 125.488 47.8274 123.219 49.4826C121.208 50.9485 119.397 52.6715 117.839 54.6037C117.372 55.1336 116.955 55.7152 116.59 56.2989C115.387 58.3447 114.338 60.3468 113.489 62.6058C112.903 64.3768 112.517 66.4049 112.132 68.3333Z" fill="black"/>
<path d="M259.136 239.165C258.922 243.461 262.335 245.046 264.177 245.369C267.195 245.938 274.154 243.408 283.157 234.15C291.328 225.76 296.64 205.495 292.382 198.321C287.524 190.071 277.03 188.708 272.514 196.19C265.791 203.785 258.798 234.096 259.136 239.165Z" fill="white"/>
<path d="M268.652 220.792C269.094 222.059 268.246 224.125 266.359 227.25C264.473 230.325 265.808 233.676 269.307 232.364C272.806 231.052 280.66 229.461 281.637 225.55C282.613 221.689 280.396 211.955 276.271 210.444C272.146 208.982 266.635 214.964 268.652 220.792Z" fill="white"/>
<path d="M95.3451 196.665C91.1493 205.528 87.6561 214.559 87.9891 234.719C88.423 261.31 103.752 296.202 115.793 314.308C122.323 324.183 141.083 327.004 158.425 321.387C172.768 316.712 223.939 301.968 230.595 297.973C236.534 294.366 241.912 286.746 248.27 271.807C253.557 259.476 277.231 210.009 278.943 169.443C280.763 126.449 235.349 85.2794 213.318 82.0773C177.052 76.8187 141.033 78.2493 119.748 99.1149C112.877 105.839 104.701 120.836 101.277 131.186C97.854 141.535 94.3005 155.274 92.6984 167.59C90.9115 181.32 97.8938 191.307 95.3451 196.665Z" fill="white"/>
<path d="M156.634 215.941C167.703 226.705 190.024 227.536 196.585 224.886C217.09 216.549 220.731 197.77 222.183 192.145C223.077 188.699 224.077 182.859 232.824 184.442C241.823 186.081 257.899 189.009 261.284 189.751C269.001 181.112 268.449 182.986 257.768 179.471C247.087 175.957 213.22 165.269 209.217 171.395C205.163 177.519 165.315 200.901 156.634 215.941Z" fill="#848484"/>
<path d="M111.981 222.563C114.533 219.327 138.837 186.026 141.99 181.333C142.699 175.315 135.253 169.562 131.43 167.647C130.107 164.674 127.943 162.392 125.423 159.899C117.493 154.946 103.491 155.985 94.5655 156.079C93.8622 159.663 93.2104 163.248 92.7673 166.737C90.9478 180.487 98.088 190.492 95.486 195.857C91.8532 203.378 88.7863 210.963 88.0854 225.398C97.5854 229.375 108.632 226.795 111.981 222.563Z" fill="#848484"/>
<path d="M133.662 251.81C129.513 251.113 116.348 253.192 114.031 262.723C113.33 265.577 119.673 272.464 131.131 272.663C142.54 272.86 164.19 269.693 162.481 265.085C160.772 260.477 142.668 253.282 133.662 251.81Z" fill="black"/>
<path d="M120.463 260.846C120.855 261.784 122.773 262.344 126.063 262.616C133.961 263.211 147.834 264.231 149.741 261.973C148.969 259.272 141.822 252.294 138.422 252.601C135.022 252.907 119.883 251.839 120.463 260.846Z" fill="white"/>
<path d="M149.793 261.917C149.02 259.267 141.823 252.293 138.423 252.599C135.023 252.905 119.884 251.935 120.514 260.936C120.857 261.775 122.32 262.268 124.799 262.557C124.632 260.076 127.471 259.991 128.841 259.898C130.21 259.805 143.216 261.13 147.905 262.815C148.77 262.557 149.483 262.293 149.793 261.917Z" fill="#D3D3D3"/>
<path d="M167.737 264.31C162.657 258.152 143.56 247.14 134.543 246.939C130.794 246.844 129.957 248.702 128.387 248.642C126.766 248.58 125.273 246.68 121.922 247.133C117.657 247.696 108.344 257.519 110.785 263.915C111.42 265.588 113.53 266.832 115.521 265.794C118.228 264.346 120.469 260.021 121.548 258.996C122.421 258.205 124.011 256.909 125.825 257.609C127.387 258.202 129.515 258.236 131.095 257.618C132.369 257.133 134.984 258.543 138.534 258.34C146.903 257.789 158.344 269.136 167.737 264.31Z" fill="#CC1736"/>
<path d="M116.974 265.263C114.597 265.028 112.026 264.256 110.824 266.81C109.414 269.74 111.797 276.522 117.237 278.559C121.519 280.167 131.441 280.45 135.344 280.262C142.895 279.924 152.917 276.841 156.889 275.404C162.183 273.536 167.883 268.17 167.625 264.983C160.364 266.294 154.539 266.312 149.173 266.156C142.845 265.962 133.75 264.46 127.765 265.049C125.128 265.334 120.615 265.691 116.974 265.263Z" fill="#E33150"/>
<path d="M115.462 252.947C117.482 250.307 119.438 248.653 121.583 247.946C124.802 246.836 126.576 250.761 122.854 251.505C119.643 252.121 118.671 252.528 116.16 253.913C113.599 255.246 114.271 254.482 115.462 252.947Z" fill="#E43251"/>
<path d="M123.112 267.255C116.551 265.963 112.196 269.6 115.139 272.467C116.786 274.097 119.81 274.924 126.037 274.826C132.314 274.73 137.342 273.542 142.521 272.454C147.039 271.532 152.322 270.163 145.992 270.447C139.662 270.683 131.539 268.951 123.112 267.255Z" fill="#F2516C"/>
<path d="M126.528 244.033C127.722 241.552 128.799 239.266 128.836 237.692C128.926 233.857 130.415 233.4 130.637 238.423C130.823 242.609 130.559 244.177 129.896 245.785C129.233 247.393 124.972 247.342 126.528 244.033Z" fill="#D3D3D3"/>
<path d="M153.969 155.374C155.287 152.719 165.206 149.73 172.671 148.539C182.96 146.877 194.238 148.021 204.031 152.5C209.151 154.866 212.489 156.068 214.207 157.817C208.459 156.51 173.598 149.684 156.492 159.193C155.422 159.803 152.65 158.028 153.969 155.374Z" fill="#282828"/>
<path d="M96.7438 153.651C98.8234 151.745 105.523 150.827 111.075 152.131C115.745 153.218 125.62 157.067 126.958 160.08C127.85 162.056 123.502 167.232 121.86 166.069C120.218 164.907 107.296 157.516 104.709 156.624C102.173 155.734 99.7291 155.383 97.7791 156.217C95.8811 157.052 93.7037 156.463 96.7438 153.651Z" fill="#282828"/>
<path d="M144.73 176.686C144.639 183.096 148.362 197.363 153.143 205.208C157.875 213 167.503 220.488 186.07 219.376C195.966 218.769 208.011 213.971 210.416 195.221C211.047 190.273 212.509 177.005 211.815 172.006C211.166 167.456 209.679 164.514 202.141 160.539C196.374 157.479 180.502 155.415 172.389 156.141C166.827 156.619 155.579 159.112 149.549 163.898C146.714 166.123 144.816 170.623 144.73 176.686Z" fill="url(#paint0_linear)"/>
<path d="M72.9931 167.742C71.4552 175.364 72.2595 187.117 74.7873 196.195C78.3377 208.804 81.7217 215.122 90.9209 218.376C101.899 222.249 111.964 218.453 116.439 212.643C123.931 202.961 125.49 186.612 125.602 182.276C125.741 176.097 125.068 169.486 121.487 166.253C114.123 159.679 102.102 157.312 95.0059 157.034C89.3904 156.813 74.7486 159.182 72.9931 167.742Z" fill="url(#paint1_linear)"/>
<path d="M222.413 165.016C222.438 163.305 221.785 162.84 219.012 161.706C211.901 158.839 190.924 153.725 181.837 154.253C174.476 154.652 159.969 154.677 148.949 162.66C143.106 166.883 133.52 170.374 126.856 164.641C121.495 159.984 108.645 154.108 98.6046 153.915C84.9634 153.68 76.0963 156.564 69.5709 158.853C67.9903 159.428 66.3589 160 66.2802 161.953C66.2079 163.466 66.1557 170.651 66.2291 172.609C66.2553 174.322 67.2692 174.361 67.6447 176.478C70.776 195.129 74.5938 204.811 76.8656 209.104C82.2 219.138 96.6491 223.168 108.818 219.924C122.209 216.384 125.483 200.279 126.402 196.354C127.429 191.945 129.329 183.218 130.086 179.922C131.871 172.169 141.723 174.946 142.852 181.052C144.032 187.258 146.683 196.895 150.377 204.616C154.269 212.687 162.286 219.549 171.033 221.502C182.663 224.054 196.926 223.384 204.517 217.518C216.979 207.977 218.414 185.738 219.443 181.182C220.145 178.178 222.162 178.989 222.299 176.55C222.451 173.035 222.382 167.215 222.413 165.016ZM125.398 181.452C125.286 185.701 123.737 201.776 116.298 211.217C111.854 216.912 101.808 220.63 90.9573 216.837C81.8221 213.647 78.4616 207.454 74.9358 195.095C72.4256 186.197 71.6269 174.676 73.1541 167.206C74.8974 158.815 89.4368 156.542 95.0133 156.758C102.06 157.031 113.997 159.351 121.311 165.795C124.868 168.866 125.535 175.395 125.398 181.452ZM211.924 196.194C209.478 214.629 197.491 219.348 187.693 219.946C169.214 221.04 159.631 213.677 154.922 206.014C150.164 198.252 146.459 184.223 146.549 177.968C146.635 171.958 148.523 167.582 151.345 165.393C157.397 160.689 168.541 158.236 174.076 157.766C182.152 157.052 197.948 159.13 203.688 162.09C211.189 165.999 212.67 168.892 213.316 173.366C214.005 178.331 212.551 191.378 211.924 196.194Z" fill="white"/>
<path d="M220.526 176.932C222.466 175.73 223.73 175.825 226.71 176.173C230.55 176.553 266.737 182.818 269.312 183.151C269.983 182.279 270.458 180.928 269.768 179.722C266.875 176.875 223.037 171.314 220.609 171.27C218.181 171.227 219.407 173.869 220.526 176.932Z" fill="#D3D3D3"/>
<path d="M219.852 175.399C220.876 174.709 221.493 174.101 224.174 174.496C226.855 174.891 263.617 180.973 268.163 182.023C272.71 183.073 272.468 175.239 268.688 173.781C264.907 172.323 221.026 160.766 219.314 159.971C217.354 162.374 216.881 170.521 219.852 175.399Z" fill="#111111"/>
<path d="M220.911 164.475C220.936 162.764 220.283 162.299 217.509 161.165C210.398 158.298 189.421 153.184 180.334 153.712C172.974 154.111 158.467 154.136 147.447 162.119C141.604 166.342 132.018 169.834 125.354 164.1C119.993 159.443 107.143 153.567 97.1024 153.374C83.4612 153.139 74.5941 156.023 68.0687 158.313C66.4881 158.887 64.8567 159.459 64.778 161.412C64.7057 162.925 64.6535 170.11 64.7269 172.069C64.7531 173.781 65.767 173.82 66.1425 175.937C69.2738 194.588 73.0916 204.27 75.3634 208.563C80.6978 218.597 95.1469 222.628 107.316 219.383C120.707 215.843 123.981 199.738 124.9 195.813C125.927 191.404 127.827 182.677 128.584 179.381C130.369 171.628 140.22 174.405 141.35 180.511C142.529 186.717 145.181 196.354 148.875 204.075C152.766 212.146 160.784 219.008 169.531 220.961C181.161 223.513 195.424 222.843 203.015 216.977C215.477 207.436 216.912 185.197 217.941 180.641C218.643 177.637 220.66 178.448 220.797 176.009C220.948 172.495 220.88 166.674 220.911 164.475ZM123.896 180.911C123.784 185.16 122.235 201.235 114.796 210.676C110.352 216.371 100.306 220.089 89.4551 216.296C80.3199 213.106 76.9594 206.913 73.4336 194.554C70.9234 185.656 70.1247 174.135 71.6519 166.665C73.3952 158.274 87.9346 156.002 93.5111 156.217C100.558 156.49 112.495 158.81 119.808 165.254C123.366 168.325 124.033 174.854 123.896 180.911ZM210.421 195.653C207.976 214.089 195.989 218.807 186.191 219.405C167.712 220.499 158.129 213.136 153.42 205.474C148.662 197.711 144.957 183.682 145.046 177.427C145.133 171.417 147.021 167.041 149.842 164.852C155.895 160.148 167.039 157.695 172.574 157.225C180.649 156.511 196.445 158.589 202.185 161.55C209.687 165.458 211.167 168.351 211.813 172.825C212.503 177.79 211.048 190.837 210.421 195.653Z" fill="#111111"/>
<path d="M270.693 178.649C270.684 179.699 270.679 180.249 270.616 181.295C271.047 180.772 271.267 180.085 271.38 179.341C271.169 179.078 270.958 178.865 270.693 178.649Z" fill="#474747"/>
<path d="M270.731 178.57C271 178.436 271.215 178.299 271.43 178.212C271.383 177.458 271.176 176.695 270.861 175.975C270.808 175.921 270.808 175.921 270.755 175.868C270.799 176.972 270.74 177.519 270.731 178.57Z" fill="#474747"/>
<path d="M270.845 175.87C270.845 175.87 270.846 175.821 270.795 175.818C270.845 175.87 270.845 175.87 270.845 175.87Z" fill="#474747"/>
<path d="M268.901 179.719C268.893 180.653 268.836 181.239 268.828 182.124C269.551 182.12 270.172 181.863 270.589 181.397C269.924 180.766 269.566 180.4 268.901 179.719Z" fill="#474747"/>
<path d="M270.755 178.675C270.037 177.99 269.73 177.626 269.013 176.941C269.003 178.025 268.947 178.514 268.937 179.647C269.664 179.248 270.028 179.025 270.755 178.675Z" fill="#474747"/>
<path d="M269.128 174.163C269.118 175.296 269.062 175.785 269.053 176.869C269.779 176.52 270.143 176.296 270.87 175.947C270.153 175.212 269.845 174.898 269.128 174.163Z" fill="#474747"/>
<path d="M269.429 173.971C269.326 173.915 269.275 173.863 269.173 173.808C269.172 173.906 269.171 174.004 269.17 174.102C269.273 174.06 269.377 174.017 269.429 173.971Z" fill="#474747"/>
<path d="M267.125 180.89C267.121 181.279 267.119 181.571 267.065 181.859C267.474 181.933 267.781 182.001 267.985 182.062C268.088 182.068 268.19 182.123 268.292 182.129C267.937 181.719 267.581 181.405 267.125 180.89Z" fill="#474747"/>
<path d="M267.142 180.818C267.87 180.37 268.234 180.146 268.962 179.747C268.244 179.061 267.937 178.697 267.219 178.011C267.209 179.096 267.153 179.635 267.142 180.818Z" fill="#474747"/>
<path d="M267.389 175.186C267.327 176.266 267.323 176.808 267.261 177.888C267.989 177.49 268.352 177.315 269.079 176.917C268.413 176.284 268.054 175.917 267.389 175.186Z" fill="#474747"/>
<path d="M269.183 174.197C268.98 173.94 268.776 173.781 268.623 173.576C268.367 173.462 268.009 173.342 267.496 173.164C267.49 173.848 267.435 174.333 267.428 175.114C268.15 174.768 268.512 174.546 269.183 174.197Z" fill="#474747"/>
<path d="M267.168 180.913C266.452 180.18 266.146 179.817 265.43 179.134C265.37 180.064 265.365 180.653 265.306 181.534C265.512 181.596 265.718 181.609 265.923 181.671C266.338 181.402 266.649 181.224 267.168 180.913Z" fill="#474747"/>
<path d="M265.595 176.256C265.534 177.337 265.529 177.879 265.468 179.009C266.195 178.61 266.559 178.386 267.286 177.988C266.62 177.306 266.261 176.988 265.595 176.256Z" fill="#474747"/>
<path d="M265.635 176.182C266.363 175.783 266.727 175.608 267.454 175.209C266.788 174.478 266.429 174.159 265.763 173.378C265.701 174.558 265.697 175.1 265.635 176.182Z" fill="#474747"/>
<path d="M266.626 172.911C266.371 172.847 266.116 172.734 265.809 172.667C265.807 172.909 265.805 173.103 265.803 173.393C266.163 173.173 266.369 173.041 266.626 172.911Z" fill="#474747"/>
<path d="M263.596 181.223C264.006 181.297 264.364 181.368 264.723 181.439C264.367 181.076 264.062 180.716 263.605 180.25C263.601 180.639 263.599 180.931 263.596 181.223Z" fill="#474747"/>
<path d="M263.672 180.231C264.4 179.782 264.764 179.558 265.492 179.159C264.826 178.427 264.467 178.109 263.8 177.377C263.739 178.459 263.734 179.001 263.672 180.231Z" fill="#474747"/>
<path d="M265.661 176.28C264.995 175.598 264.636 175.23 263.97 174.499C263.909 175.629 263.904 176.171 263.843 177.252C264.57 176.853 264.934 176.678 265.661 176.28Z" fill="#474747"/>
<path d="M265.821 173.458C265.464 173.044 265.21 172.734 264.903 172.421C264.646 172.356 264.39 172.242 264.133 172.177C264.075 172.958 264.07 173.497 264.01 174.425C264.735 174.028 265.097 173.855 265.821 173.458Z" fill="#474747"/>
<path d="M262.011 178.497C261.951 179.477 261.946 180.018 261.886 180.948C262.092 181.01 262.298 181.023 262.555 181.088C262.919 180.865 263.23 180.638 263.748 180.375C262.981 179.59 262.675 179.227 262.011 178.497Z" fill="#474747"/>
<path d="M262.178 175.571C262.117 176.702 262.06 177.241 261.999 178.371C262.727 177.923 263.09 177.748 263.818 177.35C263.203 176.67 262.844 176.303 262.178 175.571Z" fill="#474747"/>
<path d="M264.037 174.522C263.371 173.79 263.064 173.426 262.398 172.694C262.336 173.825 262.279 174.413 262.218 175.494C262.945 175.096 263.309 174.921 264.037 174.522Z" fill="#474747"/>
<path d="M263.517 172.036C263.211 171.92 262.854 171.85 262.496 171.731C262.494 172.021 262.44 172.308 262.437 172.647C262.9 172.385 263.158 172.207 263.517 172.036Z" fill="#474747"/>
<path d="M260.185 179.716C260.182 180.057 260.127 180.394 260.125 180.686C260.483 180.757 260.893 180.831 261.251 180.902C260.896 180.49 260.591 180.179 260.185 179.716Z" fill="#474747"/>
<path d="M262.074 178.523C261.408 177.791 261.049 177.424 260.383 176.692C260.322 177.822 260.265 178.411 260.203 179.591C260.931 179.143 261.295 178.919 262.074 178.523Z" fill="#474747"/>
<path d="M262.244 175.593C261.578 174.861 261.271 174.497 260.604 173.765C260.543 174.895 260.486 175.435 260.424 176.615C261.152 176.216 261.516 175.992 262.244 175.593Z" fill="#474747"/>
<path d="M262.458 172.72C261.999 172.2 261.693 171.838 261.336 171.423C261.13 171.361 260.976 171.302 260.77 171.24C260.71 172.17 260.654 172.707 260.594 173.685C261.371 173.291 261.733 173.117 262.458 172.72Z" fill="#474747"/>
<path d="M260.229 179.736C259.564 179.007 259.206 178.64 258.543 177.862C258.482 178.841 258.426 179.428 258.366 180.309C258.572 180.371 258.83 180.387 259.036 180.449C259.399 180.226 259.762 180.002 260.229 179.736Z" fill="#474747"/>
<path d="M260.451 176.714C259.784 175.982 259.477 175.617 258.81 174.885C258.748 176.017 258.691 176.605 258.629 177.786C259.358 177.338 259.722 177.163 260.451 176.714Z" fill="#474747"/>
<path d="M260.672 173.786C260.005 173.054 259.698 172.689 259.032 171.907C258.969 173.088 258.913 173.628 258.851 174.808C259.579 174.409 259.943 174.234 260.672 173.786Z" fill="#474747"/>
<path d="M260.358 171.157C259.949 171.035 259.592 170.916 259.183 170.794C259.18 171.133 259.126 171.469 259.123 171.856C259.586 171.594 259.946 171.374 260.358 171.157Z" fill="#474747"/>
<path d="M256.654 180.099C257.013 180.17 257.422 180.244 257.781 180.315C257.425 179.952 257.172 179.595 256.714 179.129C256.711 179.469 256.657 179.807 256.654 180.099Z" fill="#474747"/>
<path d="M256.731 179.054C257.459 178.606 257.876 178.335 258.604 177.937C257.938 177.204 257.63 176.84 256.964 176.108C256.902 177.239 256.845 177.827 256.731 179.054Z" fill="#474747"/>
<path d="M257.006 175.976C257.733 175.528 258.097 175.354 258.876 174.958C258.21 174.227 257.903 173.863 257.237 173.131C257.124 174.258 257.119 174.8 257.006 175.976Z" fill="#474747"/>
<path d="M259.095 171.982C258.584 171.359 258.277 170.995 257.816 170.474C257.714 170.419 257.559 170.409 257.456 170.353C257.395 171.384 257.338 171.971 257.278 173.002C258.004 172.604 258.368 172.38 259.095 171.982Z" fill="#474747"/>
<path d="M255.122 177.276C255.062 178.256 255.005 178.842 254.945 179.773C255.151 179.835 255.358 179.848 255.615 179.913C255.978 179.69 256.342 179.466 256.809 179.151C256.093 178.369 255.787 178.005 255.122 177.276Z" fill="#474747"/>
<path d="M255.159 177.197C255.887 176.749 256.303 176.528 257.032 176.079C256.365 175.347 256.058 174.983 255.392 174.251C255.278 175.428 255.273 175.97 255.159 177.197Z" fill="#474747"/>
<path d="M257.305 173.102C256.638 172.369 256.331 171.956 255.665 171.223C255.551 172.401 255.546 172.992 255.432 174.17C256.161 173.721 256.577 173.501 257.305 173.102Z" fill="#474747"/>
<path d="M257.198 170.281C256.739 170.156 256.279 170.031 255.82 169.857C255.765 170.241 255.762 170.628 255.707 171.108C256.323 170.807 256.684 170.588 257.198 170.281Z" fill="#474747"/>
<path d="M253.184 179.511C253.543 179.582 253.953 179.656 254.311 179.727C254.007 179.367 253.702 179.007 253.296 178.494C253.241 178.93 253.238 179.222 253.184 179.511Z" fill="#474747"/>
<path d="M253.311 178.468C254.092 177.973 254.457 177.749 255.186 177.3C254.519 176.567 254.212 176.203 253.545 175.42C253.431 176.599 253.374 177.188 253.311 178.468Z" fill="#474747"/>
<path d="M255.459 174.271C254.793 173.539 254.486 173.175 253.82 172.393C253.706 173.571 253.649 174.159 253.587 175.34C254.367 174.895 254.731 174.67 255.459 174.271Z" fill="#474747"/>
<path d="M255.731 171.245C255.168 170.569 254.81 170.153 254.298 169.529C254.246 169.526 254.143 169.47 254.092 169.467C253.978 170.594 253.973 171.186 253.86 172.313C254.64 171.868 255.003 171.644 255.731 171.245Z" fill="#474747"/>
<path d="M251.704 176.641C251.592 177.668 251.586 178.259 251.475 179.188C251.681 179.25 251.888 179.263 252.094 179.325C252.458 179.052 252.821 178.877 253.289 178.562C252.675 177.785 252.317 177.418 251.704 176.641Z" fill="#474747"/>
<path d="M253.614 175.443C252.948 174.711 252.641 174.297 251.975 173.565C251.861 174.742 251.804 175.331 251.69 176.557C252.47 176.112 252.886 175.891 253.614 175.443Z" fill="#474747"/>
<path d="M253.888 172.414C253.222 171.632 252.914 171.268 252.3 170.489C252.185 171.716 252.128 172.305 252.015 173.482C252.795 173.037 253.16 172.813 253.888 172.414Z" fill="#474747"/>
<path d="M253.986 169.453C253.475 169.324 252.965 169.148 252.454 169.02C252.399 169.452 252.395 169.887 252.339 170.416C253.008 170.022 253.369 169.802 253.986 169.453Z" fill="#474747"/>
<path d="M249.763 178.976C250.122 179.047 250.531 179.121 250.89 179.192C250.586 178.783 250.281 178.471 249.875 177.958C249.82 178.345 249.765 178.683 249.763 178.976Z" fill="#474747"/>
<path d="M249.841 177.878C250.622 177.384 250.986 177.16 251.766 176.715C251.1 175.933 250.793 175.569 250.126 174.836C250.012 176.014 249.955 176.602 249.841 177.878Z" fill="#474747"/>
<path d="M252.042 173.585C251.376 172.804 251.069 172.439 250.403 171.658C250.289 172.884 250.232 173.473 250.117 174.7C250.95 174.258 251.314 174.034 252.042 173.585Z" fill="#474747"/>
<path d="M252.368 170.508C251.754 169.729 251.395 169.362 250.781 168.534C250.781 168.534 250.781 168.534 250.729 168.531C250.615 169.757 250.558 170.395 250.444 171.573C251.224 171.128 251.64 170.907 252.368 170.508Z" fill="#474747"/>
<path d="M248.233 176.054C248.12 177.081 248.063 177.717 248.003 178.649C248.209 178.711 248.416 178.724 248.622 178.786C249.037 178.516 249.349 178.29 249.869 177.977C249.204 177.197 248.897 176.834 248.233 176.054Z" fill="#474747"/>
<path d="M248.27 175.971C249.051 175.476 249.415 175.252 250.196 174.807C249.53 174.025 249.222 173.66 248.556 172.878C248.442 174.105 248.384 174.744 248.27 175.971Z" fill="#474747"/>
<path d="M248.882 169.751C248.768 170.978 248.71 171.617 248.596 172.844C249.376 172.399 249.741 172.174 250.522 171.729C249.855 170.947 249.548 170.533 248.882 169.751Z" fill="#474747"/>
<path d="M250.776 168.574C250.214 168.394 249.652 168.263 249.091 168.083C249.035 168.564 248.98 169.045 248.923 169.671C249.695 169.234 250.055 169.014 250.776 168.574Z" fill="#474747"/>
<path d="M246.354 177.37C246.299 177.757 246.296 178.098 246.242 178.387C246.601 178.458 247.011 178.532 247.369 178.603C247.116 178.246 246.811 177.886 246.354 177.37C246.405 177.373 246.354 177.37 246.354 177.37Z" fill="#474747"/>
<path d="M247.509 167.637C247.458 167.634 247.407 167.631 247.407 167.582C247.407 167.631 247.406 167.68 247.406 167.68C247.406 167.68 247.457 167.683 247.509 167.637Z" fill="#474747"/>
<path d="M248.298 176.077C247.631 175.295 247.323 174.93 246.657 174.148C246.543 175.376 246.485 176.014 246.37 177.291C247.152 176.796 247.568 176.575 248.298 176.077Z" fill="#474747"/>
<path d="M246.749 174.064C247.53 173.619 247.895 173.345 248.675 172.9C248.009 172.118 247.702 171.754 247.035 170.972C246.869 172.196 246.812 172.834 246.749 174.064Z" fill="#474747"/>
<path d="M247.313 167.743C247.198 169.019 247.14 169.658 247.026 170.886C247.807 170.44 248.172 170.216 248.953 169.77C248.286 168.988 247.979 168.574 247.313 167.743Z" fill="#474747"/>
<path d="M246.449 177.392C246.397 177.389 246.397 177.389 246.449 177.392C245.784 176.612 245.477 176.248 244.812 175.468C244.699 176.544 244.642 177.132 244.582 178.114C244.788 178.176 244.995 178.188 245.201 178.25C245.565 177.977 245.929 177.754 246.449 177.392C246.397 177.389 246.397 177.389 246.449 177.392Z" fill="#474747"/>
<path d="M246.777 174.171C246.111 173.389 245.803 173.024 245.137 172.242C245.022 173.469 244.965 174.108 244.85 175.385C245.58 174.887 245.996 174.666 246.777 174.171Z" fill="#474747"/>
<path d="M245.178 172.157C245.959 171.711 246.324 171.438 247.105 170.992C246.439 170.21 246.132 169.796 245.465 169.014C245.35 170.291 245.293 170.88 245.178 172.157Z" fill="#474747"/>
<path d="M247.363 167.784C247.312 167.732 247.261 167.68 247.21 167.629C246.699 167.451 246.137 167.319 245.626 167.142C245.57 167.673 245.514 168.204 245.456 168.929C246.229 168.491 246.641 168.225 247.363 167.784Z" fill="#474747"/>
<path d="M242.932 176.834C242.877 177.222 242.874 177.563 242.82 177.902C243.179 177.973 243.589 178.047 243.948 178.118C243.644 177.66 243.338 177.348 242.932 176.834Z" fill="#474747"/>
<path d="M244.249 166.759C244.146 166.753 244.044 166.698 243.941 166.692C243.94 166.789 243.939 166.886 243.938 166.983C244.042 166.892 244.145 166.85 244.249 166.759Z" fill="#474747"/>
<path d="M244.878 175.492C244.211 174.709 243.903 174.344 243.237 173.562C243.122 174.839 243.064 175.478 242.949 176.756C243.731 176.211 244.096 175.987 244.878 175.492Z" fill="#474747"/>
<path d="M245.207 172.262C244.541 171.48 244.233 171.066 243.567 170.283C243.452 171.56 243.395 172.149 243.28 173.426C244.009 172.978 244.426 172.707 245.207 172.262Z" fill="#474747"/>
<path d="M243.845 167.004C243.73 168.281 243.673 168.92 243.558 170.197C244.339 169.752 244.705 169.478 245.486 169.032C244.871 168.253 244.512 167.835 243.845 167.004Z" fill="#474747"/>
<path d="M241.341 174.88C241.228 175.958 241.223 176.598 241.111 177.577C241.317 177.639 241.524 177.652 241.73 177.714C242.146 177.444 242.458 177.217 242.978 176.855C242.313 176.074 242.006 175.661 241.341 174.88Z" fill="#474747"/>
<path d="M241.379 174.797C242.161 174.302 242.526 174.029 243.308 173.583C242.641 172.801 242.333 172.386 241.667 171.604C241.5 172.878 241.494 173.52 241.379 174.797Z" fill="#474747"/>
<path d="M243.588 170.303C242.921 169.521 242.614 169.107 241.896 168.272C241.782 169.549 241.724 170.187 241.609 171.464C242.442 171.022 242.858 170.801 243.588 170.303Z" fill="#474747"/>
<path d="M243.899 167.04C243.798 166.888 243.696 166.784 243.595 166.631C243.134 166.505 242.622 166.327 242.161 166.201C242.104 166.832 242.048 167.365 241.99 168.19C242.764 167.75 243.125 167.529 243.899 167.04Z" fill="#474747"/>
<path d="M239.461 176.245C239.406 176.632 239.403 176.974 239.4 177.316C239.759 177.387 240.169 177.461 240.528 177.532C240.172 177.119 239.918 176.762 239.461 176.245Z" fill="#474747"/>
<path d="M240.937 165.88C240.784 165.822 240.579 165.761 240.426 165.751C240.425 165.897 240.423 166.09 240.37 166.233C240.576 166.1 240.731 165.964 240.937 165.88Z" fill="#474747"/>
<path d="M241.408 174.903C240.741 174.12 240.433 173.705 239.766 172.922C239.651 174.201 239.593 174.84 239.529 176.171C240.26 175.673 240.626 175.399 241.408 174.903Z" fill="#474747"/>
<path d="M241.687 171.624C241.02 170.842 240.661 170.424 239.994 169.641C239.879 170.919 239.822 171.558 239.758 172.889C240.54 172.344 240.906 172.07 241.687 171.624Z" fill="#474747"/>
<path d="M240.326 166.262C240.211 167.589 240.153 168.228 240.09 169.509C240.872 169.014 241.237 168.789 242.019 168.294C241.352 167.511 240.993 167.094 240.326 166.262Z" fill="#474747"/>
<path d="M239.508 176.267C238.843 175.487 238.536 175.074 237.819 174.29C237.758 175.37 237.7 176.057 237.64 176.989C237.847 177.051 238.053 177.064 238.259 177.126C238.675 176.856 238.988 176.629 239.508 176.267Z" fill="#474747"/>
<path d="M239.788 172.945C239.121 172.162 238.762 171.744 238.095 170.962C237.98 172.239 237.974 172.931 237.859 174.209C238.641 173.714 239.006 173.44 239.788 172.945Z" fill="#474747"/>
<path d="M240.12 169.614C239.453 168.782 239.093 168.414 238.427 167.582C238.311 168.909 238.306 169.551 238.191 170.829C238.92 170.38 239.338 170.11 240.12 169.614Z" fill="#474747"/>
<path d="M240.385 166.298C240.182 166.041 239.978 165.833 239.825 165.627C239.415 165.504 239.005 165.381 238.595 165.258C238.537 165.988 238.48 166.571 238.421 167.497C239.196 167.007 239.609 166.788 240.385 166.298Z" fill="#474747"/>
<path d="M235.989 175.708C235.986 176.099 235.931 176.437 235.928 176.779C236.287 176.85 236.697 176.924 237.056 176.995C236.7 176.583 236.396 176.222 235.989 175.708Z" fill="#474747"/>
<path d="M237.576 164.997C237.32 164.933 237.065 164.869 236.81 164.756C236.808 164.998 236.806 165.192 236.752 165.48C237.061 165.305 237.319 165.127 237.576 164.997Z" fill="#474747"/>
<path d="M236.007 175.631C236.79 175.087 237.155 174.862 237.938 174.317C237.271 173.534 236.911 173.117 236.244 172.334C236.129 173.612 236.071 174.3 236.007 175.631Z" fill="#474747"/>
<path d="M236.238 172.249C237.021 171.754 237.386 171.48 238.169 170.985C237.501 170.202 237.142 169.784 236.423 168.948C236.36 170.23 236.354 170.922 236.238 172.249Z" fill="#474747"/>
<path d="M236.706 165.517C236.642 166.847 236.585 167.486 236.521 168.816C237.303 168.321 237.72 168.05 238.501 167.605C237.783 166.77 237.424 166.352 236.706 165.517Z" fill="#474747"/>
<path d="M236.037 175.73C235.371 174.948 235.012 174.531 234.347 173.701C234.285 174.831 234.28 175.473 234.219 176.456C234.426 176.518 234.633 176.531 234.839 176.593C235.204 176.319 235.516 176.092 236.037 175.73Z" fill="#474747"/>
<path d="M236.268 172.356C235.6 171.573 235.241 171.155 234.522 170.319C234.458 171.651 234.401 172.29 234.337 173.671C235.12 173.126 235.485 172.852 236.268 172.356Z" fill="#474747"/>
<path d="M236.55 168.975C235.832 168.14 235.473 167.722 234.754 166.887C234.69 168.217 234.633 168.906 234.569 170.236C235.351 169.692 235.768 169.47 236.55 168.975Z" fill="#474747"/>
<path d="M236.771 165.552C236.413 165.137 236.159 164.827 235.903 164.566C235.595 164.448 235.235 164.377 234.927 164.26C234.867 165.14 234.862 165.777 234.801 166.805C235.579 166.313 235.993 166.044 236.771 165.552Z" fill="#474747"/>
<path d="M232.457 176.242C232.816 176.313 233.226 176.388 233.585 176.459C233.229 176.046 232.924 175.685 232.466 175.168C232.463 175.559 232.46 175.901 232.457 176.242Z" fill="#474747"/>
<path d="M234.115 164.065C233.757 163.947 233.4 163.876 233.042 163.758C233.04 164.048 233.037 164.386 232.983 164.722C233.497 164.463 233.806 164.288 234.115 164.065Z" fill="#474747"/>
<path d="M234.366 173.777C233.698 172.993 233.338 172.575 232.619 171.739C232.555 173.071 232.549 173.763 232.485 175.095C233.269 174.55 233.635 174.276 234.366 173.777Z" fill="#474747"/>
<path d="M232.668 171.609C233.451 171.064 233.817 170.84 234.6 170.295C233.881 169.459 233.521 169.041 232.802 168.255C232.738 169.635 232.732 170.278 232.668 171.609Z" fill="#474747"/>
<path d="M232.983 164.821C232.92 166.151 232.914 166.843 232.85 168.174C233.632 167.678 234.049 167.408 234.832 166.913C234.113 166.077 233.754 165.659 232.983 164.821Z" fill="#474747"/>
<path d="M230.773 173.159C230.763 174.294 230.706 174.931 230.697 175.918C230.904 175.98 231.111 175.993 231.369 176.058C231.733 175.785 232.046 175.557 232.515 175.192C231.849 174.41 231.49 173.993 230.773 173.159Z" fill="#474747"/>
<path d="M230.816 173.084C231.548 172.536 231.965 172.265 232.697 171.766C231.977 170.93 231.617 170.511 230.897 169.725C230.886 171.06 230.828 171.7 230.816 173.084Z" fill="#474747"/>
<path d="M230.949 169.597C231.732 169.052 232.097 168.827 232.88 168.282C232.161 167.446 231.802 167.028 231.03 166.189C231.018 167.573 230.96 168.262 230.949 169.597Z" fill="#474747"/>
<path d="M233.055 164.854C232.543 164.28 232.236 163.917 231.827 163.448C231.621 163.386 231.364 163.321 231.158 163.259C231.148 164.292 231.091 164.929 231.081 166.11C231.86 165.617 232.276 165.347 233.055 164.854Z" fill="#474747"/>
<path d="M228.944 174.631C228.941 175.021 228.938 175.363 228.935 175.705C229.294 175.776 229.653 175.847 230.063 175.921C229.707 175.508 229.402 175.147 228.944 174.631Z" fill="#474747"/>
<path d="M230.654 163.132C230.194 163.006 229.683 162.829 229.274 162.706L229.262 164.018C229.829 163.664 230.19 163.443 230.654 163.132Z" fill="#474747"/>
<path d="M230.845 173.189C230.126 172.353 229.766 171.934 228.993 171.144L228.963 174.557C229.695 174.009 230.113 173.738 230.845 173.189Z" fill="#474747"/>
<path d="M229.045 171.069C229.777 170.521 230.195 170.25 230.977 169.754C230.258 168.918 229.847 168.497 229.075 167.657L229.045 171.069Z" fill="#474747"/>
<path d="M231.112 166.218C230.341 165.379 229.982 164.961 229.16 164.07L229.13 167.479C229.912 166.984 230.329 166.762 231.112 166.218Z" fill="#474747"/>
<path d="M104.604 120.386C111.181 108.981 119.511 106.825 124.553 106.774C132.192 106.676 140.449 113.303 123.412 111.842C133.638 119.588 151.615 108.628 163.622 109.346C185.753 110.66 169.502 121.985 204.735 118.55C216.259 117.413 217.842 145.815 238.476 152.181C230.943 148.412 224.427 137.486 227.033 126.074C237.644 149.816 254.045 142.269 254.316 162.678C254.586 183.137 249.644 190.537 259.649 203.188C265.852 210.975 263.97 228.868 253.078 232.114C271.963 232.506 274.351 225.701 275.545 216.913C277.252 204.225 293.203 196.064 296.596 179.422C301.03 157.559 293.352 117.255 271.714 95.5129C250.527 74.235 182.686 61.1064 162.147 66.0595C136.601 72.2062 104.164 93.866 104.604 120.386Z" fill="black"/>
<path d="M251.007 224.507C251.007 224.507 251.314 224.569 251.826 224.69C252.338 224.81 253.107 224.94 253.979 225.024C254.902 225.111 255.93 225.051 257.013 224.743C258.096 224.434 259.081 223.822 259.813 222.898C260.545 222.025 261.073 220.944 261.346 219.802C261.67 218.712 261.788 217.615 261.803 216.613C261.882 214.612 261.596 213.048 261.553 212.495C261.415 211.337 261.19 209.074 260.6 207.197C260.306 206.233 259.355 204.442 259.154 204.134C259.053 203.98 258.952 203.875 258.952 203.875C258.952 203.875 259.561 204.4 259.814 204.661C260.321 205.182 260.875 205.955 261.375 206.876C262.428 208.721 263.063 211.051 263.25 212.311C263.344 212.966 263.474 214.674 263.238 216.82C263.12 217.917 262.847 219.059 262.419 220.245C261.991 221.43 261.307 222.606 260.37 223.471C259.432 224.386 258.191 224.989 257.058 225.195C255.874 225.399 254.796 225.307 253.874 225.171C252.952 224.984 252.235 224.806 251.775 224.638C251.313 224.619 251.007 224.507 251.007 224.507Z" fill="#111111"/>
<path d="M255.579 201.835C255.579 201.835 255.258 201.47 254.67 200.742C254.081 200.064 253.334 199.026 252.538 197.634C251.796 196.244 251.059 194.551 250.707 192.62C250.3 190.687 250.277 188.567 250.527 186.457C250.776 184.346 251.189 182.242 251.653 180.291C252.064 178.288 252.473 176.436 252.771 174.731C253.365 171.372 253.404 168.8 253.418 167.841C253.426 167.337 253.435 166.732 253.499 166.078C253.509 165.422 253.574 164.668 253.532 163.859C253.556 162.245 253.364 160.522 253.117 158.847C252.869 157.223 252.51 155.696 252.2 154.574C251.89 153.452 251.684 152.687 251.684 152.687C251.684 152.687 252.11 153.309 252.638 154.439C253.222 155.47 253.962 156.911 254.591 158.549C255.22 160.187 255.792 162.025 256.094 163.702C256.298 164.568 256.341 165.377 256.439 166.087C256.483 166.795 256.528 167.453 256.519 168.008C256.448 169.115 256.241 172.035 255.264 175.48C254.803 177.229 254.231 179.075 253.603 181.02C253.029 182.967 252.401 184.912 251.99 186.915C251.58 188.868 251.441 190.881 251.631 192.705C251.822 194.529 252.341 196.214 252.974 197.6C253.608 198.936 254.299 200.021 254.778 200.746C255.313 201.422 255.579 201.835 255.579 201.835Z" fill="#111111"/>
<path d="M258.868 248.151C256.175 255.254 252.31 259.053 243.041 260.37C246.565 262.778 252.748 263.958 256.431 262.275C251.333 266.964 242.555 269.534 232.225 266.909C239.092 273.596 248.014 278.782 255.534 278.928C266.66 279.214 273.643 277.807 279.708 269.453C273.876 261.376 257.283 259.543 258.868 248.151Z" fill="black"/>
<path d="M239.06 275.513C242.728 277.206 246.46 278.052 250.506 278.157C253.49 278.221 256.583 277.818 259.018 277.344C261.454 276.869 263.284 276.325 263.994 276.163C265.416 275.839 268.202 275.614 270.686 275.282C271.903 275.092 273.069 274.947 273.932 274.791C274.743 274.633 275.302 274.512 275.302 274.512C275.302 274.512 274.942 274.876 274.227 275.368C273.561 275.861 272.59 276.532 271.518 277.199C269.373 278.533 266.623 279.749 265.1 280.07C264.288 280.228 262.158 280.572 259.474 280.707C256.74 280.841 253.403 280.716 250.274 280.128C248.71 279.833 247.198 279.447 245.789 278.97C243.271 278.122 241.113 276.957 239.06 275.513Z" fill="black"/>
<path d="M221.318 146.485C220.039 146.435 218.773 145.536 217.968 144.555C217.214 143.575 216.67 142.205 216.334 140.692C215.997 139.18 215.764 137.572 215.531 135.963C215.254 133.804 214.926 131.642 214.393 129.572C213.907 127.704 213.218 125.828 212.269 124.142C211.669 123.119 211.018 122.143 210.264 121.214C209.158 119.772 207.688 118.814 205.85 118.493C204.574 118.292 203.345 118.344 202.423 118.358C201.501 118.422 200.837 118.396 200.837 118.396C200.837 118.396 201.452 118.27 202.326 118.004C204.176 117.477 206.126 117.104 208.063 117.58C208.828 117.76 209.539 118.138 210.251 118.515C212.177 119.79 213.481 121.64 214.373 123.724C214.62 124.334 214.868 124.893 215.064 125.501C215.704 127.325 216.085 129.289 216.263 131.195C216.445 132.801 216.524 134.453 216.603 136.105C216.683 137.708 216.763 139.31 216.998 140.768C217.09 141.472 217.234 142.177 217.43 142.784C217.626 143.392 217.873 144.001 218.225 144.465C219.029 145.496 220.148 145.989 221.318 146.485Z" fill="#111111"/>
<path d="M151.205 220.798C153.854 224.429 154.315 227.875 153.518 230.179C152.561 232.973 151.582 237.406 137.157 234.407C145.482 232.895 154.179 226.678 151.205 220.798Z" fill="#D7E0E5"/>
<path d="M132.353 182.237C128.309 196.821 121.702 208.105 115.304 215.4C112.496 218.588 110.208 221.197 114.062 227.295C115.763 230.01 121.253 232.575 125.257 231.732C127.361 231.315 130.326 231.481 132.155 232.452C137.843 235.474 141.641 234.724 145.275 234.666C149.267 234.573 150.781 232.484 152.358 229.497C153.516 227.244 153.623 223.3 151.612 220.723C140.733 208.452 141.702 183.304 141.47 181.645C141.004 178.379 134.078 176.008 132.353 182.237Z" fill="white"/>
<path d="M143.656 231.535C141.14 226.959 136.322 223.885 132.579 223.549C129.948 223.352 128.473 223.778 125.521 224.773C123.892 225.337 121.665 225.204 118.445 223.732C114.42 221.892 111.581 225.589 116.834 230.077C118.584 231.589 122.015 232.491 125.114 231.887C127.196 231.485 130.131 231.645 131.941 232.581C137.572 235.494 141.33 234.77 144.927 234.715C147.967 234.638 149.554 233.447 150.848 231.569C149.608 233.256 145.926 235.668 143.656 231.535Z" fill="#D3D3D3"/>
<path d="M122.231 228.753C121.224 228.072 120.669 227.804 119.165 226.363C117.661 224.923 116.524 226.26 117.626 227.34C119.18 228.881 120.294 229.171 121.511 229.317C122.576 229.457 122.935 229.225 122.231 228.753Z" fill="#949494"/>
<path d="M141.077 228.901C138.724 226.703 134.463 223.059 131.552 224.367C129.764 225.179 130.893 227.869 133.025 227.805C135.157 227.741 138.794 228.911 139.854 229.295C141.47 229.848 142.78 230.438 141.077 228.901Z" fill="#949494"/>
<defs>
<linearGradient id="paint0_linear" x1="152.059" y1="155.258" x2="187.679" y2="222.057" gradientUnits="userSpaceOnUse">
<stop offset="0.161458" stop-color="#FFC107"/>
<stop offset="0.301983" stop-color="#FFC107"/>
<stop offset="0.4373" stop-color="#FFF507"/>
<stop offset="0.458233" stop-color="#FFF507"/>
<stop offset="0.604167" stop-color="#A7E661"/>
<stop offset="0.744792" stop-color="#27C2D4"/>
<stop offset="0.890525" stop-color="#5452BB"/>
</linearGradient>
<linearGradient id="paint1_linear" x1="85.6486" y1="156.365" x2="118.572" y2="215.272" gradientUnits="userSpaceOnUse">
<stop offset="0.161458" stop-color="#FFC107"/>
<stop offset="0.301983" stop-color="#FFC107"/>
<stop offset="0.4373" stop-color="#FFF507"/>
<stop offset="0.458233" stop-color="#FFF507"/>
<stop offset="0.604167" stop-color="#A7E661"/>
<stop offset="0.744792" stop-color="#27C2D4"/>
<stop offset="0.890525" stop-color="#5452BB"/>
</linearGradient>
</defs>
</svg>
